<svg width="557" height="508" viewBox="0 0 557 508" fill="none" xmlns="http://www.w3.org/2000/svg">
<g clip-path="url(#clip0_2_4152)">
<path d="M476.613 415.036C353.69 509.859 262.131 505.304 234.064 500.886C226.216 499.632 218.341 498.514 210.439 497.45C8.08364 470.37 3.15147 238.073 9.88211 172.213C11.9531 152.005 29.9923 135.833 51.2742 135.67C93.8925 135.342 138.664 163.732 143.16 166.65C185.315 139.733 253.084 106.762 335.95 103.326C335.95 103.326 353.717 49.2743 389.278 21.7849C406.145 8.74921 430.316 10.3309 444.376 24.9756C491.355 73.7639 631.69 290.543 476.613 415.064V415.036Z" fill="#BAE0C7"/>
<path d="M525.253 367.203C525.389 366.93 525.498 366.63 525.607 366.33C525.553 366.575 525.498 366.848 525.389 367.094C527.079 366.275 529.041 363.876 531.303 359.785C535.172 353.376 537.951 346.586 541.249 340.04C542.666 336.686 543.919 333.25 545.282 329.841L547.244 324.687L548.797 319.396C548.824 318.687 548.851 318.033 548.906 317.296C548.906 317.078 549.124 316.614 549.233 316.26L548.824 319.369C550.677 316.314 551.167 312.687 551.576 308.569C551.93 303.879 552.503 298.943 553.184 294.197C553.593 289.452 554.274 284.898 555.337 280.971C556.209 277.589 556.154 274.18 556.209 270.881C556.209 267.581 556.236 264.363 556.372 261.281L555.255 260.163L555.064 260.817L555.173 259.89C555.364 256.536 556.617 255.254 555.555 249.418C554.328 244.182 553.511 237.719 554.437 232.701C554.574 231.746 554.165 227.847 553.838 227.11C551.086 220.074 552.339 210.557 548.879 204.093C549.532 200.657 546.644 196.321 546.699 195.666C547.135 190.13 544.927 188.576 543.456 185.522C542.611 183.722 542.066 180.722 542.23 180.176C542.775 178.376 542.366 175.649 541.412 172.868C540.458 170.086 539.178 167.223 538.333 165.014C536.344 159.641 533.591 155.769 532.611 149.578C532.256 147.015 529.668 141.642 528.278 142.433C528.496 143.224 528.823 144.042 529.232 144.86C529.913 145.76 530.349 146.715 530.431 147.805L530.512 148.624L530.322 147.696L529.831 146.387L529.259 145.106C528.605 144.206 528.196 143.224 528.033 142.215C527.133 138.806 527.433 135.806 525.771 132.643C519.885 122.252 515.689 110.771 509.367 100.926C508.576 99.6443 508.113 99.8898 507.95 100.408V100.981L507.813 100.244C504.925 91.2448 504.734 91.2993 500.184 86.7723L499.666 86.1178L500.102 86.4723C500.456 83.6634 500.429 83.5543 495.469 78.8363L494.87 78.1L495.388 78.6182C494.706 75.6456 494.843 73.1639 493.153 69.5914C488.957 60.4555 489.72 67.0824 487.458 64.1644C484.842 60.8373 481.872 57.9466 479.61 53.5832C478.466 51.5105 477.185 49.4379 475.523 47.3926L473.724 45.5381C473.833 44.6655 474.923 46.7926 475.441 47.2017C473.179 42.5383 470.754 37.9567 468.438 33.6751C466.367 31.6571 465.549 31.3298 465.413 31.9843C465.222 32.9388 464.214 32.3389 462.17 29.939C461.762 27.43 461.544 26.2846 460.454 24.7847C459.909 24.0484 459.146 23.203 458.028 22.1121C456.829 21.0213 455.276 19.6304 453.205 17.776C452.551 17.1488 451.461 16.3034 450.562 15.5943C449.608 14.858 448.709 14.0944 447.701 13.4671L444.731 11.5854C443.722 11.04 442.687 10.5218 441.651 10.0037C437.537 8.06743 433.286 6.6766 428.953 5.99481C427.536 5.69483 425.983 5.64029 424.403 5.47666C422.822 5.23122 421.187 5.06759 419.443 4.46762C419.116 3.48586 422.849 3.10406 424.239 2.58591C424.893 2.31319 424.402 1.82231 423.476 1.38597C422.55 1.00417 421.214 0.758733 420.233 0.813275C414.565 1.24962 409.742 1.60414 403.856 2.06775C402.875 3.1586 400.205 3.94947 397.398 5.31303C395.954 5.913 394.51 6.64932 393.174 7.44019C391.812 8.17652 390.613 8.99465 389.714 9.84006C388.406 10.9855 387.18 12.049 385.981 13.0853C384.754 14.1217 383.501 15.0489 382.493 15.8943C380.313 17.6124 377.806 18.9487 375.026 20.3122C372.574 21.6212 370.612 22.6303 367.941 26.2846C363.064 33.1024 357.859 40.4657 352.9 47.9107C348.867 54.1831 344.18 60.1828 341.428 67.2188C341.073 68.0642 340.283 69.8096 340.229 69.8641C336.686 72.1822 335.187 78.3455 333.552 83.0634C332.435 83.1725 334.234 78.0455 332.135 81.0181C331.1 83.0907 330.827 84.427 330.827 85.1906C330.882 86.9086 330.065 89.3903 329.165 92.0902C329.084 92.7447 328.975 93.2901 329.056 94.2173C329.029 94.4082 328.92 94.4901 328.866 94.7082C328.757 95.0082 327.585 93.2901 327.04 92.9083L326.931 92.8265H326.876C326.876 92.8265 326.631 92.772 326.522 92.772C326.004 92.772 325.487 92.772 324.996 92.7447C324.015 92.7447 323.061 92.7447 322.189 92.8265C320.391 92.9356 318.783 93.2629 317.284 93.9992C318.075 94.0537 318.947 94.081 319.628 94.1628C320.963 94.4082 322.625 94.6537 321.753 95.2264C321.535 95.39 320.037 95.5809 319.383 95.6082C317.421 95.6627 316.167 95.4445 316.63 94.8173C316.821 94.5719 316.794 94.3264 316.876 94.1083C312.925 93.6992 309.164 94.0265 305.649 94.6264C302.134 95.2537 298.918 96.3718 295.975 97.2445C292.978 98.1444 290.771 98.8262 288.972 99.3716C287.201 99.9443 285.866 100.299 284.585 100.49C282.078 100.872 279.925 100.599 275.402 100.026C274.394 99.8898 273.576 99.7261 272.077 100.081C268.099 100.953 264.012 101.826 260.006 102.699C256.055 103.762 252.213 104.962 248.779 106.517C246.844 107.362 245.455 108.535 242.92 109.026C228.778 111.426 215.753 119.798 201.61 123.398C197.523 124.352 191.555 128.088 189.212 130.679C188.122 131.879 188.285 132.697 184.988 134.524C181.8 133.27 181.772 133.297 175.287 138.07C174.688 138.533 174.388 138.969 173.952 139.433C173.407 139.297 173.08 139.024 172.317 139.079C169.619 139.242 166.731 140.333 164.006 143.169C165.968 142.515 166.758 142.76 167.385 143.06C167.712 143.087 168.12 143.06 168.311 143.169C168.393 143.197 167.93 143.551 167.712 143.742L167.03 144.315L167.575 143.769C167.63 143.469 167.521 143.278 167.221 143.169L163.733 143.36C160.708 144.615 157.738 145.924 155.068 147.451C152.425 149.005 150.108 150.778 148.337 152.878C151.471 151.187 154.523 149.333 157.684 147.805C159.673 146.796 161.172 146.415 160.191 147.614C159.455 148.569 157.793 149.796 155.94 150.451C153.215 151.487 150.735 152.223 148.146 153.096L146.157 154.296L145.04 155.005L144.686 155.387L144.958 155.005C144.386 153.969 143.705 154.323 142.996 154.95C142.778 154.923 142.479 154.95 142.233 154.896C141.47 154.814 141.334 155.169 141.498 155.769C141.634 156.341 142.124 157.159 141.579 157.35C140.898 156.614 140.653 156.287 139.236 155.06C135.421 151.296 131.633 147.642 123.622 145.815C123.104 145.705 121.633 144.969 121.033 144.587C112.395 138.997 104.765 137.66 96.9445 136.324C93.7018 135.697 88.0611 136.079 88.6606 133.133C88.8514 132.206 84.8185 131.634 83.129 131.743C78.3058 131.852 75.8806 131.934 73.2646 131.661C70.6759 131.334 68.0327 130.434 62.6373 129.179C60.7571 128.688 59.2311 128.143 57.4054 127.843C55.5797 127.516 53.5905 127.161 50.5385 127.243C48.7945 127.379 47.4321 127.57 46.3421 127.843C45.2521 128.17 44.4073 128.525 43.6444 128.906C42.1184 129.588 40.9739 130.461 38.8757 131.279C34.4885 131.797 33.2895 130.243 26.5861 134.115C18.6565 138.969 11.4354 145.487 6.85745 154.078C4.65024 158.414 3.56025 162.886 2.90626 167.386C2.68827 169.677 2.44302 171.995 2.36127 173.877C2.22503 175.868 1.92528 177.913 1.59829 180.013L2.55202 181.431C3.01526 179.358 3.50575 177.286 4.15974 174.777C4.10524 179.849 3.42401 180.858 2.57927 181.567C3.86 188.958 2.30677 195.503 1.51654 202.321C-0.0911878 204.83 0.0995591 207.502 1.46204 210.229C1.46204 211.047 1.54379 211.784 1.68003 212.438L2.08878 214.92C1.51654 215.602 1.81628 213.229 1.59829 212.684C0.944296 212.82 0.208557 213.365 0.290306 216.638C0.64455 230.683 2.19778 244.537 3.15151 258.69C3.31501 261.608 4.078 266.326 5.27698 267.608C6.58496 268.972 6.47596 271.617 6.7757 274.644C7.0482 277.944 6.09446 279.88 7.26619 283.971C8.35618 287.68 9.33716 285.498 10.3999 287.243C10.4544 290.216 10.4816 292.343 10.5361 294.443C10.0184 292.67 9.50066 289.97 8.90117 290.107C8.11093 290.27 9.01017 292.998 9.28266 294.716C9.28266 297.743 9.8549 300.633 11.1084 302.079C11.6806 302.761 12.1166 302.079 12.6071 302.024C13.1249 301.97 13.7516 302.024 14.3783 304.37C15.7681 309.388 13.3973 304.642 13.8333 307.151C14.4328 310.915 14.8416 313.833 12.9614 310.26C13.0431 315.224 14.4873 320.051 16.5038 322.969C18.9835 326.514 20.5367 331.477 22.0082 337.286C20.6457 336.741 19.256 329.323 17.839 329.841C18.3023 331.477 18.711 332.923 19.1198 334.341C19.9645 337.286 21.109 340.995 22.2262 344.24C23.3162 347.458 24.3244 350.213 25.0874 351.222C29.4473 356.649 28.1121 360.63 30.5918 365.785C33.0715 370.366 35.0607 375.684 37.5677 380.62C38.8212 383.075 40.1292 385.502 41.5189 387.738C42.2001 388.856 42.9086 389.947 43.6444 390.956C44.4346 391.938 45.2521 392.892 46.0968 393.765L46.6418 394.474L46.1513 394.038C45.7698 395.156 46.9416 397.365 48.4948 400.365C49.8573 403.119 51.6285 405.601 53.3997 408.082C55.1437 410.564 56.8604 413.073 58.2774 415.773C61.2203 420.682 64.0543 423.409 66.9972 425.236C69.7222 426.981 70.0492 427.281 74.9541 433.117C73.6189 432.408 70.6759 429.108 70.6487 430.581C72.7741 433.145 73.8369 434.426 75.3083 435.763C76.0441 436.444 76.8888 437.126 78.0061 438.026C79.1778 438.872 80.7038 439.853 82.693 441.19C83.7285 441.899 88.6879 445.935 87.1347 446.398C85.5269 446.862 88.0066 449.562 90.5954 451.635C93.2386 453.898 95.909 456.216 98.6067 458.425C101.304 460.607 104.275 462.352 107.109 463.907C105.719 462.325 103.92 460.77 102.04 459.189C100.105 457.661 98.3342 455.807 96.6448 454.143C99.9692 457.771 107.081 460.716 107.354 463.988C109.534 465.706 111.632 467.561 114.003 469.061C116.373 470.561 118.771 472.061 121.169 473.588C122.995 474.706 124.794 475.906 126.674 476.942L132.423 479.806L138.173 482.615C139.127 483.078 140.081 483.569 141.062 483.978L144.032 485.151C147.983 486.705 151.907 488.287 155.831 489.842C159.809 491.232 163.815 492.487 167.739 493.932C169.565 494.587 171.39 495.241 173.243 495.841C175.124 496.305 176.976 496.768 178.857 497.232C182.59 498.105 186.323 498.977 190.029 499.823C197.523 501.05 205.098 502.195 212.483 503.532C213.872 503.777 215.507 503.886 216.788 503.913C218.805 503.941 219.622 503.723 217.824 502.904C217.36 502.686 208.559 501.923 216.434 502.032C218.723 502.032 223.655 502.577 223.573 504.077C223.519 504.868 225.944 505.468 228.778 505.632C232.893 505.822 237.389 506.45 241.776 506.832C246.163 507.295 250.523 507.595 254.747 507.895C258.889 508.113 262.894 507.541 266.873 507.213C270.851 506.695 274.83 506.422 279.081 507.022C280.634 507.186 282.896 506.259 284.394 505.523C290.062 502.795 295.567 501.759 305.622 501.814C303.66 502.141 301.67 502.468 299.736 502.795C297.883 503.15 295.567 503.586 296.52 504.132C297.038 504.432 298.809 504.186 300.362 503.859C302.76 503.286 304.995 502.795 306.303 501.895C310.063 500.777 313.769 499.686 317.53 498.541C321.317 497.559 325.105 496.223 329.356 495.514C328.838 495.95 328.293 496.387 327.857 496.823C327.803 496.85 328.484 496.796 328.811 496.768L330.255 495.459C350.12 488.614 369.903 480.351 388.869 471.133C417.835 457.089 442.605 438.572 467.511 419.318C472.035 415.882 473.098 413.891 473.533 412.2C473.969 410.455 471.544 411.191 468.165 413.046C463.506 415.582 458.682 417.9 453.832 421.609C449.854 424.772 445.603 427.527 441.379 430.227L428.653 438.353C424.348 440.944 419.906 443.317 415.546 445.853C411.132 448.335 406.854 451.062 402.303 453.353C375.108 468.515 345.733 480.951 315.35 487.223C301.97 489.923 288.536 492.432 274.857 493.141C261.559 493.796 247.28 494.423 234.146 491.56C226.734 490.06 219.295 489.078 211.856 488.178C208.313 487.633 204.771 487.114 201.229 486.569C197.686 485.942 194.089 485.533 190.656 484.415C179.075 481.278 166.676 478.469 155.913 473.342C153.433 472.197 150.926 471.052 148.419 469.906C145.939 468.706 143.569 467.288 141.143 466.034C138.718 464.752 136.32 463.47 133.949 462.216C131.66 460.798 129.399 459.407 127.164 458.043C117.327 452.289 108.662 444.953 100.351 437.399C98.307 435.463 96.3995 433.363 94.4375 431.372C92.5028 429.327 90.4046 427.445 88.6606 425.236C85.0364 420.927 81.167 416.836 77.8153 412.282C76.4256 410.509 75.0904 408.6 73.7551 406.664C72.4199 404.728 71.3299 402.628 70.0492 400.637C68.823 398.646 67.5422 396.71 66.1253 394.91C64.7628 393.083 63.4275 391.31 61.8471 389.811C61.5473 389.538 60.7298 388.011 60.5391 387.465C57.6234 378.411 50.3478 368.894 47.65 359.185C47.0506 357.14 45.5246 353.676 44.2984 351.304C41.0829 345.249 39.6387 338.841 37.5132 332.377C30.8916 309.797 26.6134 286.507 22.5804 263.136C21.6812 258.418 21.1635 253.209 21.4905 248.818C22.1172 241.455 21.4905 234.064 20.4277 226.319C20.0735 224.11 19.692 221.138 19.8555 219.338C20.6185 210.066 20.8637 201.475 19.5012 193.021C19.4195 192.503 19.5012 190.976 19.6375 190.567C20.8365 186.803 21.4087 182.685 21.6812 178.458C21.7357 177.395 21.8175 176.331 21.872 175.268L21.9537 173.659L22.0627 172.513C22.1172 170.986 22.417 169.431 22.7984 167.932C22.9892 167.277 23.2072 166.623 23.4252 165.995C23.7249 165.368 24.0247 164.741 24.3244 164.141C27.4854 158.496 32.6628 153.941 38.4942 151.132C41.4099 149.687 44.5163 148.705 47.7045 148.16C48.4948 147.942 49.3123 147.942 50.1025 147.805L51.3287 147.642L52.8275 147.587L58.8224 147.26C60.1848 147.26 61.6018 147.314 62.5556 147.724C69.3407 150.696 78.6873 151.787 87.1347 154.269C89.1784 154.896 91.3583 155.932 93.5928 156.723C95.8273 157.623 98.1435 158.332 100.569 158.278C101.413 158.278 103.757 159.368 106.482 160.732C109.18 162.177 112.259 163.895 114.52 165.204C118.199 167.223 121.851 169.268 125.502 171.286L128.227 172.786L129.589 173.549L130.38 173.986L131.797 174.831C135.557 177.04 139.318 179.413 142.996 181.676L157.929 172.022L166.24 166.813C169.074 165.177 171.908 163.568 174.769 162.014C177.685 160.514 180.628 159.123 183.598 157.787C187.277 155.196 191.391 153.232 195.615 151.351C199.893 149.605 204.199 147.751 208.477 145.787C214.145 143.087 215.562 142.515 213.791 141.615C213.218 141.315 212.128 141.233 212.21 140.688C212.401 139.133 215.998 136.951 220.222 135.561C224.963 133.952 224.254 134.988 221.993 136.87C219.54 138.888 223.001 138.888 226.107 137.933C231.012 136.461 236.953 134.879 240.958 132.124C241.749 131.606 242.048 131.088 243.002 130.597C243.438 130.379 243.765 130.679 244.065 130.87C246.245 132.37 250.932 130.461 256.218 128.47C259.434 127.243 262.649 125.77 265.946 124.707C269.271 123.752 272.677 123.152 276.219 123.479C281.206 122.034 286.574 121.407 291.779 120.398C297.011 119.552 302.134 118.734 306.766 117.071C310.2 115.98 312.897 115.298 316.603 116.007C318.62 116.389 322.026 115.871 324.969 115.734C331.372 115.271 337.803 114.78 344.207 114.316C345.461 110.526 346.687 106.68 348.022 102.971L349.602 98.7989L350.72 96.0172C352.218 92.3356 353.935 88.6813 355.815 85.136C356.933 83.0089 356.933 81.4271 356.687 80.4726L356.224 80.909L356.742 80.2545C359.848 76.2729 362.682 71.2822 365.598 66.2916C367.478 63.1827 369.195 60.1828 367.342 60.701C365.516 61.2464 365.135 60.0465 367.042 55.9012C368.841 52.1923 370.285 48.6743 372.438 45.0745C373.419 43.3837 374.1 43.711 374.618 43.3019C378.623 40.3293 377.942 41.9929 375.98 45.5927C374.454 48.4834 371.375 52.5196 372.002 54.1286C373.555 52.3832 374.618 50.5015 375.735 48.6743C376.825 46.8199 377.997 45.02 379.986 43.8201L381.92 41.9656C381.294 43.411 380.612 43.2474 379.958 43.8746C378.923 45.7563 378.65 46.9835 381.021 44.8018C382.901 43.111 384.809 40.9566 386.934 39.0203C387.97 38.0113 389.005 36.9477 390.014 35.8568C391.076 34.8478 392.139 33.8388 393.174 32.857C394.183 31.9025 395.218 30.7299 396.09 29.9663C396.962 29.2299 397.671 28.3572 398.515 27.73C400.069 26.3119 401.54 25.1938 402.576 24.1029C403.529 23.2575 403.339 23.0121 402.548 23.0666C401.758 23.1484 400.45 23.7211 399.169 24.2393L398.597 24.7302L398.951 24.2938C400.287 22.3848 405.137 20.2577 405.437 18.8123C405.519 18.1305 406.527 17.6396 407.753 17.4215C409.007 17.2851 410.423 17.2306 411.404 17.3124C415.901 17.6942 411.486 18.0214 410.342 18.5123C408.761 19.1668 408.598 19.8213 410.314 19.7668C413.394 19.7941 413.966 20.2304 413.503 20.5577C413.039 20.9667 411.541 21.2395 410.369 21.8121C408.598 22.4667 406.009 23.5575 407.699 24.1029C408.489 24.3484 409.388 24.2393 410.369 24.0757C411.35 23.8302 412.413 23.6121 413.448 23.5575C414.865 23.3939 416.146 23.4757 417.372 23.2575C418.571 23.2575 419.77 23.0394 420.942 23.0939C423.285 23.0394 425.765 23.2848 428.517 24.512C434.158 27.4846 428.735 25.7938 428.926 26.421C428.681 26.421 428.408 26.3664 428.245 26.421C428.19 26.421 428.517 26.7755 428.626 26.8028C428.926 26.9119 429.198 26.9391 429.498 27.021C430.697 27.5118 431.678 28.3027 432.741 28.7663C433.722 29.3936 434.73 29.8572 435.684 30.1844C436.665 30.5935 437.373 31.0844 438.136 32.0116C438.927 32.9661 439.608 34.0297 440.316 35.0387L439.444 35.5296C439.935 36.075 440.643 36.9477 440.888 37.0841C442.115 37.7931 441.76 36.8113 441.134 35.6387C442.224 34.8751 442.278 33.1843 448.219 39.893C452.906 45.2927 459.064 51.4287 463.369 53.4195C464.459 56.0376 465.331 58.1102 466.203 60.1828C465.958 59.9919 465.658 59.7465 465.468 59.6919C465.413 59.6919 465.631 60.2646 465.74 60.3737C466.04 60.701 466.312 60.9464 466.612 61.2464C467.13 61.9554 467.648 62.5554 468.165 63.0736L468.792 63.7826L468.22 63.2645L468.383 65.8007C465.141 61.6009 461.271 57.9193 461.952 61.0282C462.77 64.7371 466.667 67.7097 469.283 70.655C470.073 71.5277 470.754 71.8004 471.49 72.3458C471.708 72.4549 472.062 72.7821 472.089 72.673C472.144 72.4003 472.035 71.9095 471.98 71.5004C474.405 74.582 476.776 77.7455 478.983 81.0181C481.136 84.3179 483.044 87.7813 484.57 91.4084C484.352 91.1902 484.106 90.9448 483.888 90.7812C483.888 90.7812 484.025 91.3266 484.079 91.3539C484.324 91.6266 484.542 91.8447 484.788 92.0902C487.812 95.4445 491.382 100.953 493.317 100.653L493.208 100.026L493.453 100.79C495.578 104.826 497.976 107.117 500.075 110.907C499.339 111.262 498.521 111.262 498.085 111.971C497.649 112.653 498.276 114.834 499.72 117.016C504.789 124.27 509.149 134.77 513.999 140.578C514.108 141.533 514.381 142.215 514.735 142.324C514.844 142.351 514.735 141.778 514.708 141.506C515.498 144.178 520.512 147.26 517.923 149.796C517.242 150.505 518.332 153.669 519.803 156.287C521.493 159.205 524.081 163.677 524.381 162.096C525.226 157.623 527.188 165.45 528.441 168.095L528.823 168.804L528.469 168.368C527.27 167.877 525.934 167.004 524.926 167.086C524.218 167.141 524.626 169.704 525.498 172.159C526.507 174.968 526.752 173.768 527.052 173.304C527.624 172.431 528.523 174.34 529.586 176.604C531.602 181.022 533.455 185.385 535.581 190.239C534.055 192.121 532.638 193.267 536.425 203.766C537.488 206.52 537.951 209.902 538.66 213.12C539.341 216.338 540.268 219.365 541.821 221.574C543.183 223.619 543.456 232.483 545.527 234.91C545.363 235.728 545.118 236.573 544.927 237.419L546.045 239.491C546.235 241.346 546.344 243.118 546.045 244.291L545.472 243.5L545.881 245.464C545.418 251.109 544.955 255.8 546.126 264.09C546.453 267.772 546.562 272.108 546.535 276.58C546.562 278.817 546.344 281.08 546.045 283.316C545.745 285.553 545.391 287.761 544.955 289.889L544.791 291.307L545.064 290.707C546.453 290.707 546.699 291.307 546.017 294.552C544.982 298.343 544.927 300.961 544.873 304.015C544.955 308.351 544.11 312.96 543.047 317.842L542.829 320.296C542.121 320.814 542.993 318.633 542.911 318.087C542.448 316.969 541.984 315.878 541.521 314.733C538.769 325.178 537.515 327.087 538.142 327.905C539.586 330.141 534.409 334.286 535.635 337.395C536.344 339.631 532.284 341.731 531.602 345.222C531.221 347.295 530.621 349.395 529.886 351.494C528.986 353.512 527.924 355.558 526.834 357.603C524.626 361.694 522.31 365.839 519.694 369.63C518.659 371.266 517.678 372.984 517.896 373.775C518.441 375.848 518.032 376.093 516.533 379.12C513.672 384.22 509.394 388.42 505.851 393.11C509.993 389.783 513.727 385.911 517.106 381.711C520.185 377.239 522.828 372.411 525.253 367.475V367.203ZM266.083 504.923C267.2 504.895 267.581 505.113 266.9 505.441C266.437 505.659 265.728 505.822 265.156 506.013C264.884 505.822 264.257 505.604 264.42 505.441C264.611 505.25 265.456 504.977 266.083 504.95V504.923ZM251.777 506.041C252.24 506.041 252.839 506.041 253.221 506.095C254.311 506.286 254.038 506.422 252.458 506.368C252.022 506.368 251.559 506.259 251.123 506.204C251.341 506.15 251.504 506.041 251.777 506.041ZM236.163 504.677C236.462 504.677 237.116 504.786 237.607 504.868L238.397 505.195C237.934 505.195 237.47 505.195 237.034 505.141C235.563 504.923 235.209 504.732 236.163 504.677ZM192.972 498.377C195.206 498.159 197.414 498.623 199.621 499.441L202.21 500.232C200.466 500.368 200.248 499.741 199.294 499.496L193.217 498.487H192.291L192.999 498.377H192.972ZM172.562 493.196C175.26 494.069 178.066 494.614 181.554 495.541C177.494 495.732 174.769 494.587 172.181 493.141L170.709 492.078C172.726 492.514 171.581 492.787 172.562 493.196ZM152.288 486.351C152.833 486.596 153.215 486.951 153.678 487.251C152.779 486.924 151.852 486.596 150.98 486.214C150.435 485.969 149.972 485.614 149.318 485.205C150.463 485.642 151.416 485.942 152.261 486.324L152.288 486.351ZM137.301 479.697L137.982 480.188L137.083 479.778L137.301 479.697ZM124.358 472.852C124.848 473.342 125.638 474.242 125.557 474.215C122.423 473.206 119.425 470.724 116.537 468.788C119.425 470.67 121.442 469.906 124.385 472.852H124.358ZM60.2393 414.191C60.7026 414.818 61.2748 415.718 61.5746 416.345C62.0378 417.245 61.7926 417.382 61.1113 416.645C60.1303 415.609 59.2584 414.409 59.1766 413.455C59.5036 413.673 59.9123 413.755 60.2393 414.191ZM55.4434 406.173C56.1247 406.882 56.5607 407.728 56.2609 407.755C56.0429 407.755 55.4434 407.264 54.9529 406.746C54.2444 406.037 53.9447 405.382 54.1082 405.082C54.5714 405.437 54.9802 405.655 55.4707 406.173H55.4434ZM40.7832 382.72L40.6197 382.775L40.2927 381.929L40.7832 382.72ZM36.5867 366.848C37.1317 368.021 37.1045 368.321 36.505 367.584C36.3142 367.366 36.0962 366.903 35.8782 366.575C35.9327 366.439 35.96 366.275 36.0145 366.112C36.178 366.357 36.4232 366.575 36.5595 366.875L36.5867 366.848ZM31.6818 361.776C31.818 362.157 31.9543 362.676 31.927 362.894C31.927 363.548 31.6001 363.167 31.2186 361.939C31.1368 361.639 31.2186 361.448 31.2186 361.203C31.3821 361.394 31.6273 361.612 31.6818 361.776ZM5.63122 249.964L4.86823 258.499C4.43224 253.972 3.28776 249.064 4.51399 247.864C4.75923 247.645 5.24973 249.227 5.63122 249.964ZM1.97978 207.693V204.448C2.30677 205.511 2.30677 206.602 1.97978 207.693ZM15.4411 200.603C15.4956 200.984 15.5773 201.366 15.5773 201.775C15.5773 201.966 15.4138 202.402 15.3321 202.348C15.0323 202.13 14.9778 201.393 15.1686 200.466C15.1958 200.303 15.3593 200.548 15.4411 200.603ZM29.4473 153.887L29.0931 154.432L29.2293 153.996C29.3656 153.805 29.4746 153.614 29.6381 153.451C29.5563 153.587 29.5018 153.751 29.4473 153.914V153.887ZM26.7769 146.851V146.66L27.4309 146.251L26.7769 146.851ZM62.9916 145.569L62.8008 145.324L63.4003 145.406L62.9643 145.569H62.9916ZM94.4648 147.124L93.7018 146.769L94.5738 147.015L94.4375 147.151L94.4648 147.124ZM136.429 169.513C135.421 168.913 133.595 167.604 133.731 167.577C134.113 167.086 136.484 168.395 138.773 169.759C139.263 170.113 139.944 170.604 140.517 171.04C141.089 171.45 141.552 171.804 141.525 171.831C141.171 172.295 138.963 171.068 136.429 169.568V169.513ZM192.89 131.334L190.356 133.379L187.931 135.233C186.078 136.679 184.089 137.688 181.854 138.179H181.336L182.099 137.988L187.577 135.315L190.083 133.433L192.672 131.361L193.381 130.87L192.89 131.334ZM208.886 124.161C208.477 124.352 207.959 124.598 207.605 124.707C206.569 125.007 206.76 124.788 208.15 124.161C208.531 123.998 208.995 123.888 209.403 123.752C209.24 123.888 209.131 124.052 208.886 124.161ZM222.456 118.625C221.121 119.007 219.731 119.416 218.641 119.58C218.096 119.661 218.941 119.089 220.194 118.652C221.475 118.189 222.783 117.862 224.309 117.398C223.491 117.943 222.892 118.516 222.456 118.652V118.625ZM246.463 109.489C247.825 109.08 249.215 108.917 250.578 108.617L252.73 107.58C253.738 107.88 251.123 108.289 250.85 108.617C249.597 109.107 248.425 109.626 247.117 110.062C245.972 110.471 244.147 111.098 244.365 110.471C244.419 110.307 245.727 109.707 246.463 109.489ZM245.645 122.661L246.272 122.498L245.945 122.825L245.673 122.661H245.645ZM257.09 122.607C256.191 122.852 255.319 123.179 254.447 123.452C254.093 123.916 253.711 124.379 253.357 124.816C252.812 125.525 251.668 126.152 249.46 126.507C248.697 126.616 247.88 126.643 247.58 126.507C246.708 126.125 248.043 125.47 250.06 124.734C251.395 124.243 252.757 123.834 254.093 123.398C255.21 122.907 256.273 122.361 257.499 121.952C258.752 121.543 260.878 121.025 260.633 121.543C260.387 122.034 258.344 122.252 257.09 122.607ZM283.168 109.244C283.413 109.244 283.386 109.407 283.468 109.489C283.086 109.571 282.65 109.735 282.378 109.762C282.024 109.789 281.533 109.762 281.533 109.68C281.533 109.38 282.187 109.189 283.168 109.244ZM279.053 117.834C279.299 117.643 280.28 117.343 281.015 117.152C281.506 117.043 282.133 117.071 282.759 117.043C281.915 117.343 281.233 117.589 280.47 117.807C279.435 118.107 278.672 118.134 279.026 117.807L279.053 117.834ZM283.74 119.525C282.868 119.989 281.697 120.425 280.661 120.861L279.871 121.216L280.525 120.861C280.934 120.425 281.179 119.989 281.806 119.552C282.187 119.28 283.332 118.734 283.686 118.707C285.866 118.543 284.476 119.143 283.74 119.525ZM284.776 113.716C284.122 113.989 283.223 114.207 282.46 114.453C281.342 114.644 280.852 114.534 281.615 114.18C282.105 113.934 283.141 113.689 283.958 113.525C285.239 113.28 285.62 113.389 284.776 113.716ZM314.233 113.198C316.767 111.835 317.911 110.826 322.353 109.789C321.072 111.044 320.255 111.998 314.233 113.198ZM325.269 107.417C324.86 107.471 324.397 107.553 324.07 107.526C323.879 107.526 323.688 107.335 323.824 107.28C324.397 106.98 325.187 106.898 325.732 107.089C325.868 107.144 325.432 107.308 325.269 107.417ZM328.402 110.744L329.193 110.471L329.683 110.689L328.43 110.744H328.402ZM335.869 107.989C334.452 108.235 333.171 108.235 333.389 107.962C333.498 107.798 334.779 107.553 335.705 107.444C336.468 107.362 337.558 107.444 338.675 107.444C337.64 107.662 336.795 107.826 335.869 108.017V107.989ZM352.981 86.745C352.763 87.7541 352.436 88.2995 352.191 88.0813C352.137 88.0268 352.273 87.5086 352.327 87.2086C352.518 86.9086 352.791 86.3632 352.845 86.336C352.954 86.3087 353.036 86.4723 352.981 86.745ZM347.123 84.836C346.278 86.4996 345.897 86.3905 345.924 85.6269C345.924 85.2451 346.36 84.2088 346.578 83.4452L347.477 83.0361C347.368 83.6361 347.341 84.3451 347.123 84.8088V84.836ZM360.121 70.5186C360.611 70.4368 360.639 71.0913 360.039 72.5367C359.058 74.2275 358.786 73.8457 358.322 74.0093C357.042 74.4457 354.862 76.4365 356.687 71.664C357.042 70.7641 358.077 68.9914 358.677 68.3915C361.265 65.6916 359.031 70.7368 360.121 70.5186ZM357.968 45.2382C357.151 46.3017 356.796 46.4654 357.042 45.6745C357.096 45.5381 357.532 44.9927 357.805 44.6382C358.023 44.5018 358.35 44.2564 358.431 44.2837C358.486 44.3109 358.159 44.9654 357.968 45.2109V45.2382ZM364.644 33.457C364.481 33.7297 364.344 33.9751 364.208 34.2478C364.317 34.0024 364.426 33.757 364.562 33.5115L365.026 32.7206L364.644 33.457ZM390.395 31.5753C389.005 32.557 387.616 33.2661 387.943 32.257C388.106 31.7662 388.76 30.9207 389.196 30.239C390.15 29.939 391.104 29.639 391.73 29.4481C392.112 29.939 391.621 30.7299 390.422 31.5753H390.395ZM426.664 16.6306L426.964 17.0397C426.964 17.0397 426.828 17.2851 426.61 17.2578C425.874 17.1488 425.574 16.9033 425.928 16.6851C426.038 16.6033 426.419 16.6579 426.664 16.6306ZM429.144 21.5122C426.855 21.1576 424.512 20.7486 420.56 20.3122C422.849 19.4941 426.528 20.5849 428.953 21.3758L429.689 21.5394H429.144V21.5122ZM437.019 27.9209L435.411 26.4483C435.929 26.7482 436.474 27.021 436.965 27.3755C437.537 27.8118 437.973 28.4391 438.463 28.9845L437.019 27.9209ZM439.499 26.9391C437.591 25.0302 437.401 24.3211 437.946 23.8029C438.545 23.2575 440.125 23.5848 442.251 25.3301C444.785 28.2482 444.949 29.6935 444.404 30.1572C444.077 30.4571 443.368 30.2117 442.496 29.5845C442.06 29.2572 441.57 28.8481 441.052 28.3573C440.562 27.9209 440.017 27.4846 439.499 26.9664V26.9391ZM460.372 29.9117C459.173 28.2209 460.181 28.8481 460.617 28.9572C460.944 29.039 461.625 29.5572 462.143 29.9117C461.898 29.9663 461.68 30.0753 461.407 30.0753C461.108 30.0753 460.726 29.9663 460.372 29.9117ZM467.293 39.6748C467.021 39.3476 466.83 38.9385 466.585 38.5567C466.776 38.6658 466.939 38.8021 467.103 38.884C467.402 39.293 467.811 39.7294 467.975 40.0566C468.52 41.0384 468.247 40.902 467.293 39.6748ZM469.637 50.8288L469.501 50.3106L469.855 51.0197L471.245 53.4468C469.991 52.3832 470.209 51.7015 469.637 50.8288ZM470.972 70.955L469.065 67.5461L471.79 71.2004C471.599 71.2549 471.326 71.2004 470.972 70.9277V70.955ZM511.765 110.662C511.301 109.98 511.247 109.571 511.71 109.735C511.846 109.789 512.092 110.089 512.282 110.28L512.201 110.798C512.064 110.771 511.928 110.88 511.765 110.662ZM504.08 118.543H504.271L504.543 119.361L504.08 118.543ZM515.389 120.752L515.089 119.934L515.58 120.752H515.389ZM508.331 127.134L508.113 126.37L508.549 127.216L508.331 127.134ZM514.708 136.57C514.653 136.27 514.49 135.779 514.544 135.751C514.626 135.697 514.898 135.888 515.062 136.161C515.689 137.224 515.798 137.797 515.362 137.551C515.253 137.47 514.926 136.924 514.708 136.57ZM528.659 149.987L528.741 149.551L529.041 150.314L528.659 149.987ZM546.154 236.873L546.317 237.364L546.181 237.719V236.846L546.154 236.873ZM545.472 316.505L545.772 316.314L545.527 317.105L545.445 316.505H545.472ZM538.551 336.904C539.232 334.423 539.968 334.15 540.704 332.868L541.058 332.459L540.676 333.141C540.077 334.395 539.477 335.65 538.878 336.85C538.769 337.068 538.524 336.959 538.551 336.904ZM530.921 353.24C531.602 351.958 531.929 351.74 531.711 352.694C531.657 352.967 531.357 353.513 531.166 353.949L530.649 354.222C530.73 353.894 530.758 353.54 530.921 353.24Z" fill="#BAE0C7"/>
<path d="M358.976 37.7113C360.448 35.3387 362.137 32.7479 361.429 32.2025C360.312 32.8297 359.031 34.2206 357.777 35.9932C355.788 38.7749 354.889 41.0111 355.761 41.202C356.333 41.3384 357.75 39.5657 358.949 37.7113H358.976Z" fill="#BAE0C7"/>
<path d="M495.279 403.01C493.208 404.892 492.172 405.737 491.055 406.61C489.365 408 485.959 410.482 487.976 410.1C488.875 409.937 490.101 409.146 491.409 407.919C492.772 406.746 494.08 405.001 495.279 402.983V403.01Z" fill="#BAE0C7"/>
<path d="M449.499 44.3927C448.191 42.8383 446.883 41.5565 446.311 41.7474C445.603 41.9383 446.992 43.6837 448.164 45.1563C449.363 46.6563 450.698 48.1016 451.27 47.8289C451.87 47.5289 450.725 45.9472 449.526 44.42L449.499 44.3927Z" fill="#BAE0C7"/>
<path d="M344.806 57.6193C345.896 55.7649 346.741 54.0741 346.223 53.7468C345.896 53.5286 345.079 54.4831 344.207 55.9012C343.172 57.7011 342.191 59.5283 342.79 59.7465C343.144 59.8828 343.907 59.1465 344.806 57.6193Z" fill="#BAE0C7"/>
<path d="M456.148 54.074C455.985 54.3195 456.53 55.2194 457.211 55.8194C457.674 56.2557 458.056 56.3376 458.464 56.6103L457.265 54.6467C456.884 54.4286 456.257 53.9377 456.148 54.074Z" fill="#BAE0C7"/>
<path d="M379.659 14.6398C380.64 13.8762 380.994 13.3581 380.776 13.1672C380.095 13.5762 379.25 13.9853 378.732 14.4489C377.778 15.2943 377.779 15.6488 378.569 15.3216C378.841 15.2125 379.304 14.9398 379.686 14.6398H379.659Z" fill="#BAE0C7"/>
<path d="M479.365 417.873C480.237 417.3 480.755 416.7 480.864 416.236C480.7 416.236 480.591 416.127 480.373 416.264C479.528 416.809 478.983 417.436 478.929 417.873C478.929 418.009 479.147 418.009 479.392 417.873H479.365Z" fill="#BAE0C7"/>
<path d="M501.546 396.901C501.41 396.901 501.301 396.847 501.083 396.983C500.974 397.037 500.647 397.474 500.429 397.746C500.565 397.746 500.674 397.801 500.892 397.665C501.001 397.61 501.328 397.174 501.546 396.901Z" fill="#BAE0C7"/>
<path d="M1.27134 186.749C0.94435 186.585 0.862601 187.158 0.998849 188.358C0.998849 188.494 1.1896 188.194 1.29859 188.085V186.721L1.27134 186.749Z" fill="#BAE0C7"/>
<path d="M508.031 386.047C507.895 386.047 507.786 386.02 507.568 386.156C507.459 386.238 507.187 386.702 506.969 386.974C507.105 386.974 507.214 387.002 507.405 386.865C507.514 386.783 507.786 386.32 508.004 386.047H508.031Z" fill="#BAE0C7"/>
<path d="M448.273 12.2945C448.137 12.0763 448.11 11.8854 447.837 11.64C447.51 11.34 446.856 10.8491 446.584 10.74C445.712 10.3309 445.957 10.6855 447.156 11.64C447.483 11.8854 447.892 12.0763 448.273 12.2945Z" fill="#BAE0C7"/>
<path d="M392.221 5.96754C392.411 5.83119 392.275 5.77665 392.275 5.66756C391.839 5.83119 391.294 5.96754 390.967 6.15844C389.523 6.94931 389.55 7.16748 390.967 6.62206C391.294 6.51297 391.948 6.15844 392.248 5.96754H392.221Z" fill="#BAE0C7"/>
<path d="M469.582 73.4912L470.045 74.3639L470.509 74.582C470.345 74.282 470.127 73.7912 470.045 73.7094C469.855 73.5185 469.718 73.5457 469.555 73.4912H469.582Z" fill="#BAE0C7"/>
<path d="M479.91 277.671C503.971 347.404 440.943 405.382 349.412 437.044C257.88 468.679 172.507 462.025 148.446 392.265C124.385 322.532 175.042 228.665 266.573 197.03C358.104 165.395 455.848 207.911 479.937 277.671H479.91Z" fill="#FFF6E1"/>
<path d="M464.459 241.128L463.996 240.8L464.432 241.019C464.65 239.655 464.078 237.828 462.225 235.837C456.557 229.265 451.107 222.829 444.731 217.102C444.349 216.965 443.968 216.829 443.559 216.665C443.45 216.611 443.259 216.365 443.096 216.229L444.703 217.102C443.886 214.947 441.815 214.156 439.689 213.011C437.291 211.675 434.73 210.311 432.414 208.838C430.125 207.284 427.945 205.73 426.337 203.902C423.585 200.712 419.47 200.03 416.664 197.685L415.574 198.339L415.819 198.694L415.41 198.339C413.802 197.221 413.721 195.721 410.287 194.957C407.181 194.303 403.611 193.048 401.567 190.512C401.159 190.049 399.088 189.067 398.597 189.094C393.965 189.203 389.932 184.458 385.354 185.194C383.964 183.285 380.721 184.158 380.422 183.858C377.915 181.267 376.28 182.767 374.263 182.767C373.091 182.767 371.429 182.058 371.211 181.649C369.903 179.086 365.135 179.222 362.382 178.84C359.003 178.486 356.197 179.167 352.791 177.367C351.374 176.686 347.831 176.577 347.804 178.158C348.267 178.322 348.785 178.404 349.33 178.376C349.984 178.186 350.611 178.213 351.183 178.567L351.619 178.84L351.101 178.622L350.284 178.513L349.466 178.458C348.812 178.649 348.185 178.595 347.613 178.24C345.624 177.531 344.18 175.895 342.054 176.086C338.512 176.386 334.969 176.086 331.427 176.086C329.656 176.031 327.884 175.949 326.141 176.004C324.397 176.086 322.653 176.222 320.936 176.467C320.064 176.604 320.064 177.095 320.309 177.477L320.636 177.722L320.2 177.531C314.641 176.031 314.587 176.195 311.072 178.186L310.608 178.349L310.908 178.131C309.437 176.549 309.355 176.495 305.676 178.731L305.131 178.922L305.513 178.676C303.714 177.913 302.324 176.74 299.926 176.467C293.85 176.004 297.828 178.376 295.73 179.031C293.332 179.822 291.125 180.913 288.182 180.995C286.765 180.995 285.321 181.158 283.849 181.622L282.459 182.304C281.969 181.813 283.386 181.84 283.713 181.567C280.579 181.294 277.446 181.349 274.503 181.267C272.977 182.031 272.65 182.576 273.031 183.013C273.603 183.667 273.058 184.158 271.342 184.812C268.181 183.094 268.371 183.231 262.676 186.176C258.671 188.521 254.91 190.703 251.34 193.294C250.141 194.139 248.997 195.421 247.008 195.339C246.436 194.521 247.825 193.239 248.043 192.23C248.261 191.276 246.408 191.248 245.7 191.876C243.602 193.757 241.585 194.93 238.751 195.503C238.397 197.33 234.5 199.075 232.947 201.148C230.713 203.984 228.151 205.157 224.445 205.348C222.756 205.457 221.42 205.484 219.649 207.366C217.987 209.084 216.161 210.747 214.199 212.329C212.292 213.965 210.303 215.602 208.259 217.129C206.515 218.383 204.744 219.638 203 220.892C201.256 222.147 199.512 223.483 198.177 225.256C197.85 225.692 197.087 226.483 197.032 226.483C194.035 226.292 192.236 229.701 190.465 232.019C189.566 231.528 191.555 229.046 189.566 229.946C188.53 230.792 188.149 231.528 188.067 232.046C187.631 234.583 183.407 237.773 182.617 240.637C182.481 241.264 180.9 240.173 179.02 241.7C176.976 243.309 175.45 244.673 175.042 246.746C175.45 246.5 175.886 246.173 176.268 245.982C177.031 245.627 177.93 245.137 177.957 245.873C177.957 246.064 177.494 246.8 177.194 247.073C176.295 247.836 175.587 248.164 175.341 247.536C175.26 247.291 175.069 247.155 174.933 246.936C170.764 249.418 168.965 253.563 167.603 257C164.687 263.926 165.096 263.899 159.836 266.517C159.264 266.817 158.692 267.008 158.201 267.772C156.866 269.79 155.504 271.89 154.169 273.908C152.942 276.008 151.934 278.189 151.362 280.398C151.035 281.653 151.198 282.853 150.272 284.08C144.822 290.843 144.413 300.443 139.563 307.86C138.882 308.924 138.391 310.533 138.228 312.142C138.091 313.778 138.228 315.415 138.609 316.505C138.963 317.542 139.781 317.869 139.345 320.078C136.565 320.787 136.565 320.842 136.892 325.805C136.92 326.269 137.11 326.596 137.219 326.978C136.811 327.141 136.402 327.168 135.993 327.523C134.631 328.75 133.977 330.523 134.74 332.95C135.312 331.805 135.939 331.559 136.538 331.423C136.729 331.286 136.947 331.123 137.138 331.068C137.192 331.068 137.247 331.396 137.274 331.586L137.383 332.132L137.247 331.668C137.029 331.505 136.811 331.477 136.565 331.559L134.767 333.195C133.35 336.932 132.505 340.804 133.977 344.077C134.222 341.949 134.603 339.822 135.012 337.75C135.285 336.441 135.748 335.595 136.238 336.55C136.62 337.286 136.729 338.513 136.238 339.631C135.557 341.268 134.685 342.686 134.031 344.268L133.813 347.922L133.895 348.549L133.759 348.031C131.906 348.522 132.505 351.658 132.859 353.567C133.486 357.603 134.413 352.176 135.285 353.676C135.012 354.794 134.821 356.076 134.467 356.84C133.731 358.367 133.186 359.921 132.968 361.667C132.805 363.412 132.914 365.375 134.113 367.639C134.276 367.939 134.358 368.893 134.304 369.357C134.113 370.912 134.086 372.357 134.222 373.693C134.413 375.03 134.712 376.284 135.094 377.457C135.802 379.829 136.974 381.929 138.146 384.056C139.045 385.856 141.688 388.338 138.882 389.265C137.982 389.565 139.263 391.692 139.944 392.456C141.879 394.719 143.023 395.783 143.677 397.147C144.386 398.51 144.468 400.201 145.176 403.392C145.694 405.628 145.176 407.401 147.056 410.319C149.018 413.427 150.435 413.046 152.288 414.709C152.915 417.109 151.662 418.254 154.332 421.363C157.602 425.1 160.381 429.272 164.142 432.708C165.068 433.581 166.022 434.345 167.003 435.054C168.039 435.708 169.047 436.335 170.055 436.99C172.044 438.326 174.061 439.581 175.914 441.435L177.167 441.053C176.35 440.044 175.505 439.035 174.497 437.808C177.194 439.226 177.303 440.153 177.249 441.081C181.881 442.09 184.497 445.28 187.876 447.735C188.53 449.835 190.083 450.435 192.154 449.862C192.618 450.053 193.054 450.162 193.462 450.216L194.961 450.489C195.097 451.171 193.926 450.298 193.544 450.353C193.353 450.98 193.353 451.771 195.179 452.589C203.109 455.834 211.365 457.416 219.486 459.68C221.148 460.198 223.982 460.552 224.99 459.625C226.053 458.671 227.497 459.27 229.241 459.734C231.149 460.198 232.021 461.534 234.555 461.289C236.844 461.043 235.808 459.625 236.98 458.998C238.642 459.598 239.841 460.034 241.04 460.47C239.95 460.579 238.342 460.498 238.315 461.098C238.261 461.888 239.95 461.616 240.986 461.752C242.702 462.379 244.419 462.57 245.455 461.698C245.918 461.289 245.591 460.716 245.673 460.225C245.727 459.707 245.863 459.134 247.253 459.025C250.278 458.834 247.253 460.034 248.725 460.198C250.932 460.47 252.648 460.77 250.359 461.779C253.166 462.925 256.136 462.679 258.044 461.452C260.387 459.925 263.358 459.761 266.845 459.843C266.382 461.043 261.995 460.416 262.104 461.916C263.112 461.916 263.957 461.916 264.829 461.861C268.399 461.698 273.821 461.643 275.129 460.798C278.699 458.261 280.852 460.77 284.067 460.007C289.899 458.534 297.092 458.889 301.943 455.562L302.406 455.343L302.106 455.616C302.706 456.407 304.15 456.243 306.058 456.025C309.573 455.671 312.734 454.062 316.249 453.925C319.546 453.734 321.508 452.589 323.007 450.953C324.397 449.398 324.669 449.426 328.865 448.362C328.239 449.098 325.813 449.807 326.685 450.625C330.364 449.753 330.31 449.78 334.915 446.453C335.514 446.017 338.812 444.353 338.784 445.853C338.784 447.407 340.746 446.835 342.545 446.262C346.251 444.98 350.229 443.917 353.336 441.79C350.856 441.735 347.967 442.744 345.297 443.235C348.022 442.717 351.51 439.799 353.472 441.708C356.524 440.917 359.521 439.908 362.546 438.762C371.702 435.463 380.176 430.608 388.978 426.981C397.207 423.572 404.456 418.773 412.167 414.655C412.903 414.273 413.666 413.7 414.266 413.182C415.138 412.364 415.356 411.818 414.129 411.928C413.802 411.955 409.606 414.955 413.039 411.791C414.02 410.864 416.364 409.146 417.236 410.4C417.672 411.055 419.061 410.482 420.342 409.419C424.103 406.146 428.517 403.501 432.577 400.855C436.583 398.237 438.736 393.847 443.586 392.156C444.485 391.856 445.085 390.465 445.412 389.429C446.502 385.447 448.873 383.32 454.104 380.484C453.287 381.302 452.415 382.093 451.652 382.911C450.916 383.729 449.962 384.711 450.78 384.847C451.243 384.956 452.006 384.247 452.606 383.538C453.532 382.42 454.295 381.329 454.513 380.347C457.374 376.748 459.5 372.848 463.233 369.493C463.233 369.957 463.206 370.421 463.233 370.83C463.233 370.857 463.56 370.639 463.751 370.557V369.221C467.102 364.094 470.4 358.885 473.206 353.376C474.732 350.704 475.931 347.84 477.267 345.086C478.411 342.222 479.692 339.441 480.646 336.523C483.779 327.741 484.951 318.551 484.569 309.606C484.161 300.634 482.226 291.934 479.556 283.453C478.52 280.398 477.267 279.607 475.986 279.226C474.678 278.844 474.269 280.371 474.378 282.525C474.596 285.471 474.269 288.416 475.114 291.552C477.566 302.106 476.585 312.742 474.487 323.187C472.934 331.232 470.045 339.195 465.876 346.586C461.707 353.976 456.393 360.848 450.235 366.875C444.84 372.221 439.471 377.729 433.177 382.365C427.1 386.893 420.996 392.483 413.939 396.056C406.527 399.765 400.096 404.946 392.439 408.382C386.035 411.164 379.74 415.009 373.119 417.327C367.069 419.509 360.856 421.718 355.107 424.036C342.599 428.999 329.601 431.917 316.903 435.544C314.369 436.281 311.562 436.526 308.864 436.99C306.167 437.481 303.605 438.163 301.425 439.772C301.234 439.935 300.226 440.071 299.899 440.017C294.204 439.008 287.909 442.499 282.051 441.871C280.797 441.762 278.699 442.171 277.2 442.608C273.413 443.726 269.679 443.453 265.837 443.644C252.539 443.999 239.487 442.962 226.598 442.008C223.982 441.817 221.202 441.271 219.077 440.044C217.333 438.926 215.535 438.163 213.627 437.59C211.774 436.935 209.758 436.581 207.714 436.253C206.542 436.035 204.962 435.79 204.144 435.272C202.046 433.963 200.139 432.599 198.04 431.754C196.078 430.69 193.871 430.117 191.637 429.654C191.364 429.599 190.683 429.163 190.574 428.945C188.285 425.154 184.198 423.245 180.573 420.6C179.81 420.027 179.075 419.345 178.421 418.664C175.26 415.418 172.671 411.737 170.001 408.164C167.521 404.428 164.905 400.828 162.289 397.037C161.826 396.41 161.39 395.728 161.444 395.101C161.635 392.838 161.253 390.52 160.381 388.311C159.727 385.993 158.665 383.702 158.011 381.411C157.411 379.12 157.847 376.202 155.695 374.102C155.313 373.748 155.177 372.33 155.095 370.666C155.15 369.003 155.204 367.066 155.259 365.648C155.422 359.867 154.904 354.194 154.986 348.386C154.932 342.604 155.531 336.741 157.329 331.177C157.111 326.187 159.755 321.605 160.981 316.642C161.798 313.315 162.071 312.524 160.436 312.687C159.891 312.742 159.237 313.069 158.855 312.769C157.711 311.924 157.902 309.524 158.992 307.288C160.191 304.751 160.654 305.542 160.954 307.342C161.281 309.251 163.106 308.051 163.951 306.47C165.368 304.015 167.112 301.124 167.003 298.206C167.003 297.634 166.731 297.252 166.84 296.652C166.867 296.379 167.276 296.434 167.575 296.434C169.837 296.543 170.709 293.898 171.772 290.925C172.398 289.098 172.834 287.134 173.652 285.389C174.497 283.671 175.668 282.116 177.603 281.135C178.938 278.571 180.846 276.253 182.535 273.826C184.361 271.508 185.914 269.081 186.868 266.408C187.576 264.445 188.23 262.972 190.356 262.099C191.473 261.608 192.727 260.136 193.789 258.908C198.122 253.836 202.455 248.736 207.741 244.509C208.831 243.691 208.94 242.6 208.831 241.837L208.422 241.891L208.886 241.728C210.275 241.182 211.583 240.391 212.864 239.437C214.172 238.537 215.453 237.501 216.734 236.464C218.341 235.128 219.758 233.737 218.341 233.219C216.924 232.728 216.706 231.692 218.368 229.619C219.894 227.737 221.093 225.747 222.728 223.892C223.491 223.047 224.009 223.619 224.391 223.51C227.334 222.829 226.87 223.947 225.344 225.856C224.091 227.356 221.802 229.183 222.129 230.574C224.609 229.483 225.399 226.51 228.315 226.156L229.732 225.474C229.268 226.374 228.778 225.965 228.287 226.183C227.524 227.247 227.306 228.119 229.05 227.356C234.473 224.819 241.776 219.583 244.119 215.874C245.128 214.238 243.275 214.92 241.64 215.738L241.258 216.093L241.476 215.738C242.185 214.156 245.073 212.302 244.773 210.829C244.474 209.493 246.872 209.084 248.071 208.838C250.85 208.238 248.425 209.52 247.853 210.12C247.09 210.938 247.171 211.566 248.261 211.293C252.185 210.311 250.223 211.92 248.997 213.202C248.071 214.156 246.463 215.274 247.825 215.684C249.133 216.065 250.305 214.784 251.667 214.156C255.346 212.384 256.872 209.875 260.796 208.348C265.047 206.929 261.695 209.111 262.159 209.493C262.05 209.629 261.886 209.793 261.832 209.929C261.832 209.984 262.186 210.011 262.268 209.957C262.486 209.848 262.622 209.684 262.813 209.548C264.584 208.866 266.273 208.211 267.281 207.011C268.344 205.757 269.897 205.757 271.342 205.675L271.532 206.657C271.941 206.52 272.595 206.411 272.704 206.275C273.304 205.62 272.65 205.43 271.832 205.348C271.505 204.039 270.524 203.248 275.32 201.53C279.162 200.221 283.577 197.848 285.348 195.066C287.037 195.366 288.345 195.585 289.681 195.803C289.544 195.939 289.354 196.076 289.299 196.212C289.299 196.266 289.653 196.348 289.735 196.294C289.98 196.212 290.144 196.076 290.362 195.939C290.852 195.83 291.261 195.666 291.643 195.448L292.133 195.203L291.752 195.476L293.196 196.485C290.335 197.466 287.664 198.939 289.544 199.866C291.806 200.984 293.986 198.803 296.057 197.985C296.656 197.712 296.929 197.248 297.365 196.894C297.474 196.785 297.692 196.621 297.637 196.539C297.474 196.376 297.201 196.239 296.956 196.076C301.18 194.63 305.54 193.539 310.063 194.167C309.9 194.276 309.709 194.357 309.6 194.467C309.6 194.467 309.9 194.576 309.927 194.576C310.118 194.494 310.281 194.385 310.472 194.303C312.87 193.212 316.521 192.53 316.794 190.703L316.44 190.512L316.903 190.649C319.492 190.594 321.236 189.503 323.715 189.367C323.715 190.185 323.525 190.921 323.77 191.63C324.015 192.312 325.269 192.803 326.74 192.421C329.192 191.848 332.054 191.739 334.779 191.494C337.531 191.358 340.174 191.139 342.327 190.185C342.817 190.485 343.226 190.512 343.389 190.267C343.444 190.185 343.117 190.049 342.981 189.939C344.507 190.403 347.531 187.321 347.995 190.73C348.104 191.712 349.984 192.039 351.728 191.794C353.663 191.548 356.66 191.167 356.006 190.212C354.126 187.54 358.54 189.176 360.257 189.067L360.72 189.012L360.393 189.149C359.766 189.994 358.867 190.867 358.567 191.821C358.377 192.476 359.712 193.157 361.156 193.403C362.846 193.676 362.355 192.939 362.219 192.476C362.001 191.603 363.2 191.603 364.644 191.603C367.478 191.548 370.203 191.658 373.282 191.739C373.582 193.921 373.609 195.53 379.986 196.239C383.392 196.512 387.125 199.294 390.558 197.957C392.112 197.439 396.444 200.248 398.488 199.239L399.442 200.603L400.941 200.248C401.922 200.657 402.848 201.121 403.284 201.775L402.63 202.048L403.775 202.321C406.227 204.666 408.461 206.193 413.039 207.666C415.056 208.402 417.372 209.302 419.634 210.529C421.841 211.811 424.103 213.256 425.901 215.002L426.582 215.465L426.419 215.084C427.1 213.856 427.509 213.829 428.899 215.165C430.534 216.747 432.005 217.211 433.667 217.893C435.983 218.847 438.49 220.02 440.752 221.765L442.06 222.338C442.006 223.02 441.161 221.929 440.807 221.901C439.935 222.12 439.063 222.31 438.163 222.529C442.769 226.674 443.668 227.574 444.404 227.247C446.502 226.319 446.502 231.146 449.009 230.519C450.862 230.083 450.235 233.628 452.224 234.473C456.911 236.492 459.99 241.482 463.397 245.464C464.16 246.282 464.923 247.127 465.604 247.018C467.375 246.718 467.348 247.045 468.819 248.382C471.462 250.645 472.716 253.972 474.705 256.781C473.479 250.454 469.582 245.137 464.35 241.182L464.459 241.128ZM436.12 394.774C436.61 394.365 436.937 394.447 436.801 394.91C436.692 395.238 436.474 395.592 436.31 395.947C436.065 395.892 435.656 395.947 435.629 395.728C435.602 395.51 435.82 394.992 436.092 394.774H436.12ZM430.261 400.664C430.452 400.501 430.724 400.283 430.942 400.201C431.542 399.955 431.487 400.146 430.779 400.692C430.588 400.855 430.316 400.937 430.07 401.046C430.125 400.91 430.152 400.774 430.261 400.664ZM422.849 405.682C422.958 405.546 423.312 405.382 423.53 405.219L424.048 405.137C423.857 405.328 423.694 405.546 423.476 405.682C422.767 406.146 422.495 406.146 422.849 405.682ZM401.24 418.854C402.058 417.764 403.229 417.218 404.619 416.973L406.145 416.536C405.491 417.382 405.055 416.945 404.51 417.136L401.404 418.827L400.995 419.182L401.24 418.827V418.854ZM390.395 424.145C391.866 423.491 393.311 422.727 395.191 421.8C393.747 423.872 391.975 424.091 390.231 424.309L389.114 424.227C390.095 423.545 389.823 424.336 390.395 424.145ZM379.386 429.463C379.686 429.354 380.04 429.381 380.367 429.354C379.877 429.599 379.386 429.899 378.896 430.09C378.569 430.227 378.214 430.199 377.778 430.254C378.405 429.927 378.896 429.627 379.386 429.436V429.463ZM370.803 433.145L371.266 433.09L370.775 433.335V433.145H370.803ZM363.091 436.308C363.527 436.308 364.235 436.417 364.208 436.444C362.791 437.808 360.557 438.135 358.649 438.708C360.502 438.108 360.611 436.226 363.091 436.308ZM315.704 451.634C316.14 451.498 316.739 451.498 317.175 451.498C317.775 451.525 317.829 451.798 317.284 452.044C316.549 452.371 315.704 452.562 315.159 452.234C315.322 452.044 315.431 451.716 315.731 451.607L315.704 451.634ZM310.417 452.371C310.908 452.071 311.48 452.044 311.453 452.371C311.453 452.589 311.044 452.889 310.69 453.107C310.2 453.407 309.764 453.407 309.627 453.134C309.9 452.889 310.063 452.616 310.445 452.398L310.417 452.371ZM295.076 456.407V456.571H294.558L295.076 456.407ZM285.457 454.88C286.193 454.771 286.356 454.88 285.866 455.18C285.702 455.262 285.43 455.343 285.212 455.425C285.13 455.343 285.048 455.262 284.939 455.152C285.103 455.071 285.239 454.907 285.43 454.88H285.457ZM282.023 457.852C282.269 457.852 282.568 457.88 282.677 457.961C283.059 458.18 282.814 458.343 282.051 458.343C281.887 458.343 281.778 458.207 281.642 458.125C281.778 458.043 281.914 457.88 282.023 457.852ZM215.398 455.562C216.87 456.462 218.396 457.28 219.922 458.152C217.279 457.607 214.227 457.634 213.927 456.134C213.872 455.862 214.881 455.752 215.398 455.589V455.562ZM191.037 448.935C190.438 448.662 189.838 448.416 189.266 448.089C189.974 448.089 190.574 448.362 191.037 448.935ZM193.381 435.081C193.599 435.135 193.817 435.163 194.007 435.244C194.089 435.299 194.225 435.544 194.171 435.599C193.926 435.817 193.544 435.681 193.163 435.299C193.108 435.244 193.299 435.163 193.353 435.081H193.381ZM171.69 414.655L172.071 414.873L171.717 414.818L171.336 414.573L171.69 414.682V414.655ZM165.232 417.982L165.068 418.036L164.85 417.6L165.205 417.982H165.232ZM159.618 395.783L159.455 395.974L159.319 395.647L159.618 395.756V395.783ZM148.8 380.92V381.411L148.637 380.92H148.8ZM148.392 354.685C148.392 355.121 148.201 355.94 148.119 355.94C147.52 355.885 147.438 354.822 147.383 353.758C147.465 353.294 147.601 352.449 147.656 352.476C148.228 352.64 148.419 353.594 148.392 354.685ZM141.061 315.469L141.334 317.487L141.525 319.369C141.634 320.787 141.334 322.069 140.544 323.214L140.299 323.46L140.516 323.023C140.789 321.851 141.034 320.678 141.388 319.533L141.225 317.624L140.98 315.578V315.06L141.061 315.469ZM144.032 305.542C143.977 305.788 143.868 306.142 143.759 306.333C143.432 306.906 143.35 306.688 143.623 305.842C143.705 305.597 143.868 305.379 143.977 305.161C143.977 305.297 144.059 305.433 144.004 305.57L144.032 305.542ZM146.947 297.361C146.539 298.07 146.103 298.834 145.667 299.325C145.449 299.57 145.421 298.943 145.748 298.234C146.075 297.497 146.511 296.816 146.947 295.97C146.947 296.597 147.084 297.116 146.947 297.361ZM152.37 283.153C152.779 282.416 153.324 281.789 153.814 281.107L154.114 279.689C154.85 279.498 153.842 280.698 153.978 280.998C153.733 281.735 153.515 282.498 153.188 283.234C152.915 283.889 152.452 284.953 152.07 284.489C151.961 284.38 152.179 283.534 152.397 283.125L152.37 283.153ZM162.153 291.17L162.343 290.843L162.425 291.143H162.153V291.17ZM167.848 287.162C167.603 287.625 167.412 288.116 167.194 288.58L167.712 289.78C168.011 290.407 167.902 291.143 167.058 292.098C166.758 292.425 166.376 292.725 166.131 292.752C165.395 292.834 165.532 291.989 165.995 290.87C166.295 290.134 166.649 289.398 166.976 288.689C167.167 288.007 167.248 287.325 167.548 286.643C167.848 285.962 168.529 284.925 168.774 285.307C169.02 285.689 168.175 286.507 167.821 287.162H167.848ZM170.328 269.681C170.328 269.681 170.546 269.708 170.655 269.735C170.546 269.926 170.437 270.172 170.328 270.308C170.164 270.444 169.919 270.608 169.864 270.553C169.646 270.362 169.81 270.008 170.328 269.681ZM174.851 276.635C174.796 276.417 175.042 275.871 175.26 275.517C175.396 275.271 175.723 275.08 175.995 274.835C175.805 275.326 175.696 275.708 175.505 276.117C175.26 276.689 174.905 276.962 174.851 276.635ZM178.312 276.062C178.257 276.662 178.039 277.344 177.876 277.998L177.767 278.489L177.821 278.026C177.685 277.617 177.467 277.235 177.412 276.744C177.385 276.444 177.521 275.68 177.658 275.544C178.53 274.671 178.366 275.544 178.312 276.062ZM174.415 271.971C174.306 272.381 174.061 272.844 173.87 273.253C173.488 273.771 173.189 273.88 173.27 273.39C173.325 273.062 173.625 272.517 173.897 272.135C174.306 271.508 174.578 271.453 174.442 271.971H174.415ZM187.413 261.09C187.495 259.208 187.331 258.145 188.53 255.8C188.939 257.19 189.13 258.036 187.413 261.09ZM188.067 253.045C187.931 253.236 187.794 253.454 187.631 253.591C187.549 253.645 187.331 253.591 187.358 253.509C187.386 253.072 187.658 252.718 188.04 252.636C188.121 252.636 188.04 252.909 188.067 253.045ZM191.746 254.218V253.836L192.073 253.891L191.746 254.218ZM192.209 250.345C191.909 250.891 191.5 251.218 191.364 250.945C191.31 250.782 191.555 250.264 191.827 249.936C192.045 249.664 192.427 249.445 192.808 249.173C192.59 249.609 192.4 249.964 192.209 250.373V250.345ZM205.398 244.155C205.152 244.7 204.825 244.918 204.662 244.646C204.607 244.564 204.771 244.318 204.853 244.127C205.016 244.018 205.289 243.773 205.343 243.8C205.425 243.827 205.479 243.991 205.425 244.127L205.398 244.155ZM200.956 239.955C200.139 240.637 199.866 240.391 199.921 239.873C199.948 239.6 200.384 239.137 200.629 238.755L201.392 238.946C201.256 239.3 201.174 239.764 200.956 239.955ZM212.319 236.764C212.701 236.928 212.673 237.419 212.101 238.101C211.229 238.782 211.038 238.373 210.657 238.264C209.649 237.937 207.796 238.237 209.567 235.837C209.894 235.373 210.875 234.719 211.365 234.583C213.545 233.955 211.474 236.41 212.319 236.792V236.764ZM212.101 217.511C211.447 217.92 211.175 217.865 211.393 217.402C211.42 217.32 211.801 217.129 211.992 216.993C212.156 216.993 212.401 216.938 212.483 217.02C212.51 217.074 212.265 217.402 212.101 217.511ZM217.306 211.62L216.979 212.056L217.251 211.647L217.578 211.211L217.306 211.647V211.62ZM235.835 220.156C234.909 220.538 233.955 220.701 234.119 219.938C234.2 219.556 234.636 219.038 234.909 218.602C235.563 218.656 236.244 218.711 236.68 218.738C236.98 219.283 236.68 219.802 235.863 220.129L235.835 220.156ZM255.837 203.193L256.191 203.384C256.191 203.384 256.273 203.657 256.164 203.739C255.809 204.011 255.537 203.957 255.564 203.602C255.564 203.493 255.755 203.33 255.837 203.193ZM259.543 205.73C258.371 206.793 257.117 207.802 254.801 209.029C255.619 207.366 257.962 206.684 259.379 205.73L259.761 205.43L259.543 205.73ZM266.328 204.639L264.883 204.993C265.238 204.775 265.565 204.502 265.946 204.366C266.409 204.202 266.9 204.121 267.39 204.011L266.328 204.639ZM266.246 202.102C264.611 202.648 264.039 202.157 263.875 201.475C263.685 200.657 264.311 199.839 265.728 199.021C267.963 198.503 268.807 199.075 269.053 199.757C269.352 200.63 268.017 201.475 266.246 202.102ZM271.015 186.367C269.816 186.558 270.333 186.012 270.47 185.685C270.551 185.44 270.96 185.14 271.26 184.867C271.26 185.112 271.287 185.331 271.26 185.576C271.233 185.822 271.096 186.094 271.015 186.367ZM277.909 185.14C277.664 185.222 277.391 185.194 277.119 185.222C277.228 185.112 277.309 185.031 277.391 184.922C277.691 184.84 278.018 184.703 278.236 184.703C278.89 184.703 278.781 184.867 277.909 185.112V185.14ZM284.912 188.358L284.585 188.221H285.075L286.71 188.194C285.893 188.794 285.539 188.276 284.939 188.358H284.912ZM296.656 196.621H294.449L296.956 196.048C296.956 196.239 296.874 196.43 296.684 196.621H296.656ZM326.631 178.731C326.141 178.84 325.923 178.731 326.113 178.376C326.168 178.267 326.413 178.186 326.549 178.104L326.794 178.431C326.794 178.431 326.767 178.704 326.604 178.758L326.631 178.731ZM328.756 189.176L328.811 189.012L329.301 189.121L328.756 189.176ZM332.871 180.122L332.353 180.013L332.926 179.958L332.871 180.122ZM334.206 189.258L333.77 189.121H334.315L334.234 189.258H334.206ZM340.692 187.785C340.528 187.703 340.229 187.621 340.229 187.54C340.229 187.431 340.392 187.294 340.583 187.267C341.291 187.185 341.618 187.321 341.346 187.621C341.264 187.703 340.91 187.73 340.665 187.785H340.692ZM351.619 181.104L351.428 180.858L351.891 180.913L351.619 181.104ZM399.878 199.294H400.205L400.314 199.539L399.878 199.294ZM441.324 219.447L441.379 219.147L441.733 219.474H441.352L441.324 219.447ZM450.344 228.037C449.145 227.165 449.336 226.51 448.9 225.747L448.818 225.392L449.063 225.801C449.526 226.456 450.017 227.11 450.48 227.765C450.562 227.874 450.371 228.065 450.344 228.037ZM457.347 235.728C456.775 235.101 456.775 234.855 457.347 235.073C457.511 235.128 457.756 235.401 457.974 235.564L457.919 236.001C457.729 235.919 457.483 235.892 457.374 235.728H457.347Z" fill="#FFF6E1"/>
<path d="M213.055 212.356C214.172 211.184 215.48 210.038 214.962 209.302C214.118 209.275 213.164 209.738 212.21 210.529C210.766 211.811 209.976 213.011 210.63 213.556C211.066 213.938 212.183 213.284 213.055 212.356Z" fill="#FFF6E1"/>
<path d="M478.275 264.581C478.765 266.135 478.983 266.926 479.283 267.69C479.774 268.862 480.4 271.262 480.973 269.899C481.49 268.699 480.291 266.544 478.275 264.581Z" fill="#FFF6E1"/>
<path d="M278.454 202.593C277.364 202.921 276.465 203.493 276.465 204.039C276.492 204.775 277.718 204.366 278.726 204.093C279.762 203.821 280.797 203.411 280.716 202.784C280.607 202.13 279.544 202.321 278.454 202.593Z" fill="#FFF6E1"/>
<path d="M201.447 220.265C202.428 219.502 203.163 218.683 202.809 218.22C202.564 217.92 201.883 218.192 201.092 218.765C200.166 219.529 199.294 220.32 199.73 220.783C200.002 221.056 200.629 220.892 201.419 220.265H201.447Z" fill="#FFF6E1"/>
<path d="M284.994 201.584C285.103 201.83 285.702 201.802 286.165 201.502C286.492 201.312 286.574 201.039 286.792 200.821C286.356 200.821 285.92 200.848 285.484 200.903C285.321 201.148 284.939 201.421 285.021 201.584H284.994Z" fill="#FFF6E1"/>
<path d="M227.143 202.293C227.742 201.993 227.96 201.666 227.77 201.421C227.334 201.53 226.789 201.584 226.489 201.802C225.917 202.184 225.944 202.484 226.462 202.484C226.652 202.484 226.925 202.402 227.17 202.293H227.143Z" fill="#FFF6E1"/>
<path d="M483.561 276.171C483.479 275.544 483.207 275.162 482.88 275.053C482.798 275.162 482.662 275.217 482.689 275.38C482.771 275.98 483.044 276.389 483.371 276.471C483.48 276.471 483.588 276.335 483.561 276.171Z" fill="#FFF6E1"/>
<path d="M476.149 259.918C476.149 259.918 476.013 260.081 476.013 260.245C476.013 260.327 476.231 260.572 476.34 260.736C476.395 260.627 476.476 260.572 476.476 260.408C476.476 260.327 476.258 260.081 476.149 259.918Z" fill="#FFF6E1"/>
<path d="M179.402 443.889C179.156 444.108 179.402 444.38 180.137 444.571C180.219 444.571 180.137 444.353 180.137 444.244L179.402 443.889Z" fill="#FFF6E1"/>
<path d="M470.563 254.818C470.563 254.818 470.427 254.981 470.427 255.145C470.427 255.227 470.645 255.445 470.781 255.609C470.836 255.5 470.917 255.445 470.917 255.281C470.917 255.2 470.699 254.981 470.563 254.818Z" fill="#FFF6E1"/>
<path d="M259.161 186.912C259.161 186.912 258.916 186.776 258.752 186.803C258.562 186.831 258.207 186.994 258.098 187.076C257.771 187.403 257.989 187.485 258.643 187.267C258.834 187.212 258.97 187.021 259.161 186.912Z" fill="#FFF6E1"/>
<path d="M233.519 198.284C233.519 198.284 233.519 198.121 233.492 198.039C233.274 198.121 233.001 198.148 232.865 198.257C232.238 198.694 232.266 198.857 232.974 198.666C233.138 198.612 233.41 198.421 233.546 198.284H233.519Z" fill="#FFF6E1"/>
<path d="M297.937 199.103H298.509L298.7 198.775C298.509 198.775 298.21 198.748 298.155 198.775C298.019 198.857 298.019 198.994 297.964 199.103H297.937Z" fill="#FFF6E1"/>
<path d="M261.046 363.027C275.84 357.912 281.039 334.089 272.66 309.817C264.281 285.545 245.495 270.015 230.702 275.13C215.909 280.246 210.709 304.069 219.088 328.341C227.467 352.613 246.253 368.142 261.046 363.027Z" fill="#020202"/>
<path d="M371.806 324.725C386.6 319.61 391.799 295.787 383.42 271.515C375.041 247.243 356.256 231.713 341.462 236.828C326.669 241.943 321.469 265.766 329.848 290.039C338.228 314.311 357.013 329.84 371.806 324.725Z" fill="#020202"/>
</g>
<defs>
<clipPath id="clip0_2_4152">
<rect width="556" height="507" fill="white" transform="translate(0.399292 0.731461)"/>
</clipPath>
</defs>
</svg>
