<svg width="1833" height="1833" viewBox="0 0 1833 1833" fill="none" xmlns="http://www.w3.org/2000/svg">
<circle cx="916.31" cy="916.26" r="916.21" fill="#FFF6E1"/>
<path d="M643.597 1102.59C631.645 1077.17 604.587 1082.84 585.067 1095.47C580.101 1098.68 573.216 1102.6 569.498 1107.39C565.963 1111.93 568.244 1120.15 568.607 1125.42C570.11 1146.57 571.595 1167.72 573.098 1188.87C573.181 1189.96 573.478 1190.89 573.959 1191.68C575.527 1194.41 579.008 1195.37 581.753 1194.53C582.014 1194.43 582.263 1194.33 582.531 1194.23C618.226 1180.2 663.924 1145.83 643.603 1102.58L643.597 1102.59ZM599.187 1172.06C594.797 1174.69 589.612 1177.49 584.842 1179.77C583.309 1157.97 581.753 1136.19 580.22 1114.4C579.513 1115.03 578.848 1115.63 578.224 1116.2C578.836 1114.73 579.43 1113.27 580.042 1111.82C580.107 1112.68 580.155 1113.54 580.226 1114.41C592.706 1103.45 618.083 1086.49 630.201 1103.91C649.454 1131.61 621.487 1158.71 599.199 1172.06L599.187 1172.06Z" fill="black"/>
<path d="M580.194 1114.39C579.487 1115.03 578.821 1115.62 578.197 1116.2C578.809 1114.73 579.404 1113.27 580.016 1111.82C580.081 1112.68 580.129 1113.54 580.2 1114.4L580.194 1114.39Z" fill="black"/>
<path d="M581.754 1194.53C581.487 1194.64 581.207 1194.74 580.946 1194.85C577.511 1196.16 574.967 1194.32 573.957 1191.68C575.526 1194.42 579.009 1195.38 581.754 1194.53Z" fill="black"/>
<path d="M747.44 1117.57C722.907 1121.54 698.356 1125.49 673.823 1129.45C670.692 1129.95 666.991 1127.99 666.54 1124.57C662.964 1098.05 659.394 1071.53 655.835 1045.01C655.467 1042.27 656.578 1039.49 659.168 1038.23C680.802 1027.65 702.449 1017.06 724.083 1006.48C731.271 1002.97 736.712 1014.13 729.536 1017.63C709.227 1027.56 688.929 1037.49 668.619 1047.41C669.795 1056.11 670.959 1064.82 672.141 1073.52C691.02 1067.88 709.916 1062.22 728.806 1056.59C736.451 1054.3 738.785 1066.5 731.223 1068.78C712.096 1074.48 692.926 1080.2 673.799 1085.92C675.159 1096.02 676.519 1106.14 677.874 1116.24C700.245 1112.64 722.622 1109.02 745.011 1105.41C752.882 1104.14 755.299 1116.33 747.429 1117.58L747.44 1117.57Z" fill="black"/>
<path d="M816.777 1000.24C800.97 990.236 773.514 980.137 759.37 997.839C739.482 1022.73 765.708 1046.18 785.442 1059.06C812.245 1076.55 843.657 1087.79 868.671 1107.95C892.426 1127.1 897.618 1162.86 880.166 1188.02C868.226 1205.22 847.114 1213.13 826.893 1214.77C810.611 1216.09 792.826 1208.72 780.571 1198.05C774.583 1192.83 765.786 1201.57 771.815 1206.83C797.513 1229.21 832.673 1232.35 863.141 1217.95C892.326 1204.16 907.497 1171.75 901.646 1140.32C895.711 1108.44 870.127 1092.2 843.823 1077.7C828.99 1069.52 813.843 1061.88 799.33 1053.12C788.109 1046.35 774.934 1038.57 767.865 1027.1C760.582 1015.28 767.93 999.941 782.371 1000.67C792.19 1001.17 802.295 1005.73 810.534 1010.95C817.294 1015.23 823.513 1004.49 816.783 1000.23L816.777 1000.24Z" fill="black"/>
<path d="M588.958 1256.34C577.113 1255.23 564.3 1258.01 553.518 1262.75C529.822 1273.18 517.235 1295.92 514.146 1320.95C506.756 1380.81 540.883 1474.23 616.17 1458.55C644.333 1452.68 665.332 1429.9 668.777 1401.37C669.734 1393.46 657.342 1393.53 656.398 1401.37C653.861 1422.34 638.25 1439.2 618.344 1445.19C595.801 1451.97 572.165 1444.41 555.995 1427.68C532.05 1402.9 523.953 1362.62 525.777 1329.24C526.995 1306.91 535.816 1285.19 556.666 1274.91C566.628 1270 578.004 1267.73 588.958 1268.76C596.888 1269.5 596.835 1257.09 588.958 1256.35V1256.34Z" fill="black"/>
<path d="M828.967 1263.86C827.167 1272.3 825.35 1280.74 823.538 1289.18C810.594 1349.61 797.65 1410.03 784.688 1470.47C783.417 1476.39 774.037 1476.36 772.754 1470.47C771.299 1463.8 769.85 1457.15 768.394 1450.48C759.745 1410.83 751.078 1371.14 742.423 1331.48C729.972 1370.57 717.557 1409.67 705.13 1448.76C702.707 1456.36 690.749 1453.08 693.178 1445.47C695.044 1439.61 696.909 1433.75 698.756 1427.91C711.7 1387.23 724.626 1346.57 737.57 1305.91C739.322 1300.38 748.138 1299.64 749.504 1305.91C750.959 1312.56 752.409 1319.23 753.864 1325.88C762.121 1363.78 770.408 1401.68 778.659 1439.56C791.454 1379.9 804.25 1320.23 817.027 1260.55C818.696 1252.74 830.631 1256.07 828.961 1263.86L828.967 1263.86Z" fill="black"/>
<path d="M699.825 1214.46C682.687 1199.7 660.085 1206.31 646.369 1222.22C628.756 1242.65 622.429 1272.42 627.021 1298.68C630.538 1318.91 644.224 1342.4 667.587 1341.44C695.703 1340.32 711.634 1309.09 716.719 1284.98C716.767 1284.78 716.82 1284.56 716.85 1284.34C716.886 1284.11 716.933 1283.86 716.963 1283.64C720.877 1260.45 718.929 1230.93 699.825 1214.46ZM662.283 1328.61C637.636 1323.33 635.836 1285.39 639.401 1266.31C642.87 1247.75 657.429 1213.49 682.028 1218.74C706.823 1224.06 708.243 1261.87 704.892 1281.05C701.126 1299.55 687.06 1333.91 662.283 1328.61Z" fill="black"/>
<path d="M620.186 523.889C610.604 535.465 605.816 541.252 603.671 543.301C556.922 587.941 513.231 570.566 486.393 605.857C470.948 626.162 469.077 653.862 475.367 673.779C476.942 678.763 482.692 694.649 499.039 705.551C501.505 707.195 518.88 718.413 540.194 714.787C564.335 710.678 585.387 688.903 585.387 688.903C590.377 684.366 598.153 678.179 608.81 672.957C619.413 667.765 633.985 660.62 649.602 663.984C667.88 667.914 678.174 684.205 681.145 688.903C708.856 732.745 674.985 797.63 670.042 807.425C666.442 814.564 663.122 820.007 659.611 824.782C650.665 836.947 640.264 849.189 624.48 861.955C599.353 882.283 593.644 878.663 578.586 891.548C552.365 913.984 534.164 955.338 544.156 990.772C545.73 996.357 551.557 1017.03 570.519 1028.52C576.275 1032.01 586.973 1036.91 604.949 1036.07C650.867 1033.92 658.512 998.292 709.319 980.531C755.083 964.531 777.971 983.264 803.467 958.958C822.47 940.839 825.41 915.503 825.79 911.769C828.487 885.403 816.238 864.313 812.413 857.686C770.225 784.596 771.187 624.417 829.36 515.524C834.891 505.169 843.302 490.855 855.48 474.736C857.678 469.032 862.02 455.456 858.682 438.676C854.725 418.813 842.512 407.1 838.235 403.087C823.8 389.511 807.435 386.093 800.574 384.754C762.075 377.227 727.71 399.89 716.65 407.404C686.23 428.072 686.33 443.958 620.186 523.883V523.889Z" fill="black"/>
<path d="M1028.53 705.229C1059.26 676.82 1109.69 729.82 1179.96 709.063C1242.15 690.694 1253.04 634.3 1289.4 640.802C1328.82 647.846 1346.47 719.555 1353.38 747.701C1357.07 762.754 1369.66 819.856 1349.35 889.26C1332.04 948.387 1299.75 986.001 1287.21 999.541C1255.06 1034.26 1220.83 1053.01 1199.69 1062.6C1225.98 1092.16 1264.08 1141.91 1290.44 1212.01C1310.96 1266.61 1359.33 1395.26 1297.72 1454.43C1254.57 1495.86 1164.19 1496.79 1124.27 1454.43C1106.77 1435.85 1103.23 1413.49 1099.99 1391.04C1086.9 1300.43 1143 1265.81 1132.27 1180.73C1126.99 1138.86 1106.26 1090.64 1084.93 1090.13C1062.45 1089.6 1033.9 1141.91 1031.12 1193.67C1026.44 1281.21 1098.26 1314.99 1081.69 1392.12C1079.79 1400.97 1072.15 1431.69 1046.09 1454.42C998.483 1495.95 910.163 1494.36 872.662 1454.42C819.526 1397.83 856.581 1251.68 929.445 1167.25C961.172 1130.48 1000.44 1104.55 992.388 1082.58C984.386 1060.76 940.517 1072.82 882.641 1035.12C865.676 1024.07 827.973 999.661 829.921 968.257C830.789 954.312 839.259 938.39 852.518 933.204C867.791 927.226 883.479 937.812 900.937 947.226C939.151 967.834 983.157 981.404 1014.99 983.357C1028.03 984.155 1083.95 987.335 1112.9 948.846C1126.67 930.548 1136.55 899.871 1126.17 872.999C1107.89 825.697 1044.85 836.892 1021.44 787.065C1009.38 761.39 1009.43 722.877 1028.53 705.229Z" fill="black"/>
<path d="M1273.13 456.982C1272.72 456.089 1272.27 455.231 1271.78 454.386C1262.53 438.75 1222.1 375.556 1139.73 353.751C1068.13 334.792 1009.64 358.973 991.538 367.464C991.538 367.464 990.148 368.202 988.598 369.066C950.782 390.073 862.474 462.96 825.638 581.708C818.724 604.001 760.259 792.481 866.525 896.641C933.068 961.859 1053.3 983.331 1091.41 941.942C1106.25 925.812 1111.92 896.57 1102.16 876.152C1088.22 846.952 1052.68 858.831 1020.39 828.696C982.354 793.196 973.901 723.16 1000.3 691.805C1011.04 679.05 1026.4 674.055 1028.27 673.471C1050.71 666.457 1069.9 675.704 1084.84 680.36C1137.94 696.913 1191.81 672.78 1200.02 668.517C1209.39 663.652 1262.96 634.696 1281.74 569.275C1297.22 515.382 1279.34 470.671 1273.13 457V456.982ZM1093.61 556.485C1067.76 556.485 1046.81 535.478 1046.81 509.571C1046.81 483.663 1067.76 462.656 1093.61 462.656C1119.46 462.656 1140.41 483.663 1140.41 509.571C1140.41 535.478 1119.46 556.485 1093.61 556.485Z" fill="black"/>
</svg>
