<svg width="1419" height="783" viewBox="0 0 1419 783" fill="none" xmlns="http://www.w3.org/2000/svg">
<g clip-path="url(#clip0_2_4134)">
<path d="M1415.07 192.739L1312.82 485.752L23.2723 759.944L187.409 24.1132L1415.07 192.739Z" fill="#458F64"/>
<path d="M1271.37 163.712L1269.38 163.768L1271.03 163.572C1268.01 161 1261.85 158.93 1252.2 157.56C1221.29 153.225 1191.76 147.213 1161.62 141.956C1160.16 142.04 1158.82 142.151 1157.25 142.179C1156.78 142.179 1155.8 141.9 1155.04 141.732L1161.53 141.928C1154.82 138.712 1147.26 138.824 1138.67 138.376C1119.19 137.342 1097.35 135.188 1081.34 129.959C1067.57 125.485 1053.35 126.016 1040.87 122.828L1038.18 124.646L1039.44 125.261L1037.59 124.702C1030.74 123.08 1028.64 120.087 1016.18 119.976C1004.96 119.892 991.297 118.41 981.696 113.879C979.876 113.012 971.787 111.502 970.136 111.67C954.265 113.208 936.295 103.812 921.068 105.965C914.854 102.078 904.134 104.092 902.93 103.476C892.518 98.303 887.732 101.267 880.622 101.239C876.423 101.239 870.21 99.6733 869.286 98.8344C863.408 93.5491 846.921 93.1576 836.957 92.0949C824.949 90.8365 815.012 91.5356 802.584 87.1172C797.49 85.2995 784.978 84.0132 784.894 87.313C786.602 87.7884 788.393 88.096 790.353 88.2079C792.704 87.9841 794.943 88.2638 797.014 89.1586L798.582 89.8298L796.678 89.2146L793.739 88.7392L790.772 88.4036C788.393 88.5994 786.21 88.2917 784.167 87.4249C776.973 85.3555 771.907 81.6082 764.349 81.1608C739.13 79.6787 714.022 73.7502 689.307 71.9605C686.144 71.7367 685.976 72.7714 686.676 73.6663L687.683 74.3095L686.2 73.6943C673.511 69.5555 662.65 68.0734 653.619 69.2479H651.827L653.003 69.0242C648.748 64.8854 648.609 64.8575 634.193 66.5353H632.15L633.69 66.3396C627.896 63.4872 624.005 60.1874 615.944 57.9223C595.539 52.1336 607.183 59.8798 599.373 59.4603C590.444 58.957 581.711 59.3764 571.607 56.7757C566.764 55.5173 561.726 54.5106 556.156 54.0072H550.698C549.55 52.609 554.336 54.0072 555.764 53.8115C545.352 50.5396 534.939 47.2958 525.31 44.2756C519.32 44.1637 517.613 44.8349 518.341 46.0094C519.404 47.7152 517.025 48.2466 510.447 47.4915C502.162 40.9478 502.806 41.4791 480.134 40.5563C463.899 39.8852 448.448 39.6335 432.858 39.3259C427.679 39.242 421.857 39.9411 415.727 37.3404C415.308 35.271 421.913 34.8236 424.264 33.4254C426.476 32.111 420.85 29.762 417.575 29.9298C407.946 30.4052 399.661 29.5103 390.004 26.7698C385.638 29.3705 370.607 26.7698 362.014 27.7765C349.81 29.2027 339.705 27.1893 328.537 21.9879C323.415 19.6109 319.58 17.933 310.567 17.8771C293.857 17.8212 275.523 16.1153 257.273 13.7943C249.632 12.8155 242.046 11.3613 234.377 10.1029C230.542 9.45976 226.707 8.90047 222.873 8.42507C220.941 8.20135 219.01 8.0056 217.079 7.86578L214.168 7.67003L209.213 7.27853C205.882 7.02684 199.081 6.32773 198.829 6.21587C191.411 2.91606 180.915 1.21022 170.754 0.175537C168.963 9.71144 167.563 19.8626 166.052 28.3917C164.932 28.8392 165.268 24.0293 165.38 20.4498C165.492 16.8983 165.408 14.5493 163.225 21.0091C161.042 29.9018 160.398 35.3829 160.426 38.2073C160.426 39.1301 160.426 40.1089 160.37 41.1436C160.342 41.6469 160.314 42.1782 160.258 42.7375C160.258 43.0452 160.258 43.3528 160.258 43.6883C160.258 44.9467 160.174 46.345 160.034 47.8271C159.726 50.7634 159.194 54.0632 158.606 57.4189C157.459 64.1304 156.227 71.0656 156.619 75.9594C156.787 78.0008 152.98 78.2245 150.265 86.4181C147.382 95.1431 145.311 102.022 146.039 108.874C146.682 107.336 147.298 105.574 147.942 104.315C149.202 101.771 150.629 98.5827 151.245 100.68C151.413 101.239 150.993 104.343 150.573 105.686C149.342 109.657 148.11 112.034 147.214 110.691C146.85 110.16 146.375 110.048 145.983 109.741C139.097 124.953 138.369 140.39 137.39 153.309C135.374 179.568 135.794 179.065 126.137 195.452C125.046 197.297 124.01 198.724 123.31 201.828C119.476 218.495 114.325 235.721 113.262 251.577C112.954 256.051 113.626 259.77 111.834 264.888C101.926 293.188 101.59 325.739 90.4775 354.57C87.3146 362.764 85.915 377.501 87.1466 384.772C87.7344 388.127 89.3579 388.966 87.9863 396.824C83.8997 399.285 81.5765 406.211 81.0167 417.602C80.9327 419.252 81.2126 420.287 81.3246 421.601C80.4009 422.3 79.5332 422.468 78.5535 423.81C75.1667 428.396 73.0674 434.521 73.7112 442.798C75.4186 438.771 76.7901 437.792 78.1337 437.205C78.6095 436.73 79.1413 436.031 79.5612 435.891C79.7011 435.835 79.6172 437.037 79.6452 437.653V439.526L79.5332 437.904C79.1693 437.401 78.6935 437.317 78.1337 437.68L73.6832 443.553C69.1767 456.696 65.314 469.644 66.4616 481.193C68.309 473.895 70.1004 466.512 72.0317 459.325C73.2633 454.739 74.7188 451.858 75.2227 455.074C75.6145 457.591 75.2227 461.954 73.6552 465.841C71.304 471.574 68.8968 476.495 66.5176 481.781L63.7185 494.393L63.4946 496.602V494.756C59.464 496.014 58.6803 506.865 57.8405 513.492C56.0771 527.558 61.9831 509.354 62.6549 514.863C61.2274 518.666 59.9118 522.944 58.6243 525.489C53.502 535.472 48.5197 544.952 48.5477 562.011C48.5477 563.129 47.8199 566.429 47.2601 567.883C39.7867 587.934 39.4228 603.65 38.3311 620.177C37.8833 627.028 39.2548 638.717 33.1249 637.823C31.1936 637.543 30.5778 645.904 30.7177 649.316C31.4455 669.115 31.4455 669.842 23.4682 691.011C20.6691 698.45 17.6461 702.7 15.4069 714.222C15.043 716.263 14.7351 718.053 14.4552 719.703C14.1193 721.772 13.8674 723.59 13.6995 725.212C13.3636 728.484 13.2796 730.972 13.3076 733.182C13.3356 737.6 13.7555 740.872 13.0837 746.689C8.71717 758.797 4.7705 763.495 0.739868 782.231C1.85949 781.98 3.28701 781.644 4.82648 781.281C18.9897 777.869 32.3692 775.1 46.1125 772.332C52.9702 770.962 59.8559 769.563 66.7695 768.165C70.9961 767.326 75.2227 766.459 79.4492 765.509C96.3275 761.705 110.491 755.357 128.461 753.344L130.812 750.659C126.305 750.911 121.799 751.163 116.341 751.498C126.641 748.422 129.132 749.317 131.064 750.548C145.479 743.724 159.922 743.556 174.365 741.879C180.299 743.836 185.757 742.41 190.852 738.439C192.531 738.047 194.042 737.572 195.358 737.041L200.368 735.167C202.02 736.006 196.925 736.398 195.89 737.069C196.422 738.355 197.877 739.53 204.651 738.075C233.845 731.755 262.535 724.093 292.289 719.06C298.419 718.025 308.3 715.676 310.819 712.935C313.506 710.027 319.104 709.608 325.542 708.685C332.54 707.678 336.738 709.412 345.303 706.476C353.057 703.791 348.382 702.085 352.049 699.736C358.375 699.428 362.909 699.205 367.416 698.981C363.637 700.156 357.955 701.442 358.235 702.644C358.599 704.238 364.365 702.197 368.004 701.554C374.385 701.302 380.515 700.1 383.65 697.583C385.106 696.408 383.622 695.513 383.538 694.507C383.454 693.444 383.622 692.186 388.605 690.843C399.381 687.991 389.136 692.829 394.511 691.99C402.544 690.731 408.73 689.976 401.06 693.808C411.585 693.808 421.941 691.347 428.379 687.376C436.216 682.538 447.105 680.329 459.645 678.119C458.217 680.86 442.234 682.538 443.102 685.53C446.657 684.831 449.764 684.272 452.843 683.601C465.607 680.776 485.144 677.7 489.762 675.099C502.554 667.912 510.447 671.911 522.091 668.667C543.308 662.767 569.227 660.334 587.645 651.581L589.437 650.938L588.233 651.609C590.22 653.035 595.455 652.196 602.452 651.05C615.188 649.008 627.364 644.786 640.099 643.416C652.051 642.129 659.721 639.249 665.963 635.334C671.785 631.67 672.792 631.614 688.607 628.51C685.892 630.244 676.795 632.23 679.51 633.768C693.337 631.195 693.002 631.195 711.699 623.281C714.134 622.246 727.122 618.191 726.058 621.407C724.939 624.763 732.468 623.225 739.242 621.743C753.489 618.639 768.38 615.842 781.144 611.2C772.355 611.172 761.186 613.717 751.194 615.004C761.382 613.633 776.133 606.95 781.647 611.005C793.18 609.215 804.684 606.782 816.412 604.377C851.736 597.162 886.332 587.375 921.124 580.999C953.481 575.042 984.299 566.485 1016.12 560.501C1019.15 559.941 1022.56 558.963 1025.25 558.04C1029.39 556.642 1030.88 555.635 1026.68 555.327C1025.56 555.243 1007.06 560.249 1023.21 554.656C1027.91 553.034 1038.35 550.378 1039.27 553.37C1039.75 554.908 1045.12 554.293 1051.03 552.531C1068.47 547.273 1087.22 543.806 1104.8 540.618C1122.01 537.486 1137.07 529.628 1155.21 529.656C1158.51 529.656 1163.1 527.251 1166.13 525.377C1177.49 518.302 1189.47 515.506 1210.83 514.555C1206.66 515.45 1202.46 516.261 1198.34 517.24C1194.42 518.162 1189.5 519.365 1191.62 520.344C1192.8 520.875 1196.52 520.204 1199.77 519.309C1204.84 517.911 1209.48 516.429 1212.28 514.667C1228.49 510.137 1243.74 504.572 1262.05 502.306C1260.9 503.145 1259.67 504.012 1258.69 504.851C1258.61 504.935 1260.01 504.851 1260.73 504.851L1263.98 502.306C1272.15 500.153 1280.35 497.972 1288.61 495.791C1292.84 494.7 1297.07 493.638 1301.32 492.547C1306.05 491.372 1310.78 490.226 1315.51 489.051C1320.69 472.72 1324.66 460.164 1329.17 446.377C1333.62 432.787 1338.16 419.252 1342.8 405.801C1365.39 340.252 1382.74 276.101 1404.35 211.112C1408.24 199.451 1407.82 194.529 1406.65 190.977C1405.44 187.286 1402.11 191.621 1398.36 199.143C1393.18 209.49 1387.47 219.725 1383.28 232.449C1369.34 274.759 1352.74 315.252 1338.41 358.038C1331.58 378.34 1324.69 398.754 1317.81 419.168C1314.31 429.375 1310.81 439.582 1307.31 449.789L1299.81 471.294C1290.12 473.223 1280.47 475.181 1270.78 477.11C1257.96 479.655 1245.14 482.088 1232.35 484.437C1202.32 489.946 1172.65 497.049 1142.36 502.782C1112.83 508.347 1081.76 516.932 1051.31 521.714C1019.23 526.747 988.637 535.976 956.644 541.737C929.941 546.518 902.371 553.873 875.78 558.543C851.26 562.822 826.208 567.716 802.836 572.917C752.173 584.243 701.595 592.66 651.464 604.013C631.394 608.572 608.302 609.606 590.696 618.275C589.884 618.695 586.05 619.394 584.762 619.422C563.153 619.534 538.214 629.992 515.766 631.782C510.951 632.174 502.722 634.383 496.984 636.117C482.289 640.563 467.846 642.577 452.899 645.513C401.312 655.608 349.418 665.2 298.447 678.595C288.175 681.307 276.866 683.852 267.07 684.3C250.723 685.055 234.601 688.718 217.974 693.863C213.216 695.346 206.946 697.387 202.971 697.807C182.482 699.988 163.561 703.707 145.983 710.894C144.891 711.341 141.56 712.012 140.609 711.957C123.03 711.174 103.829 717.494 84.9354 722.192C80.8767 723.198 76.6502 724.233 72.5636 724.988L58.8762 727.561L58.0085 727.729C58.0085 727.729 57.9525 727.729 57.9245 727.729H57.8126L57.6166 727.673L57.2807 727.589C56.8609 727.477 56.6649 727.393 56.385 727.421C56.497 727.001 56.385 726.862 56.1331 726.358L55.9092 725.883V725.799C55.9092 725.799 55.8252 725.855 55.9092 725.407L56.2171 723.478L56.8329 719.647C57.6446 714.529 58.3724 709.412 59.0161 704.294C59.436 701.05 59.9398 697.751 61.0874 695.541C69.2887 679.881 72.5076 657.538 76.5942 637.655C78.5815 627.923 83.6478 616.681 82.1923 605.831C81.6885 602.084 88.0983 582.928 91.3452 571.463C104.557 524.79 109.455 476.803 122.751 430.633C124.542 410.751 131.931 391.175 135.682 370.51C138.173 356.779 138.957 353.451 135.29 355.605C134.087 356.304 132.603 358.149 131.792 357.338C129.524 355.101 130.252 345.845 132.715 336.421C135.514 325.766 136.466 328.255 136.998 334.687C137.558 341.622 141.616 335.246 143.659 328.283C146.878 317.377 150.713 304.15 150.321 293.412C150.237 291.286 149.649 290.168 149.789 287.791C149.845 286.728 150.741 286.392 151.385 286.029C156.227 283.4 158.215 272.242 159.782 259.742C161.741 244.446 162.133 228.534 169.943 214.831C174.057 192.068 182.258 168.102 183.182 146.374C183.546 138.32 184.05 132.196 187.996 124.813C190.152 120.787 191.635 113.208 193.035 106.804C195.862 93.9126 198.381 80.993 201.04 68.0734C202.16 62.8161 203.279 57.5308 204.371 52.2455C204.567 51.4065 204.847 50.5676 205.183 50.0642L205.323 50.1202C205.994 50.4278 205.603 48.7779 205.603 47.4635L205.127 46.9602L205.658 47.3797C206.442 47.9949 207.058 48.4703 207.59 48.8338L207.982 49.0855L208.178 49.1973C208.178 49.1973 208.849 49.3372 209.185 49.4211C210.697 49.7007 212.236 50.0083 213.804 50.288C220.046 51.3786 226.539 52.2455 233.089 53.0844C241.374 54.1471 249.268 54.7623 246.329 51.7421C243.39 48.722 245.489 47.128 255.678 47.0161C264.942 46.9322 273.284 46.345 282.688 46.345C287.027 46.345 287.195 47.9389 288.594 48.4143C299.091 52.0497 295.2 52.8887 285.879 53.1963C278.462 53.448 267.014 51.9938 264.495 54.4826C274.851 57.1672 284.48 54.2589 294.332 58.3138L300.406 59.6281C296.824 60.1594 296.208 58.7892 294.165 58.3417C289.21 58.6494 286.411 59.5442 293.773 61.1941C316.949 66.4515 353.057 69.2479 368.283 66.787C375.001 65.6964 367.416 64.1024 360.334 62.9839H358.375L359.774 62.7601C365.4 61.3619 378.612 62.6762 380.487 59.7679C382.139 57.2232 390.704 59.7679 395.182 60.9984C405.567 63.8228 395.07 62.5644 392.047 62.7601C387.961 63.0118 386.981 64.1584 391.208 65.1931C406.267 68.9123 396.722 68.8564 390.032 69.2199C385.05 69.4996 377.296 69.0801 381.187 71.5969C384.91 74.0019 391.46 73.5824 397.338 74.4213C413.46 76.7144 423.369 74.1976 439.799 76.8263C457.293 79.6227 441.675 79.2592 442.654 80.4337C441.983 80.5456 441.143 80.6015 440.779 80.7973C440.667 80.8532 441.899 81.3566 442.234 81.3566C443.186 81.4125 443.998 81.3286 444.866 81.3006C452.311 82.2794 459.505 83.2022 465.131 82.3633C470.869 81.5243 476.467 83.398 481.897 84.8242L481.085 86.7537C482.765 86.9774 485.312 87.5087 485.956 87.4249C489.119 86.9215 487.047 85.8588 484.164 84.7962C484.892 82.1116 482.597 79.5948 502.358 81.9718C518.145 83.8734 537.318 84.0691 546.947 80.6574C552.769 82.7827 557.359 84.4606 561.922 86.1385C561.25 86.2503 560.41 86.3342 560.047 86.502C559.935 86.558 561.194 87.0613 561.558 87.0893C562.538 87.1452 563.349 87.0893 564.245 87.0333C566.148 87.285 567.912 87.3689 569.479 87.313H571.551L569.899 87.4808L574.238 90.7526C562.65 89.8578 550.894 90.0535 556.884 93.577C564.133 97.8277 574.854 96.01 583.475 96.1498C586.05 96.1777 587.505 95.5346 589.465 95.171C589.968 95.0312 591.004 94.9193 590.864 94.7515C590.472 94.2762 589.521 93.7728 588.765 93.2694C606.007 94.3321 623.249 95.5346 639.987 100.316C639.288 100.4 638.532 100.456 637.972 100.568C637.888 100.568 639.092 101.044 639.204 101.044C640.016 101.044 640.715 100.96 641.443 100.904C651.352 100.4 665.655 101.575 667.642 98.1353L666.439 97.52L668.09 98.1073C677.915 99.7852 685.024 98.4988 694.373 99.7572C694.065 101.379 693.03 102.777 693.729 104.343C694.373 105.853 699.047 107.643 704.842 107.727C724.155 108.007 748.619 112.565 764.993 110.496C766.897 111.335 768.464 111.558 769.08 111.083C769.248 110.943 768.072 110.552 767.484 110.244C773.418 111.754 784.615 106.301 786.574 113.516C787.106 115.557 794.327 116.927 800.905 116.899C808.239 116.899 819.491 116.788 816.776 114.634C809.134 108.594 826.04 113.124 832.394 113.152H834.158L832.982 113.376C830.883 115.11 827.832 116.676 826.992 118.577C826.404 119.92 831.751 121.625 837.433 122.353C843.926 123.191 841.799 121.597 841.183 120.591C840.036 118.745 844.598 118.913 850.028 119.109C860.581 119.528 870.909 119.752 882.329 120.115C884.737 124.646 885.856 128.253 910.208 129.483C923 130.127 939.43 135.132 950.654 132C955.777 130.574 974.39 135.496 980.632 132.867L985.53 135.356L990.485 134.154C994.516 134.713 998.238 135.356 1000.59 136.586L998.63 137.342L1003 137.509C1014.61 141.592 1024.66 143.773 1042.8 144.78C1058.92 145.675 1080.28 147.884 1098.56 152.414L1101.66 152.89L1100.38 152.247C1100.43 149.366 1101.72 149.003 1108.72 150.653C1116.95 152.61 1122.66 152.638 1129.21 152.61C1138.44 152.526 1148.52 153.141 1159.16 154.316L1164.39 154.26C1165.71 155.602 1160.81 154.26 1159.69 154.568C1157.42 155.742 1155.18 156.889 1152.83 158.091C1175.95 161.95 1180.65 162.817 1182.16 161.447C1186.28 157.7 1197.36 166.62 1203.3 162.985C1207.58 160.356 1214.21 167.264 1221.97 166.676C1240.02 165.278 1260.82 170.088 1280.41 172.241C1284.58 172.689 1288.84 172.996 1290.12 171.878C1293.51 168.997 1294.41 169.529 1301.52 169.613C1313.89 169.78 1326.18 172.521 1338.57 173.891C1317.3 166.341 1294.6 164.048 1271.23 163.908L1271.37 163.712ZM1126.88 530.019C1129.23 529.488 1130.1 529.852 1128.79 530.718C1127.86 531.334 1126.49 531.949 1125.32 532.592C1124.64 532.312 1123.3 532.145 1123.58 531.725C1123.89 531.25 1125.57 530.327 1126.88 530.019ZM1097.58 538.884C1098.5 538.632 1099.79 538.325 1100.57 538.241C1102.92 538.073 1102.39 538.437 1099.17 539.164C1098.25 539.359 1097.27 539.415 1096.32 539.527C1096.74 539.304 1097.02 539.024 1097.58 538.856V538.884ZM1065.05 545.735C1065.64 545.484 1067.04 545.288 1068.07 545.092L1069.87 545.148C1068.94 545.428 1068.05 545.819 1067.12 546.015C1064.04 546.658 1063.2 546.518 1065.05 545.735ZM973.243 566.038C977.497 563.912 982.256 563.073 987.294 562.934L993.032 562.43C989.701 564.052 988.749 563.018 986.65 563.269L973.802 566.038L971.927 566.681L973.243 566.01V566.038ZM929.27 575.014C935.204 573.784 941.138 572.525 948.695 570.931C941.082 575.07 934.812 575.098 928.514 575.322L924.707 574.986C928.934 573.644 927.058 575.35 929.27 574.986V575.014ZM884.849 584.998C886.08 584.774 887.2 584.914 888.375 584.886C886.388 585.389 884.401 585.976 882.441 586.34C881.182 586.592 879.95 586.508 878.327 586.592C880.874 585.948 882.889 585.361 884.849 584.998ZM850.784 592.324L852.52 592.212L850.504 592.744L850.784 592.324ZM820.414 598.98C821.898 598.98 824.361 599.232 824.221 599.287C817.923 602.28 809.75 602.895 802.472 604.181C809.61 602.839 811.625 598.812 820.414 598.98ZM639.064 638.578C640.659 638.158 642.898 637.934 644.438 637.906C646.593 637.823 646.677 638.382 644.606 639.025C641.751 639.92 638.672 640.563 636.769 640.06C637.44 639.612 637.972 638.857 639.064 638.578ZM619.498 641.766C621.43 640.955 623.473 640.759 623.249 641.402C623.109 641.849 621.598 642.604 620.226 643.164C618.267 643.975 616.755 644.087 616.307 643.555C617.343 642.94 618.127 642.325 619.526 641.738L619.498 641.766ZM562.426 655.944V656.279L560.55 656.503L562.426 655.944ZM527.382 657.118C530.125 656.503 530.712 656.699 528.893 657.566C528.333 657.845 527.298 658.097 526.486 658.377C526.206 658.237 525.898 658.097 525.562 657.901C526.122 657.649 526.71 657.258 527.382 657.118ZM514.674 665.06C515.542 664.92 516.661 664.836 517.109 664.92C518.481 665.2 517.585 665.675 514.842 666.067C514.198 666.151 513.806 665.899 513.302 665.815C513.778 665.563 514.31 665.144 514.674 665.06ZM273.647 716.235L291.925 715.676C282.409 717.661 272.304 721.213 269.449 719.004C268.889 718.584 272.136 717.158 273.647 716.207V716.235ZM185.673 738.551L178.928 740.005C180.999 738.858 183.266 738.383 185.673 738.551ZM164.652 714.865C165.464 714.585 166.248 714.222 167.116 714.026C167.507 713.942 168.543 714.054 168.459 714.222C168.123 714.921 166.584 715.424 164.484 715.48C164.149 715.48 164.568 715.061 164.652 714.837V714.865ZM54.7336 733.07L55.2654 732.65L54.8176 733.182L54.2298 733.573L54.7336 733.07ZM43.1175 750.492L42.7536 750.911L41.4381 750.967L43.1175 750.492ZM57.1968 694.003L56.609 694.395L56.9728 692.997L57.1968 694.003ZM61.1154 622.89L60.4996 624.623L60.8355 622.638L61.1154 622.89ZM88.3782 523.783C87.9863 525.461 86.9227 528.537 86.7548 528.481C85.5792 528.034 86.3069 523.923 87.1186 519.812C87.6784 518.107 88.6581 514.863 88.7701 514.946C89.7777 515.785 89.3579 519.533 88.3782 523.783ZM92.7727 379.57L92.9407 386.505V392.993C92.8847 397.971 91.849 402.669 89.7497 407.059L89.1339 407.982L89.7497 406.416L92.6048 393.692L92.6887 387.037L92.5768 380.018L92.6608 378.172L92.8007 379.57H92.7727ZM100.442 343.132C100.302 344.055 100.05 345.286 99.7983 346.041C99.0146 348.222 98.9026 347.607 99.5744 344.419C99.7703 343.524 100.106 342.629 100.386 341.734C100.414 342.182 100.554 342.573 100.47 343.132H100.442ZM106.684 312.623C105.9 315.448 104.921 318.384 103.969 320.481C103.493 321.544 103.465 319.419 104.165 316.678C104.865 313.882 105.676 311.169 106.572 307.897C106.656 309.994 106.936 311.7 106.684 312.623ZM116.257 259.043C116.957 256.135 117.908 253.366 118.748 250.514L118.972 245.48C120.511 243.858 118.692 249.172 119.056 250.011C118.72 252.807 118.524 255.548 117.992 258.428C117.544 260.973 116.761 264.972 115.837 263.909C115.613 263.629 115.893 260.609 116.257 259.043ZM138.817 274.144L139.153 272.774L139.377 273.752L138.817 274.116V274.144ZM150.377 252.024C149.957 254.01 149.649 256.023 149.286 258.036C149.761 259.211 150.209 260.413 150.657 261.56C151.413 263.378 151.385 266.23 149.621 270.9C149.034 272.494 148.222 274.088 147.69 274.535C146.095 275.85 146.319 272.578 147.158 267.936L148.866 258.708C149.118 256.023 149.174 253.422 149.649 250.598C150.125 247.745 151.357 243.075 152.001 244.082C152.616 245.033 150.965 249.256 150.377 252.08V252.024ZM149.761 188.321C150.013 187.817 150.237 188.041 150.489 187.929C150.349 188.74 150.265 189.747 150.041 190.334C149.789 191.089 149.314 192.012 149.174 191.956C148.614 191.733 148.838 190.222 149.761 188.321ZM162.357 203.953C162.189 203.31 162.469 201.045 162.749 199.395C162.945 198.332 163.561 197.074 164.037 195.759C163.869 197.717 163.757 199.311 163.533 201.045C163.225 203.422 162.609 204.96 162.329 203.953H162.357ZM169.495 195.899C169.607 198.052 169.411 200.849 169.355 203.366V205.267L169.243 203.589C168.767 202.387 168.207 201.464 167.871 199.842C167.675 198.836 167.647 196.011 167.899 195.256C169.439 190.698 169.411 193.998 169.495 195.843V195.899ZM159.474 188.824C159.418 190.334 159.082 192.348 158.858 194.137C158.271 196.542 157.683 197.409 157.627 195.62C157.599 194.445 157.991 192.096 158.383 190.334C158.998 187.538 159.53 186.867 159.446 188.824H159.474ZM181.195 127.75C180.243 121.458 179.235 118.493 180.075 108.51C181.839 112.006 183.07 114.271 181.195 127.75ZM177.192 100.932C177.024 101.827 176.912 102.805 176.688 103.532C176.576 103.924 176.1 104.204 176.045 103.868C175.793 102.47 176.101 100.792 176.828 99.7292C176.996 99.4776 177.052 100.484 177.192 100.904V100.932ZM185.617 96.5133L185.421 95.2829L186.065 94.7795L185.617 96.5133ZM183.714 83.5937C183.518 85.9987 182.93 87.8443 182.51 87.285C182.258 86.9494 182.37 84.7123 182.65 83.1463C182.846 81.8879 183.518 80.2939 184.022 78.644C183.91 80.4617 183.826 81.9718 183.742 83.6217L183.714 83.5937ZM202.132 47.072C202.384 48.0508 202.216 48.2466 201.684 47.7152C201.544 47.5754 201.488 47.128 201.376 46.7924C201.488 46.6246 201.6 46.2611 201.684 46.317C201.852 46.4568 202.076 46.8204 202.16 47.072H202.132ZM191.579 36.7252C190.852 39.5496 190.124 39.1581 189.816 37.4802C189.648 36.6133 189.984 34.5719 190.096 33.0059C190.572 33.0059 191.019 33.0059 191.467 33.0339C191.495 34.3202 191.775 35.9142 191.579 36.6972V36.7252ZM219.262 45.8696C219.878 46.7365 218.506 47.2678 215.035 47.1559C210.697 46.4568 211.257 45.6459 210.529 44.8628C210.277 44.5832 209.969 44.3036 209.633 44.0239C209.297 43.7443 208.933 43.4367 208.905 43.2129C208.681 42.7096 208.458 42.2062 208.402 41.7308C208.542 40.836 207.842 39.8852 214.028 40.025C216.183 40.0529 220.689 40.836 222.425 41.4791C230.234 44.3315 217.89 43.94 219.262 45.8416V45.8696ZM266.93 20.5057C264.159 20.0024 263.515 19.527 265.25 19.2194C265.558 19.1634 266.958 19.499 267.881 19.6388C268.329 19.9185 269.113 20.2541 269.113 20.4498C269.113 20.5617 267.602 20.5896 266.93 20.4778V20.5057ZM294.836 20.4778L292.961 20.5896L294.612 20.3939L296.488 20.2541L294.808 20.4778H294.836ZM331.728 60.9145C327.837 60.0755 324.45 58.901 326.69 58.0062C327.809 57.5587 330.272 57.4469 332.12 57.1952C334.107 58.2858 336.122 59.3485 337.438 60.0476C337.214 61.278 335.115 61.6136 331.728 60.8865V60.9145ZM431.206 61.6416L432.046 62.3966C431.822 62.5924 431.85 62.9559 431.318 62.9279C429.639 62.9279 428.827 62.4805 429.555 61.9212C429.779 61.7534 430.646 61.6975 431.206 61.6136V61.6416ZM439.603 70.6182C433.809 70.8978 427.679 70.9817 417.491 70.0029C423.313 68.2691 432.55 70.1707 439.043 70.3945H440.919L439.603 70.6182ZM465.187 76.9941L459.533 75.8475C461.128 75.9035 462.723 75.8475 464.291 76.0713C466.166 76.3229 468.042 76.7983 469.917 77.1898L465.159 77.022L465.187 76.9941ZM468.909 72.5198C462.304 71.4851 461.128 69.947 461.604 68.6047C462.192 66.9828 465.663 66.2837 471.82 66.5913C480.274 68.381 482.513 70.1707 482.289 71.7088C482.037 73.5544 476.103 73.6663 468.937 72.5198H468.909ZM507.62 50.0083C503.422 49.0296 505.829 48.6101 506.669 48.1627C507.284 47.8271 509.048 47.7432 510.335 47.5474C510.055 47.9669 509.859 48.4143 509.412 48.8338C508.964 49.2533 508.236 49.6168 507.62 50.0083ZM532.392 54.8462C531.496 54.7343 530.573 54.4267 529.649 54.203C530.097 54.1191 530.544 54.0352 530.936 53.9513C532.028 54.0911 533.26 54.175 534.015 54.3987C536.283 55.0419 535.639 55.2377 532.392 54.8462ZM552.825 67.6539L551.817 67.0946L553.469 67.598L559.291 68.9962C555.792 69.3598 555.064 68.0454 552.825 67.6539ZM587.001 94.0245L578.632 92.1508L588.625 93.1576C588.457 93.5211 587.925 93.8287 587.001 94.0245ZM709.012 79.9024C707.249 79.9024 706.465 79.455 707.305 78.9236C707.557 78.7558 708.396 78.6999 708.956 78.5881L709.768 79.3711C709.516 79.5668 709.544 79.9304 708.984 79.9304L709.012 79.9024ZM713.547 102.134L713.771 101.827L715.562 102.302L713.519 102.134H713.547ZM731.125 85.719L729.305 85.2436L731.349 85.4114L731.125 85.719ZM734.204 105.042L732.552 104.567L734.595 104.763L734.204 105.042ZM758.947 104.791C758.331 104.567 757.24 104.259 757.268 104.12C757.268 103.924 757.912 103.644 758.611 103.7C761.27 103.812 762.474 104.259 761.494 104.763C761.214 104.903 759.843 104.791 758.947 104.791ZM799.058 94.6677L798.358 94.0804L800.065 94.3321L799.086 94.6677H799.058ZM985.614 132.588L986.762 132.504L987.462 132.951L985.614 132.588ZM1156.3 149.45L1155.82 148.863L1157.53 149.171L1156.27 149.45H1156.3ZM1201.45 157.001C1196.02 156.553 1195.1 155.155 1192.13 154.176L1191.12 153.617L1192.72 154.12C1195.57 154.847 1198.45 155.574 1201.2 156.329C1201.67 156.469 1201.56 157.001 1201.45 157.001ZM1239.32 163.125C1236.27 162.733 1235.6 162.258 1237.64 161.978C1238.26 161.894 1239.54 162.062 1240.55 162.118L1241.45 162.929C1240.72 163.013 1240.02 163.209 1239.29 163.125H1239.32Z" fill="#458F64"/>
<path d="M281.401 14.8849C287.055 15.0247 293.297 15.3323 293.493 13.4867C291.254 12.1444 287.587 11.3613 283.22 11.0258C276.419 10.4944 271.576 10.886 272.08 12.6477C272.416 13.8222 276.95 14.773 281.429 14.8849H281.401Z" fill="#458F64"/>
<path d="M1369.34 179.148C1375.13 180.351 1377.96 181.022 1380.92 181.525C1385.49 182.308 1394.28 184.266 1390.89 181.609C1387.84 179.232 1379.16 178.393 1369.34 179.121V179.148Z" fill="#458F64"/>
<path d="M511.847 87.0893C507.34 86.558 503.282 86.4461 502.582 87.4808C501.714 88.7951 506.697 89.5502 510.811 90.1094C515.066 90.6967 519.46 91.0602 519.936 89.8298C520.412 88.5434 516.157 87.7604 511.847 87.0893Z" fill="#458F64"/>
<path d="M232.11 6.74719C236.504 7.36241 240.367 7.55816 240.535 6.32772C240.647 5.51675 238.239 4.76171 234.853 4.23038C230.654 3.72702 226.455 3.27959 226.511 4.62189C226.511 5.40489 228.555 6.27179 232.11 6.74719Z" fill="#458F64"/>
<path d="M537.514 92.1229C537.626 92.7102 539.921 93.2415 541.965 93.1855C543.392 93.1296 544.092 92.7381 545.128 92.5144C543.476 92.1229 541.797 91.7314 540.145 91.3679C539.222 91.6195 537.458 91.7594 537.542 92.1229H537.514Z" fill="#458F64"/>
<path d="M342.728 21.3167C345.107 21.7362 346.311 21.5684 346.283 20.9532C344.771 20.5057 343.148 19.7787 341.776 19.6388C339.313 19.3872 338.809 19.8905 340.321 20.5896C340.853 20.8413 341.832 21.1489 342.728 21.3167Z" fill="#458F64"/>
<path d="M1415.35 184.63C1413.2 184.042 1411.55 184.042 1410.68 184.49C1410.93 184.741 1410.87 185.077 1411.46 185.217C1413.53 185.776 1415.3 185.804 1416.05 185.301C1416.28 185.161 1415.94 184.769 1415.38 184.602L1415.35 184.63Z" fill="#458F64"/>
<path d="M1350.97 176.128C1351.17 176.352 1351.2 176.576 1351.67 176.799C1351.9 176.883 1353.05 176.911 1353.8 176.967C1353.61 176.744 1353.58 176.52 1353.1 176.296C1352.88 176.212 1351.73 176.184 1350.97 176.128Z" fill="#458F64"/>
<path d="M142.764 750.296C142.596 751.023 143.827 750.911 146.207 749.96C146.459 749.849 145.759 749.653 145.507 749.513L142.764 750.296Z" fill="#458F64"/>
<path d="M1323.99 177.079C1324.22 177.303 1324.22 177.555 1324.72 177.75C1324.94 177.834 1326.12 177.862 1326.87 177.946C1326.68 177.722 1326.68 177.471 1326.18 177.275C1325.95 177.191 1324.75 177.163 1323.99 177.079Z" fill="#458F64"/>
<path d="M467.93 37.676C467.566 37.4523 467.37 37.1446 466.782 37.0048C466.11 36.837 464.739 36.6692 464.263 36.7252C462.668 36.9209 463.283 37.3124 465.774 37.676C466.446 37.7878 467.202 37.676 467.93 37.648V37.676Z" fill="#458F64"/>
<path d="M369.263 24.0293C369.683 24.0293 369.515 23.7496 369.627 23.5818C368.871 23.4141 367.976 23.1064 367.332 23.0505C364.589 22.8548 364.393 23.1624 366.856 23.8056C367.444 23.9454 368.647 24.0293 369.263 24.0013V24.0293Z" fill="#458F64"/>
<path d="M589.269 99.7572L591.424 100.233L592.46 99.7852C591.732 99.6174 590.612 99.3098 590.332 99.3098C589.744 99.3657 589.605 99.5894 589.269 99.7292V99.7572Z" fill="#458F64"/>
</g>
<defs>
<clipPath id="clip0_2_4134">
<rect width="1418" height="782" fill="white" transform="translate(0.823853 0.175537)"/>
</clipPath>
</defs>
</svg>
