<svg width="626" height="629" viewBox="0 0 626 629" fill="none" xmlns="http://www.w3.org/2000/svg">
<g clip-path="url(#clip0_2_4643)">
<path d="M331.119 627.878C493.723 627.878 625.541 496.055 625.541 333.442C625.541 170.829 493.723 39.0059 331.119 39.0059C168.514 39.0059 36.6962 170.829 36.6962 333.442C36.6962 496.055 168.514 627.878 331.119 627.878Z" fill="#FFF6E1" stroke="#FFF5E0" stroke-width="0.25" stroke-miterlimit="10"/>
<path d="M304.053 600.786C466.658 600.786 598.475 468.962 598.475 306.35C598.475 143.737 466.658 11.9135 304.053 11.9135C141.448 11.9135 9.63049 143.737 9.63049 306.35C9.63049 468.962 141.448 600.786 304.053 600.786Z" fill="#BDE0CA"/>
<path d="M593.118 231.395L592.686 230.455L593.092 231.217C593.549 229.313 593.194 225.961 591.798 221.061C587.177 205.496 582.378 190.515 575.954 175.839C575.523 175.23 575.091 174.646 574.609 173.985C574.482 173.782 574.278 173.274 574.126 172.894L575.954 175.763C575.218 172.005 572.933 168.729 570.622 164.895C567.982 160.528 564.884 156.085 562.32 151.54C559.628 147.071 557.039 142.78 555.287 138.742C553.738 135.289 551.504 132.318 549.396 129.373C548.33 127.926 547.264 126.478 546.248 125.057C545.182 123.685 544.166 122.289 543.252 120.867L541.678 120.486L541.957 121.146L541.449 120.283C540.434 118.76 539.977 117.541 539.164 116.119C538.402 114.697 537.26 113.097 534.848 110.888C532.69 108.882 530.405 106.572 528.348 104.134C526.266 101.722 524.286 99.2845 522.991 96.847C522.483 95.9329 519.639 92.6574 518.928 92.175C515.424 89.9152 512.378 86.5635 509.331 83.1865C506.284 79.8603 503.009 76.8133 499.48 74.9598C497.753 71.532 492.396 69.4753 492.015 68.8913C488.486 64.0162 485.744 63.7877 482.443 62.0357C480.513 60.9692 477.974 58.7856 477.72 58.2016C476.146 54.4437 468.351 50.4827 463.832 47.7658C461.141 46.0646 458.449 44.9728 455.86 43.5763C453.27 42.2306 450.756 40.6309 448.039 38.4727C445.805 36.7715 439.788 33.9023 439.305 35.3242C440.067 35.832 440.93 36.3144 441.87 36.7207C443.063 37.0508 444.129 37.584 444.993 38.3457L445.653 38.9297L444.815 38.3203L443.444 37.584L442.047 36.8984C440.854 36.5429 439.813 36.0097 438.95 35.2734C435.725 33.0136 433.643 30.6014 429.886 29.2049C417.495 24.3806 405.105 18.7945 392.461 15.5698C390.81 15.189 390.683 15.646 390.988 16.103L391.471 16.4839L390.734 16.0776C381.213 11.7104 381.188 11.5834 374.028 11.6342L373.088 11.5326L373.698 11.4818C371.616 9.37438 371.514 9.27281 363.973 9.32359L362.907 9.24742H363.719C360.723 7.74934 358.717 6.12431 354.477 4.82936C349.12 3.12815 347.927 3.53441 347.597 3.99145C347.292 4.52466 347.8 5.36257 345.743 5.23562C343.407 5.13405 341.071 5.03249 338.685 4.93092C337.491 4.85475 336.273 4.75318 335.003 4.60084C333.734 4.49927 332.439 4.34692 331.093 4.09301C328.503 3.63597 325.812 3.28049 322.892 3.17893L320.023 3.30589C319.363 2.6965 321.927 3.22971 322.664 3.10276C317.078 1.8332 311.391 1.07146 306.109 0.106598C302.961 0.309727 302.123 0.868333 302.58 1.29998C303.266 1.98554 302.047 2.3918 298.569 2.54415C296.157 1.37616 295.014 0.868333 293.008 0.766768C291.002 0.665204 288.108 0.995289 282.167 2.01094C273.661 3.20432 265.739 5.15944 257.818 7.013C255.202 7.74934 252.384 8.94273 248.931 8.76499C248.398 7.92708 251.648 6.7337 252.638 5.76883C253.552 4.85475 250.378 4.7024 248.728 5.2864C246.341 6.1497 244.031 6.73369 241.72 7.26691C239.41 7.85091 237.023 8.25716 234.383 8.53647C233.519 9.47594 231.107 10.3392 228.416 11.2025C225.75 12.1674 222.805 13.2338 220.824 14.3003C218.006 15.8491 215.264 16.814 212.497 17.6519C209.704 18.4898 206.835 18.9469 203.61 19.1754C202.137 19.2769 200.843 19.3785 199.395 19.7086C197.948 20.0895 196.374 20.7242 194.267 21.8414C186.421 25.7771 177.763 30.1444 169.105 34.5116C165.525 36.416 161.767 38.0156 158.162 39.8946C154.582 41.8497 151.027 43.881 147.676 46.2424C146.838 46.801 145.137 48.0451 145.061 48.0451C142.852 48.2991 140.491 49.6194 138.155 51.2698C135.793 52.9202 133.457 54.9008 131.376 56.6781C130.385 56.2719 134.955 52.514 131.401 54.2406C129.294 55.6371 128.227 56.6781 127.796 57.3637C126.653 59.1411 123.911 61.1978 121.143 63.5084C118.427 65.8444 115.583 68.2311 114.06 70.2878C113.45 71.1765 111.876 70.0847 108.194 72.7761C104.259 75.62 101.238 77.9305 99.3079 80.9521C100.044 80.4697 100.857 79.9111 101.517 79.5556C102.812 78.8446 104.386 77.8798 103.954 78.9208C103.827 79.2001 102.685 80.3681 102.101 80.7998C100.349 82.0947 99.1556 82.831 99.2318 82.0185C99.2572 81.7138 99.1048 81.5361 99.0541 81.3076C95.3979 83.7197 92.3257 86.5382 89.609 89.4074C86.9176 92.3019 84.8103 95.4251 82.7537 98.1165C78.5643 103.601 76.914 106.597 74.9336 108.628C73.0801 110.761 70.9219 111.929 66.9865 114.9C66.0978 115.56 65.3108 116.043 64.2444 117.363C62.8225 119.115 61.3753 120.918 59.9281 122.695C58.4809 124.473 57.1606 126.377 55.8403 128.205C53.1997 131.912 50.6353 135.569 48.9342 139.403C47.9186 141.535 47.487 143.44 45.7097 145.7C36.0107 158.319 30.9581 174.646 22.8079 188.661C20.6244 192.724 18.3901 200.24 18.4662 204.074C18.4662 205.851 19.1772 206.334 17.9838 210.346C16.4604 211.209 15.6733 211.64 15.0894 212.961C14.48 214.281 14.0738 216.49 13.566 220.934C13.4644 221.797 13.5406 222.33 13.5406 223.016C13.0836 223.371 12.6773 223.447 12.1695 224.133C10.443 226.494 9.07193 229.668 9.27505 234.035C10.1383 231.928 10.7731 231.395 11.4078 231.09C11.6363 230.836 11.8902 230.481 12.0933 230.405C12.1695 230.379 12.068 230.989 12.0933 231.319L12.0426 232.309V231.471C11.8648 231.217 11.6617 231.166 11.3824 231.344L9.24966 234.442C8.08172 237.895 7.01535 241.348 6.25365 244.674C5.64429 248.026 5.39039 251.276 5.69507 254.272C6.53294 250.413 7.11691 246.452 8.20867 242.694C8.86881 240.282 9.57973 238.758 9.75746 240.434C9.9098 241.729 9.60512 243.989 8.86881 246.046C7.85322 249.092 6.78684 251.733 5.72046 254.577C5.33961 256.811 4.88259 259.02 4.6033 261.28V262.448L4.52713 261.483C2.72444 262.347 2.72444 268.085 2.5721 271.589C2.24203 279.029 4.32401 269.177 4.80642 271.995C4.27323 274.052 3.8416 276.363 3.46075 277.784C2.59749 280.552 1.75962 283.294 1.25182 286.443C0.667848 289.591 0.693238 293.146 1.45494 297.564C1.5565 298.148 1.50572 299.926 1.37877 300.713C0.464728 306.273 0.744018 311.098 1.15026 315.592C1.37877 317.826 1.65806 319.985 2.01352 322.117C2.47054 324.225 2.90217 326.332 3.35919 328.44C4.12089 331.969 6.25365 337.555 3.5877 338.063C2.72444 338.241 3.81621 342.507 4.42557 344.157C7.8786 353.831 8.20867 354.06 8.81804 365.866C9.1481 370.005 8.8942 372.646 10.3922 378.613C11.1793 381.838 12.1187 383.488 12.9566 384.859C13.8199 386.23 14.6577 387.322 15.521 389.353C15.978 393.721 14.5816 394.609 17.2475 401.44C20.3197 409.793 23.138 418.299 26.7941 426.628C28.7238 430.741 30.755 434.499 32.9131 438.206C35.1221 441.913 37.2294 445.671 39.0321 450.038L40.6317 450.876C39.7177 448.743 39.0321 446.458 38.0419 443.817C40.911 448.591 40.9364 449.911 40.7332 451.003C43.4754 454.101 45.4812 457.402 47.2077 460.779C48.9596 464.156 50.6861 467.482 52.438 470.834C52.6158 472.408 53.0982 473.804 53.9107 475.023C54.7739 476.217 55.9165 477.232 57.3383 478.121C57.8715 478.857 58.4047 479.467 58.9125 480L60.7913 482.031C60.7913 482.945 59.5218 480.635 59.014 480.254C58.5824 480.711 58.4047 481.599 60.5121 484.545C69.8556 497.088 80.4686 508.413 91.1832 520.016C93.4429 522.327 97.3783 525.932 99.181 526.313C101.085 526.745 102.964 528.979 105.427 531.29C108.067 533.855 108.778 536.038 112.663 538.704C116.294 540.989 115.329 538.704 117.436 539.441C119.696 541.802 121.321 543.503 122.946 545.179C121.245 544.036 118.833 542.183 118.503 542.64C118.046 543.224 120.762 544.9 122.26 546.144C124.52 548.607 127.237 550.435 129.217 550.867C130.157 551.07 129.928 550.232 130.258 549.902C130.588 549.546 131.096 549.242 133.331 550.689C138.18 553.812 132.848 551.501 135.057 553.228C138.383 555.818 141.049 557.671 136.834 556.173C140.821 559.88 145.543 562.877 149.326 563.765C151.637 564.273 154.049 565.263 156.562 566.558C159.076 567.853 161.717 569.478 164.636 571.027C163.951 571.256 161.793 570.342 159.838 569.326C157.883 568.336 156.029 567.447 155.725 568.107C157.349 569.072 158.771 569.91 160.193 570.748C166.261 573.846 175.249 579.025 178.017 579.305C181.749 579.914 184.161 581.158 186.396 582.529C188.63 583.875 190.763 585.221 193.733 586.236C204.524 590.045 217.092 595.25 227.629 595.91L228.594 596.063H227.908C228.518 597.129 231.184 597.815 234.738 598.831C237.988 599.694 241.263 600.43 244.539 601.014C247.839 601.522 251.115 602.081 254.339 602.969C257.361 603.833 259.95 604.188 262.261 604.239C264.571 604.315 266.552 604.137 268.405 603.807C271.858 603.147 272.341 603.401 280.669 604.086C279.069 604.467 274.245 604.137 275.362 605.153C278.993 605.508 280.796 605.686 282.954 605.635C285.137 605.559 287.702 605.458 292.907 604.645C294.252 604.442 301.26 604.061 300.371 605.356C299.432 606.676 303.418 606.956 307.023 606.753C310.807 606.626 314.691 606.524 318.5 606.397C322.283 606.143 325.99 605.61 329.443 604.95C324.923 604.417 319.008 605.077 313.803 604.721C319.16 605.102 327.183 602.715 329.722 604.899L334.292 604.721C335.816 604.62 337.339 604.417 338.863 604.264C341.909 603.909 344.981 603.528 348.079 603.172C366.715 600.532 384.615 595.022 402.084 589.436C418.384 584.205 433.237 576.613 448.141 568.894C449.537 568.133 451.086 567.117 452.28 566.254C454.108 564.933 454.717 564.222 452.635 564.832C452.076 564.984 443.749 570.342 450.858 565.136C452.94 563.613 457.637 560.693 458.5 561.836C458.957 562.445 461.42 561.125 463.984 559.22C467.767 556.402 471.804 553.736 475.664 550.892C479.574 548.124 483.585 545.484 487.242 542.64C490.872 539.923 494.097 536.927 497.194 533.778C498.769 532.229 500.368 530.731 502.095 529.309C502.958 528.599 503.847 527.913 504.761 527.253C505.649 526.567 506.589 525.882 507.554 525.247C508.975 524.307 510.423 522.073 511.286 520.473C512.098 518.975 512.987 517.579 514.003 516.233C514.967 514.837 516.059 513.465 517.303 512.069C519.792 509.25 523.143 506.559 527.231 502.877C525.784 504.528 524.362 506.229 522.864 507.803C521.467 509.327 519.715 511.282 520.833 511.002C521.442 510.85 522.838 509.479 523.981 508.133C525.758 506.077 527.155 503.969 527.84 502.446C533.248 495.641 537.565 488.531 543.76 481.346C543.582 482.056 543.379 482.793 543.277 483.428C543.277 483.478 543.76 482.945 544.039 482.691L544.496 480.635C557.14 461.185 568.49 440.263 577.148 418.604C583.876 402.15 588.522 385.291 591.467 368.304C594.464 351.292 595.911 334.178 596.317 316.785C596.393 310.539 595.53 308.254 594.54 306.73C593.524 305.182 592.661 307.797 592.077 311.936C591.671 314.805 591.188 317.649 590.833 320.645C590.35 323.616 589.868 326.688 589.69 330.014C588.218 352.181 583.038 373.484 576.284 394.787C566.23 427.44 549.65 458.747 527.459 484.926C517.684 496.479 507.579 507.803 496.077 517.883C484.83 527.608 472.668 538.095 459.465 545.788C445.602 553.837 432.323 562.521 417.292 568.412C414.22 569.758 410.97 570.824 407.822 572.119C404.648 573.389 401.474 574.684 398.199 575.75C394.949 576.867 391.724 578.035 388.475 579.076C385.199 579.99 381.924 580.879 378.674 581.691C375.703 582.504 372.657 583.063 369.61 583.672C366.563 584.281 363.542 584.992 360.52 585.551C357.473 586.059 354.452 586.567 351.456 587.074C349.958 587.328 348.46 587.582 346.987 587.862C345.489 588.065 344.017 588.242 342.569 588.446C339.396 588.852 336.222 589.283 333.048 589.69L323.502 590.35L318.728 590.655L313.955 590.705L304.408 590.807C291.713 590.401 279.069 589.74 266.501 588.065C261.448 587.608 256.243 586.186 251.115 585.119C245.961 584.18 240.984 582.91 236.135 582.986C235.678 582.986 233.824 582.529 233.24 582.25C230.853 581.082 228.238 580.092 225.522 579.229C222.805 578.34 219.91 577.705 217.092 576.74C211.405 574.963 205.565 573.363 200.741 570.595C198.659 569.428 194.647 568.209 191.905 567.168C188.351 565.873 184.999 564.4 181.673 562.826C178.398 561.175 175.224 559.322 171.898 557.57C160.574 551.298 149.555 544.417 139.145 536.698C133.788 533.042 128.837 528.852 123.657 524.968C118.757 520.753 113.577 516.817 108.778 512.45C106.798 510.723 104.767 508.895 102.863 506.991C101.06 505.01 99.3587 503.004 97.9877 501.049C96.8451 499.399 95.601 497.824 94.3569 496.25C93.1636 494.625 91.8941 493.051 90.5738 491.502C89.2535 489.953 87.8825 488.43 86.4352 486.906C85.0388 485.357 83.6169 483.809 82.1697 482.234C80.494 480.457 78.2597 478.095 77.1933 476.445C74.6035 472.078 72.0391 467.939 69.2462 464.054C66.6564 460.042 63.8127 456.361 60.7406 452.831C60.3851 452.4 59.5472 450.927 59.4203 450.47C56.8813 442.243 51.3717 434.093 47.0807 425.51C46.1667 423.657 45.2527 421.752 44.4402 419.848C36.9755 401.795 31.6182 383.133 26.1086 364.876C25.5754 363.353 25.2454 361.728 25.3215 360.509C25.7785 351.876 23.3665 341.135 22.3763 331.182C21.9447 326.307 22.4778 320.391 20.7767 315.363C20.472 314.5 20.472 311.58 20.599 308.152C20.6752 304.725 21.2591 300.789 21.4369 297.894C22.2493 286.011 23.2395 274.281 24.5344 262.524C26.2356 250.87 28.1652 239.165 32.2276 228.069C32.6338 225.656 33.0909 223.219 33.8272 220.857C34.5889 218.496 35.4267 216.135 36.3154 213.748C37.9657 208.974 40.1747 204.328 41.8758 199.478C42.9676 196.228 43.8054 194.273 44.0847 193.181C44.3386 192.089 44.0593 191.886 43.1199 192.267C42.5105 192.521 41.6219 193.283 41.3426 192.826C40.5555 191.581 41.9012 187.163 44.0593 182.796C46.5983 177.921 46.7761 179.241 46.1413 182.364C45.6335 185.792 48.071 183.025 49.9498 180.003C51.3717 177.591 52.9458 174.925 54.3169 172.233C55.7133 169.542 57.0844 166.927 57.7953 164.362C58.1 163.346 57.9984 162.762 58.4301 161.671C58.6078 161.188 59.0648 161.137 59.3949 161.061C61.8069 160.426 64.676 155.678 67.5451 150.194C69.2462 146.791 71.2012 143.491 73.207 140.266C74.248 138.666 75.3144 137.092 76.5839 135.695C77.8788 134.299 79.2753 133.004 80.8494 131.887C87.4 122.517 96.769 114.341 102.863 105.531C105.224 102.357 107.179 99.9955 110.733 97.9896C112.638 96.847 115.456 94.3079 117.893 92.2004C122.768 87.7569 127.897 83.6436 133 79.5048C135.565 77.4481 138.307 75.5946 140.973 73.6648L145.035 70.821C146.432 69.9323 147.854 69.0944 149.301 68.2311C151.611 66.86 152.551 65.4127 152.932 64.4732L152.271 64.651L153.109 64.2955C155.648 63.1529 158.365 61.8579 161.133 60.4106C163.9 58.9633 166.668 57.2875 169.511 55.7387C173.142 53.8343 176.544 51.8538 174.539 51.5745C172.533 51.2698 172.964 50.1018 177.154 47.2072C180.962 44.5919 184.466 42.3067 188.478 39.8184C190.356 38.6758 190.788 39.2344 191.499 39.0821C196.983 37.9902 195.409 39.2344 191.474 41.6212C188.376 43.6525 183.171 46.0646 182.739 47.6643C185.253 46.8518 187.36 45.5314 189.468 44.2872C190.534 43.6779 191.575 43.0685 192.718 42.5606C193.86 42.1036 195.054 41.7481 196.348 41.5704L199.294 40.6309C197.872 41.6973 197.288 41.2911 196.298 41.6212C194.216 42.9161 193.226 43.9064 196.806 42.8399C207.85 39.0059 224.557 33.0643 231.133 29.1541C234.027 27.4021 230.27 28.2146 226.791 29.1287L225.902 29.5096L226.486 29.1287C227.654 28.2908 229.813 27.3513 231.742 26.4372C233.697 25.5993 235.398 24.8122 235.576 24.0251C235.906 22.6794 240.426 22.2731 242.736 22.0192C248.093 21.4352 242.939 22.7047 241.543 23.3141C239.664 24.1266 239.385 24.7614 241.543 24.4821C249.21 23.4665 244.716 25.0915 241.644 26.3865C239.359 27.3513 235.703 28.4939 237.937 28.9002C240.07 29.2811 243.015 27.9861 245.884 27.3513C249.82 26.5896 252.892 25.6755 255.99 24.6853C257.538 24.2028 259.087 23.695 260.763 23.2887C262.464 22.9333 264.267 22.6286 266.323 22.4C275.057 21.4606 267.517 23.238 268.126 23.6188C267.821 23.7458 267.44 23.8727 267.263 23.9997C267.212 24.0505 267.872 24.1013 268.024 24.0759C268.481 23.9743 268.862 23.8473 269.269 23.7204C271.097 23.4665 272.899 23.238 274.575 22.9079C276.251 22.654 277.8 22.3747 279.12 21.8922C281.811 20.9528 284.731 21.2321 287.499 21.3336L287.295 22.2731C288.133 22.2223 289.403 22.1715 289.707 22.0954C291.205 21.6637 290.088 21.2828 288.616 21.0797C288.717 19.8355 287.346 18.7945 297.299 18.439C299.28 18.3629 301.361 18.2105 303.443 18.0074C305.525 17.855 307.607 17.7281 309.588 17.4996C313.549 17.0425 317.103 16.3062 319.439 15.3413C322.435 16.1792 324.796 16.814 327.183 17.4742C326.853 17.5503 326.421 17.6011 326.269 17.6773C326.218 17.7027 326.853 17.9058 327.056 17.9058C327.539 17.9058 327.97 17.855 328.402 17.8296C329.367 17.9058 330.255 17.9058 331.042 17.8296L332.083 17.7789L331.246 17.8804L333.505 19.2515C327.666 19.1246 321.851 19.5055 324.949 20.9528C328.656 22.7047 333.911 21.5367 338.202 21.7145C339.472 21.7145 340.183 21.4352 341.173 21.2828C341.427 21.2321 341.935 21.1813 341.859 21.0797C341.655 20.8766 341.173 20.6227 340.792 20.4195L347.267 20.8258C349.425 21.0035 351.557 21.359 353.69 21.6891C357.956 22.4001 362.196 23.1872 366.258 24.7868C365.903 24.7868 365.547 24.7868 365.243 24.7868C365.217 24.7868 365.776 25.0661 365.827 25.0661C366.233 25.0915 366.563 25.0915 366.944 25.1169C369.407 25.2693 372.403 25.6501 374.942 25.8279C377.481 25.9802 379.512 26.1326 380.096 25.3962L379.537 25.0153L380.324 25.4216C385.098 26.9959 388.779 26.7927 393.299 28.3162C393.019 29.0271 392.435 29.535 392.638 30.3221C392.842 31.0584 395 32.3534 397.818 32.9628C407.314 34.9433 418.612 40.2754 426.712 41.9259C427.524 42.586 428.235 42.9161 428.591 42.7892C428.692 42.7638 428.159 42.4083 427.931 42.1798C430.622 43.6271 436.639 43.3732 436.563 46.7756C436.538 47.7404 439.737 49.5686 442.86 50.7366C446.262 52.1585 451.518 54.3422 450.604 52.8949C447.989 48.8577 455.25 54.0121 458.145 55.4594L458.957 55.8402L458.373 55.6879C457.104 55.9418 455.453 55.9418 454.717 56.602C454.235 57.0082 456.342 58.8872 458.779 60.436C461.572 62.188 460.912 61.0708 460.811 60.5122C460.633 59.4966 462.689 60.563 465.127 61.8326C469.9 64.2955 474.344 67.0631 479.421 69.9323C479.548 72.3445 479.193 74.0965 489.451 80.9267C494.655 84.7862 500.394 91.2101 505.649 93.5461C506.868 94.0539 509.077 96.1868 511.362 98.2943C513.571 100.478 515.831 102.712 517.43 103.246L518.674 105.734L520.96 106.902C522.432 108.375 523.575 109.949 524.133 111.142L523.168 110.736L524.768 112.285C526.368 114.976 527.942 117.363 529.922 119.877C531.801 122.492 534.086 125.285 537.184 128.688C542.643 134.807 549.142 143.643 553.408 152.225L554.246 153.571L554.043 152.885C555.033 152.073 555.668 152.428 557.191 155.755C559.019 159.665 560.746 162.001 562.777 164.667C565.519 168.501 568.134 172.97 570.775 177.794L572.196 180.079C572.044 180.993 571.232 178.505 570.825 178.099C569.759 177.439 568.667 176.778 567.55 176.118C572.45 187.011 573.161 189.347 574.152 189.652C576.792 190.515 575.878 197.625 578.772 199.427C580.829 200.773 579.813 205.267 581.667 208.695C586.313 216.668 588.675 227.383 591.188 237.159C591.721 239.241 592.331 241.323 593.042 241.78C594.819 242.948 594.819 243.456 595.962 246.934C596.85 249.981 597.485 253.13 598.018 256.304L598.805 261.077C599.008 262.677 599.186 264.276 599.44 265.876C599.872 260.036 599.059 254.247 598.069 248.432C596.977 242.618 595.047 236.93 593.067 231.242L593.118 231.395ZM495.189 532.991C496.103 532.179 496.585 532.103 496.179 532.788C495.9 533.27 495.417 533.88 495.036 534.439C494.681 534.489 494.046 534.769 494.097 534.54C494.148 534.261 494.681 533.448 495.214 532.991H495.189ZM483.662 543.732C484.042 543.402 484.55 542.97 484.906 542.767C485.947 542.132 485.769 542.411 484.449 543.503C484.068 543.808 483.636 544.062 483.23 544.341C483.382 544.138 483.458 543.96 483.687 543.757L483.662 543.732ZM469.697 553.685C469.951 553.457 470.586 553.126 471.017 552.796L471.855 552.441C471.474 552.771 471.119 553.126 470.713 553.406C469.342 554.294 468.91 554.396 469.672 553.71L469.697 553.685ZM427.474 577.578C429.403 576.08 431.739 575.191 434.202 574.404L436.969 573.338C435.497 574.557 434.913 574.226 433.923 574.658C431.891 575.674 429.809 576.562 427.753 577.502L426.864 578.01L427.474 577.553V577.578ZM405.968 586.262C408.888 585.119 411.808 584.002 415.515 582.555C411.935 585.145 408.761 585.856 405.587 586.465L403.632 586.592C405.74 585.678 404.851 586.592 405.968 586.262ZM383.625 593.6C384.26 593.448 384.844 593.448 385.428 593.371C384.412 593.702 383.397 594.057 382.406 594.311C381.746 594.489 381.137 594.514 380.299 594.616C381.594 594.209 382.609 593.828 383.6 593.575L383.625 593.6ZM366.131 597.942L367.02 597.866L365.979 598.145L366.131 597.942ZM350.339 600.963C351.1 600.963 352.37 601.09 352.268 601.116C348.942 602.538 344.651 602.411 340.843 602.842C344.575 602.411 345.819 600.735 350.313 600.963H350.339ZM254.695 600.887C255.533 601.014 256.675 601.319 257.411 601.573C258.478 601.928 258.402 602.182 257.284 602.081C255.736 601.928 254.136 601.649 253.298 601.09C253.704 601.014 254.111 600.811 254.669 600.887H254.695ZM244.691 598.653C245.783 598.653 246.773 598.957 246.57 599.186C246.418 599.338 245.554 599.389 244.767 599.364C243.675 599.364 242.939 599.059 242.812 598.754C243.422 598.729 243.904 598.627 244.691 598.627V598.653ZM214.985 592L214.909 592.127L213.995 591.721L214.985 591.975V592ZM199.065 583.494C200.411 584.002 200.639 584.256 199.624 584.078C199.319 584.027 198.786 583.85 198.354 583.723C198.253 583.596 198.177 583.443 198.075 583.291C198.38 583.342 198.735 583.367 199.065 583.494ZM191.448 582.986C191.88 583.164 192.362 583.443 192.54 583.596C193.073 584.078 192.54 584.002 191.245 583.393C190.94 583.24 190.839 583.063 190.636 582.885C190.915 582.91 191.245 582.885 191.423 582.986H191.448ZM86.9938 511.358C88.7965 513.922 90.5484 516.563 92.4019 519.128C88.8727 515.522 84.6325 511.891 84.7087 510.19C84.7087 509.86 86.2067 510.952 86.9938 511.383V511.358ZM56.1704 475.759C55.4594 474.795 54.7739 473.804 54.1392 472.789C55.0278 473.627 55.688 474.617 56.1704 475.759ZM62.1878 462.175C62.4671 462.505 62.7464 462.81 63.0003 463.191C63.1018 463.369 63.2542 463.851 63.1526 463.851C62.7971 463.8 62.2894 463.165 61.8831 462.201C61.8069 462.048 62.0862 462.201 62.1878 462.201V462.175ZM36.4423 405.883L36.874 406.645L36.4931 406.188L36.0361 405.375L36.4423 405.883ZM29.13 405.223H28.9523L28.7492 404.283L29.13 405.223ZM23.3919 360.839L23.2142 361.118L23.1126 360.407L23.3919 360.839ZM13.6421 326.637V327.577L13.4898 326.561L13.6421 326.637ZM16.8667 275.042C16.7397 275.906 16.4096 277.505 16.3335 277.48C15.7495 277.327 15.9272 275.245 16.1304 273.138C16.3335 272.249 16.6382 270.573 16.6889 270.624C17.1713 270.98 17.1206 272.884 16.8413 275.042H16.8667ZM21.5384 201.763C21.3099 202.931 21.2337 204.15 21.0814 205.318L20.6244 208.67C20.2435 211.234 19.4564 213.596 18.1869 215.779L17.8315 216.236L18.2123 215.449L20.3959 209.025L20.9037 205.597C21.056 204.404 21.1576 203.16 21.3861 201.966L21.5892 201.027L21.513 201.763H21.5384ZM28.7746 183.685C28.5968 184.142 28.3429 184.751 28.1398 185.107C27.5305 186.148 27.5558 185.818 28.216 184.269C28.4191 183.837 28.673 183.405 28.9015 182.974C28.8507 183.202 28.8761 183.405 28.7746 183.685ZM35.5791 168.882C34.8174 170.227 33.9541 171.599 33.2178 172.538C32.837 173.02 33.1416 171.954 33.8526 170.659C34.5889 169.339 35.3252 168.044 36.2138 166.495C35.9345 167.561 35.833 168.45 35.5791 168.882ZM48.858 143.643C49.7213 142.323 50.6861 141.129 51.6002 139.86L52.6665 137.447C53.6314 136.889 51.8287 139.199 51.8033 139.656C51.1178 140.977 50.5084 142.272 49.7213 143.592C49.0358 144.76 47.9186 146.588 47.7409 145.954C47.6901 145.801 48.401 144.354 48.858 143.643ZM55.8403 154.003L56.2465 153.419L56.1704 153.901L55.8403 154.003ZM64.8537 145.395C64.3205 146.258 63.8127 147.147 63.305 148.036C63.305 148.645 63.2796 149.28 63.2542 149.889C63.2542 150.854 62.721 152.149 61.1468 154.053C60.6136 154.688 59.9789 155.323 59.6488 155.45C58.7347 155.831 59.3949 154.333 60.6136 152.327L63.0003 148.29C63.6096 147.071 64.0667 145.877 64.8283 144.633C65.6154 143.414 67.0881 141.485 67.1642 142.043C67.2404 142.576 65.6662 144.227 64.8791 145.42L64.8537 145.395ZM78.5897 116.424C78.8182 116.246 78.869 116.398 78.996 116.398C78.7421 116.728 78.4374 117.16 78.2089 117.363C77.9296 117.642 77.498 117.972 77.4472 117.896C77.2694 117.668 77.7519 117.058 78.5897 116.424ZM80.0623 125.844C80.1385 125.514 80.7479 124.549 81.2557 123.889C81.5603 123.432 82.0935 123.025 82.6267 122.543C82.0681 123.33 81.6873 124.041 81.2049 124.777C80.5447 125.768 79.9354 126.352 80.0623 125.844ZM84.8357 123.711C84.3279 124.65 83.6677 125.869 83.0584 126.936L82.6267 127.773L82.9568 127.012C83.033 126.377 83.0076 125.869 83.2361 125.082C83.363 124.574 84.0486 123.381 84.3279 123.101C86.0544 121.451 85.2419 122.873 84.8357 123.685V123.711ZM82.449 118.633C82.0428 119.293 81.408 120.08 80.9002 120.816C80.0623 121.756 79.6053 122.01 80.0369 121.222C80.3162 120.715 81.0526 119.775 81.6619 119.064C82.6013 117.972 82.9822 117.795 82.4744 118.633H82.449ZM107.23 97.7103C108.677 94.9426 109.058 93.3684 112.435 89.6867C112.054 91.5402 111.724 92.6574 107.23 97.7103ZM113.704 85.9034C113.374 86.2081 113.019 86.5889 112.714 86.8175C112.562 86.9444 112.282 86.9444 112.358 86.7921C112.688 86.1573 113.323 85.5987 113.933 85.3448C114.06 85.294 113.78 85.7002 113.704 85.9034ZM118.173 86.3858L118.477 85.8526H118.858L118.173 86.3858ZM121.524 80.8251C120.686 81.6884 119.848 82.2217 119.874 81.8916C119.874 81.6884 120.661 80.8759 121.27 80.3427C121.753 79.9111 122.514 79.4794 123.225 78.997C122.591 79.6572 122.083 80.2158 121.499 80.8251H121.524ZM145.772 68.5866C144.959 69.3737 144.324 69.6784 144.248 69.3991C144.223 69.3229 144.68 68.9421 144.908 68.7136C145.264 68.5104 145.848 68.155 145.899 68.1803C146.026 68.2057 146 68.3835 145.772 68.5866ZM141.912 64.2955C140.16 65.3873 139.932 65.1842 140.389 64.4732C140.617 64.0924 141.633 63.4068 142.293 62.8482L143.334 62.899C142.852 63.3814 142.42 63.9908 141.912 64.2955ZM162.072 57.3891C162.554 57.516 162.174 58.1254 160.752 59.1157C158.847 60.1567 158.822 59.6997 158.314 59.6489C156.918 59.4712 153.769 60.2329 158.314 56.9067C159.178 56.2719 161.209 55.1801 162.097 54.9008C166.007 53.5804 160.98 57.1352 162.072 57.4145V57.3891ZM175.173 34.3085C173.828 34.8671 173.396 34.8671 174.081 34.2831C174.208 34.1816 174.919 33.9276 175.351 33.7245C175.63 33.7245 176.062 33.6229 176.113 33.7245C176.138 33.7753 175.478 34.1816 175.148 34.3339L175.173 34.3085ZM187.665 26.8181L186.827 27.3259L187.538 26.8435L188.376 26.3357L187.665 26.8435V26.8181ZM213.385 34.2323C211.481 34.7402 209.704 34.9941 210.541 34.1562C210.948 33.7499 212.04 33.1659 212.827 32.6581C213.944 32.6581 215.061 32.6581 215.797 32.6581C215.95 33.2167 215.061 33.8007 213.411 34.2323H213.385ZM260.154 16.9917L260.661 17.2203C260.661 17.2203 260.661 17.4742 260.382 17.5503C259.544 17.7281 259.113 17.6773 259.392 17.3472C259.468 17.2456 259.9 17.1187 260.154 16.9917ZM265.409 19.8609C262.642 20.6735 259.697 21.4352 254.695 22.6032C255.964 21.7907 257.767 21.2574 259.646 20.8258C261.55 20.4449 263.505 20.2164 265.105 19.8355L266.019 19.607L265.409 19.8609ZM278.587 19.6832L275.718 19.734C276.505 19.607 277.266 19.4293 278.053 19.3531C278.993 19.2769 279.958 19.3023 280.923 19.2769L278.587 19.6578V19.6832ZM279.932 17.3218C276.581 17.5249 275.819 16.9409 275.895 16.3062C275.997 15.519 277.647 14.8843 280.719 14.4018C285.112 14.351 286.381 14.935 286.432 15.6206C286.483 16.4585 283.563 17.0933 279.907 17.3218H279.932ZM297.375 3.88988C295.116 3.76293 296.334 3.40745 296.741 3.12815C297.045 2.92502 297.934 2.77267 298.594 2.56954C298.467 2.77267 298.416 3.00119 298.213 3.20432C298.01 3.43284 297.655 3.63597 297.375 3.86449V3.88988ZM310.578 4.55005C310.096 4.55005 309.613 4.44849 309.105 4.39771C309.334 4.34692 309.562 4.27075 309.766 4.21997C310.324 4.21997 310.984 4.21997 311.391 4.27075C312.609 4.44849 312.279 4.57544 310.578 4.55005ZM321.826 9.45055L321.293 9.22203L322.156 9.39977L325.203 9.90759C323.425 10.1615 322.994 9.57751 321.826 9.45055ZM339.853 20.9274L335.663 20.0641L340.64 20.5211C340.564 20.6988 340.284 20.8258 339.853 20.9274ZM402.058 21.1305C401.144 20.9274 400.789 20.6481 401.271 20.4957C401.423 20.4449 401.855 20.4957 402.134 20.5211L402.49 20.9528C402.363 21.0035 402.337 21.1813 402.058 21.1051V21.1305ZM402.515 31.5409L402.668 31.4139L403.531 31.8202L402.541 31.5409H402.515ZM412.773 26.3865L411.909 25.9294L412.925 26.2595L412.773 26.3611V26.3865ZM412.367 35.3749L411.605 34.9433L412.595 35.2988L412.367 35.3749ZM424.427 38.7266C424.173 38.5234 423.665 38.2441 423.69 38.168C423.716 38.0664 424.071 38.0664 424.401 38.168C425.671 38.625 426.204 39.0059 425.671 39.0821C425.519 39.0821 424.858 38.8535 424.427 38.7012V38.7266ZM445.272 41.088L445.018 40.7071L445.805 41.1133H445.272V41.088ZM519.411 104.896L519.893 105.226L520.045 105.607L519.436 104.871L519.411 104.896ZM571.714 175.458L571.79 175.103L572.171 175.915L571.714 175.458ZM580.651 197.32C579.483 194.755 579.813 194.019 579.458 192.445V191.861L579.636 192.699C580.042 194.146 580.448 195.644 580.854 197.041C580.931 197.294 580.677 197.371 580.651 197.294V197.32ZM586.923 216.059C586.415 214.56 586.44 214.154 587.024 215.043C587.202 215.297 587.405 215.957 587.608 216.414L587.481 216.998C587.304 216.668 587.05 216.389 586.923 216.033V216.059Z" fill="#BEE0CB"/>
<path d="M180.201 28.3416C182.79 26.8689 185.685 25.2692 185.329 24.5329C183.984 24.6091 182.13 25.32 180.048 26.3865C176.824 28.0369 174.742 29.5096 175.402 30.0428C175.859 30.3983 178.144 29.535 180.175 28.3416H180.201Z" fill="#BEE0CB"/>
<path d="M600.684 282.05C600.735 285.097 600.709 286.595 600.786 288.144C600.989 290.531 600.684 295.152 601.623 293.197C602.563 291.42 601.954 286.925 600.659 282.05H600.684Z" fill="#BEE0CB"/>
<path d="M302.301 20.2672C300.041 20.3688 298.035 20.6227 297.782 21.1305C297.451 21.7907 299.94 21.7399 301.996 21.6891C304.129 21.5875 306.287 21.6129 306.44 21.0035C306.592 20.4449 304.434 20.191 302.276 20.2672H302.301Z" fill="#BEE0CB"/>
<path d="M156.309 39.5391C158.314 38.3457 160.066 37.2793 159.812 36.7968C159.635 36.4921 158.34 36.873 156.766 37.7617C154.836 38.9043 152.932 40.0723 153.312 40.5293C153.541 40.8086 154.633 40.4786 156.283 39.5137L156.309 39.5391Z" fill="#BEE0CB"/>
<path d="M315.25 21.1813C315.326 21.4352 316.494 21.5622 317.484 21.4352C318.17 21.359 318.525 21.1305 319.007 20.9782L316.494 20.6989C316.037 20.8512 315.199 21.0035 315.25 21.1813Z" fill="#BEE0CB"/>
<path d="M210.288 15.8238C211.506 15.4429 212.04 15.1128 211.913 14.8589C211.1 15.0112 210.161 15.0874 209.475 15.3413C208.256 15.7984 208.104 16.1031 208.993 16.0523C209.297 16.0523 209.831 15.9253 210.288 15.7984V15.8238Z" fill="#BEE0CB"/>
<path d="M602.106 305.943C602.208 304.801 602.106 303.963 601.827 303.531C601.725 303.684 601.573 303.684 601.547 303.988C601.446 305.08 601.547 305.994 601.852 306.324C601.928 306.426 602.081 306.223 602.106 305.943Z" fill="#BEE0CB"/>
<path d="M599.999 272.452C599.922 272.579 599.821 272.605 599.795 272.884C599.795 273.011 599.922 273.595 599.973 273.976C600.049 273.849 600.151 273.823 600.176 273.544C600.176 273.417 600.049 272.833 599.999 272.452Z" fill="#BEE0CB"/>
<path d="M42.8914 456.767C42.5359 456.767 42.7898 457.376 43.6277 458.417C43.7039 458.519 43.6785 458.163 43.7039 458.011L42.8914 456.767Z" fill="#BEE0CB"/>
<path d="M596.089 259.173C596.012 259.3 595.911 259.351 595.911 259.63C595.911 259.757 596.063 260.341 596.165 260.722C596.241 260.595 596.342 260.544 596.342 260.29C596.342 260.163 596.19 259.579 596.089 259.198V259.173Z" fill="#BEE0CB"/>
<path d="M275.616 2.0871C275.413 2.03632 275.261 1.90936 274.956 1.90936C274.575 1.90936 273.864 1.96015 273.61 2.03632C272.823 2.29023 273.179 2.3918 274.499 2.31562C274.854 2.31562 275.235 2.16327 275.616 2.0871Z" fill="#BEE0CB"/>
<path d="M223.719 11.4057C223.922 11.3041 223.795 11.2279 223.82 11.1518C223.414 11.2279 222.932 11.2787 222.602 11.4057C221.231 11.8881 221.18 12.0405 222.5 11.8119C222.805 11.7612 223.414 11.5326 223.719 11.4057Z" fill="#BEE0CB"/>
<path d="M341.021 23.5934L342.087 23.822L342.595 23.6188C342.239 23.5426 341.681 23.3903 341.554 23.4157C341.275 23.4157 341.198 23.5426 341.021 23.6188V23.5934Z" fill="#BEE0CB"/>
<path d="M131.229 288.594C124.1 288.594 118.777 285.664 115.262 279.804C113.406 276.875 112.479 273.75 112.479 270.429C112.479 268.574 112.771 266.67 113.357 264.717C115.213 258.564 118.338 250.508 122.732 240.547C125.857 233.613 129.227 224.482 132.84 213.154C133.328 210.615 133.914 208.174 134.598 205.83C135.281 203.584 136.404 200.361 137.967 196.162C140.896 188.838 145.145 183.174 150.711 179.17C159.109 173.701 166.824 170.625 173.855 169.941C182.742 168.965 189.334 168.476 193.631 168.476C194.705 168.476 196.121 168.574 197.879 168.769C201.688 169.16 203.592 171.601 203.592 176.094C203.592 178.437 203.104 181.269 202.127 184.59C200.369 190.742 196.609 198.994 190.848 209.345C188.406 213.838 185.184 220.527 181.18 229.414C164.773 268.867 148.123 288.594 131.229 288.594ZM143.24 412.812C139.822 412.812 138.113 411.543 138.113 409.004C138.113 408.222 138.26 407.344 138.553 406.367C139.92 401.484 143.338 395.869 148.807 389.521C155.252 381.904 159.793 377.07 162.43 375.019C175.223 361.933 186.502 349.531 196.268 337.812C203.006 329.609 209.988 321.601 217.215 313.789C224.539 305.976 232.449 298.896 240.945 292.549C245.242 289.619 250.174 286.543 255.74 283.32C263.357 279.023 270.682 274.287 277.713 269.111C286.404 262.763 291.775 255.928 293.826 248.603C294.314 247.041 294.559 245.674 294.559 244.502C294.559 242.744 294.021 241.523 292.947 240.84C291.678 240.156 290.115 239.814 288.26 239.814C281.912 239.814 269.607 244.648 251.346 254.316C251.053 254.512 250.76 254.609 250.467 254.609C249.783 254.609 246.902 252.021 241.824 246.845C236.746 241.767 234.207 236.592 234.207 231.318C234.207 229.756 234.451 228.193 234.939 226.631C237.771 218.72 243.094 211.885 250.906 206.123C257.547 201.142 264.432 197.383 271.561 194.844C284.158 190.156 297.342 187.812 311.111 187.812C335.916 187.812 351.639 192.304 358.279 201.289C360.33 204.707 361.355 208.808 361.355 213.594C361.355 217.304 360.721 221.455 359.451 226.045C357.4 233.076 354.08 240.4 349.49 248.017C344.998 255.635 340.164 262.275 334.988 267.939C325.516 277.9 312.088 289.326 294.705 302.217C276.541 315.986 262.82 326.924 253.543 335.029C245.438 342.158 238.748 349.629 233.475 357.441C236.6 356.953 239.676 356.416 242.703 355.83C249.344 354.365 255.74 353.535 261.893 353.34C268.143 353.144 274.441 352.119 280.789 350.263L281.668 350.117C282.84 350.117 283.523 350.801 283.719 352.168C283.621 356.367 282.84 361.103 281.375 366.377C278.055 377.9 273.416 387.715 267.459 395.82C265.408 398.945 263.357 400.508 261.307 400.508C260.135 400.508 257.742 399.58 254.129 397.724C247.586 394.599 241.189 392.939 234.939 392.744C224.197 392.842 213.455 394.209 202.713 396.845C191.971 399.385 181.18 402.363 170.34 405.781L155.252 410.322C149.783 411.982 145.779 412.812 143.24 412.812ZM360.037 412.812C357.986 412.812 354.568 412.715 349.783 412.519C344.998 412.324 340.359 410.371 335.867 406.66C332.449 403.242 330.447 398.994 329.861 393.916C329.666 391.963 329.568 389.863 329.568 387.617C329.568 384.004 329.812 379.951 330.301 375.459C330.887 363.545 332.205 354.072 334.256 347.041C335.33 343.428 336.99 339.472 339.236 335.176C341.482 330.879 345.389 327.9 350.955 326.24C352.615 325.849 354.08 325.654 355.35 325.654C358.182 325.654 360.623 326.582 362.674 328.437C364.725 330.293 366.531 332.978 368.094 336.494C369.754 339.912 372 342.695 374.832 344.844C379.422 347.48 383.914 348.799 388.309 348.799C392.117 348.799 395.877 347.871 399.588 346.015C406.912 342.304 411.941 335.762 414.676 326.387C416.238 320.82 417.02 312.617 417.02 301.777C416.824 293.965 414.822 287.666 411.014 282.881C406.229 278.095 399.1 274.824 389.627 273.066C385.721 272.383 381.912 272.041 378.201 272.041C372.928 272.041 368.875 272.529 366.043 273.506C363.309 274.482 361.6 274.97 360.916 274.97C359.354 274.678 358.572 274.043 358.572 273.066C358.572 272.383 358.963 271.65 359.744 270.869C367.947 262.373 376.395 250.752 385.086 236.006L394.461 221.211C403.25 207.929 411.111 199.336 418.045 195.429C422.635 193.379 427.225 192.109 431.814 191.621C435.721 191.23 440.018 191.035 444.705 191.035C452.713 191.035 459.305 190.547 464.48 189.57C470.242 188.398 474.832 187.812 478.25 187.812C481.863 187.812 484.793 188.545 487.039 190.01C491.141 193.428 493.191 199.678 493.191 208.76C493.191 212.275 492.703 215.693 491.727 219.013C491.238 220.674 490.164 223.457 488.504 227.363C486.844 231.269 482.693 234.004 476.053 235.566C473.025 235.957 469.949 236.152 466.824 236.152L455.545 235.859L449.832 236.006C446.707 236.006 443.191 236.445 439.285 237.324C435.477 238.105 432.547 240.254 430.496 243.769C429.422 245.722 428.885 247.334 428.885 248.603C428.885 248.799 428.885 249.189 428.885 249.775C428.885 250.263 429.959 250.801 432.107 251.387C437.479 252.656 442.312 254.414 446.609 256.66C451.004 258.906 454.568 262.275 457.303 266.767C459.842 271.845 461.111 277.705 461.111 284.345L460.965 291.523C460.867 293.672 459.988 300.849 458.328 313.056C455.301 336.299 443.875 359.98 424.051 384.101C417.801 391.621 410.721 397.822 402.811 402.705C392.166 409.443 377.908 412.812 360.037 412.812Z" fill="#131313"/>
</g>
<defs>
<clipPath id="clip0_2_4643">
<rect width="625" height="628" fill="white" transform="translate(0.845581 0.18277)"/>
</clipPath>
</defs>
</svg>
