<svg width="1705" height="643" viewBox="0 0 1705 643" fill="none" xmlns="http://www.w3.org/2000/svg">
<g clip-path="url(#clip0_2_4032)">
<path d="M1441.17 1.52652L1701.24 584.143L10.8425 637.114L381.676 203.747L1441.17 1.52652Z" fill="#E795C0"/>
<path d="M885.418 107.658C881.952 107.163 877.873 107.045 882.212 105.159C885.89 103.58 877.378 104.24 868.206 106.267C838.357 112.892 807.965 117.866 778.021 123.854C754.443 128.569 730.063 133.283 706.721 137.409C697.266 139.083 685.147 141.535 678.168 142.407C666.049 143.963 657.915 147.687 649.427 148.065C638.18 148.56 635.563 151.129 626.768 152.685C613.07 155.09 597.461 158.885 586.45 159.569C566.715 164.802 544.458 167.325 522.601 172.134C495.51 178.098 464.93 183.638 436.683 188.99C417.562 192.549 398.699 196.038 379.318 199.645C375.428 204.172 371.49 208.769 367.482 213.436C363.851 217.703 360.173 222.041 356.471 226.402C330.111 257.662 302.148 288.544 275.788 320.935C269.162 329.068 258.882 341.091 253.601 346.443C243.297 356.91 235.705 366.693 227.476 376.783C221.936 383.572 216.536 390.15 210.689 397.128C186.592 425.912 160.326 455.097 138.163 483.527C135.971 486.333 133.401 489.185 131.113 491.472C114.467 508.139 98.9296 528.837 82.8023 547.438C81.0104 549.512 74.7386 557.763 79.2892 552.812C90.5359 540.601 80.3502 555.241 91.0546 543.359C100.439 532.939 109.634 522.307 116.849 512.406C124.865 501.42 137.126 487.582 147.17 475.253C153.017 468.086 168.319 447.954 168.602 452.15C168.65 452.692 173.907 446.492 177.255 442.343C188.903 427.939 206.351 407.736 218.823 394.016C227.524 384.445 233.394 376.854 237.025 371.078C238.935 368.013 235.139 371.078 242.849 361.695C246.905 357.381 252.728 350.851 255.935 347.857C260.415 343.661 262.513 342.812 270.883 332.864C278.263 324.071 288.567 312.118 292.009 307.191C301.7 293.235 315.233 278.36 327.989 263.437L329.144 261.834L328.413 263.037C328.366 263.791 329.663 263.437 332.375 260.113C343.833 246.087 355.528 233.545 366.775 220.202C369.109 217.467 371.514 214.686 373.919 211.857C376.395 209.004 378.894 206.128 381.393 203.252C384.623 202.639 387.83 202.05 391.013 201.46C394.102 200.848 397.167 200.235 400.138 199.622C406.079 198.372 411.714 197.005 416.76 195.52C436.872 192.573 461.77 185.736 479.972 184.369C518.64 176.92 558.982 170.389 594.797 161.384C603.191 159.286 613.588 156.481 620.049 156.433C626.085 156.41 629.834 156.622 646.102 153.487C660.273 150.752 674.066 148.182 685.454 145.071C696.559 142.053 709.079 139.271 723.744 137.126L725.725 136.584L724.381 137.055C723.98 137.739 725.725 138.046 732.845 136.725C751.118 133.378 770.735 130.195 787.004 125.999C796.694 123.5 806.126 122.227 815.392 120.27C817.915 119.54 820.013 118.832 823.078 118.078C825.601 117.465 827.935 117.277 825.837 117.889C823.432 118.573 819.424 119.422 816.099 120.2C837.319 118.196 861.251 111.949 885.465 107.682L885.418 107.658ZM221.841 387.981C221.252 388.688 220.214 389.867 219.79 390.291C218.116 391.894 218.423 391.305 220.497 388.9C221.063 388.24 221.676 387.721 222.266 387.108C222.124 387.391 222.171 387.58 221.841 387.981ZM357.579 227.817L356.212 229.137L357.957 227.298L359.041 226.355L357.603 227.793L357.579 227.817ZM504.423 178.664C501.806 179.23 499.99 179.324 501.806 178.806C504.069 178.169 507.276 177.391 510.411 176.707C511.897 176.377 514.137 176.094 517.744 175.529C512.51 176.778 508.667 177.745 504.423 178.664Z" fill="#E795C0"/>
<path d="M1404.82 5.03908C1403.54 5.86418 1407.34 6.00562 1395.13 8.29234C1384.02 10.3669 1372.92 12.4178 1361.81 14.4924C1343.84 17.8871 1351.95 15.1996 1351.32 14.5631C1354.17 13.903 1354.6 13.7144 1352.52 14.0916C1352.1 14.1623 1351.44 14.4452 1350.89 14.6103C1348.82 14.9639 1346.77 15.3175 1344.69 15.6711C1313.1 20.0088 1305.93 21.3054 1273.96 28.4248C1293.69 26.6096 1319.18 20.5038 1341.77 16.5669C1329.53 19.773 1314.18 23.3799 1300.18 25.7609C1276.43 29.7921 1252.62 34.6249 1229.61 38.6325C1214.75 41.2257 1201.29 44.809 1189.31 46.5063C1163.05 50.2075 1138.01 55.9361 1112.33 61.0046C1105.19 62.419 1093.68 65.1772 1091.98 64.1399C1100.24 61.6175 1109.5 59.3779 1124.45 56.714C1147.7 52.5649 1171.37 48.0387 1194.85 43.701C1201.36 42.4987 1208.88 41.1078 1209.07 40.3299C1209.26 39.5283 1200.87 41.1314 1194.88 42.263C1172.06 46.5771 1149.09 51.1269 1126.41 55.2524C1057.44 67.8647 988.501 80.7834 919.465 94.1265C915.669 94.8573 911.778 95.6117 908.053 96.3189C902.206 97.5212 894.284 98.9828 895.25 99.6193C895.91 100.044 901.97 98.9593 906.827 98.0634C916.966 96.1539 927.128 94.2444 937.266 92.3349C981.545 83.9424 1025.8 75.5499 1070.08 67.181C1078.88 65.5073 1084.63 64.6586 1088.42 64.6114C1075.06 67.4404 1062.51 71.448 1047.59 72.5324C1046.62 72.6031 1040.47 73.9704 1036.93 74.7484C1019.55 78.5674 1002.11 81.5614 984.446 84.8854C961.033 89.2938 938.162 92.712 914.537 97.8277C904.681 99.9494 892.562 102.425 894.519 103.25C896.453 104.075 898.245 105.23 917.531 101.552C949.291 95.4938 980.013 90.4961 1012.15 84.3196C1040.04 78.9682 1069.61 71.5894 1096.53 68.6662C1130.09 61.4525 1163.61 56.0304 1197.19 49.6417C1236.42 42.1687 1275.7 34.3184 1315.01 27.4583C1322.72 26.1145 1333.82 24.1814 1340.09 22.2719C1358.3 16.7084 1378.81 13.2901 1400.22 10.3433C1405.17 9.65965 1410 8.76382 1414.2 7.63225C1425.05 4.73261 1435.7 1.73867 1432.73 0.960716C1430.02 0.253486 1416.72 2.70522 1404.77 5.03908H1404.82ZM960.726 91.8634L958.934 92.0284L961.268 91.6983L962.754 91.6276L960.726 91.8398V91.8634ZM1098 66.073L1098.35 65.8609L1100.38 65.578L1098 66.073ZM1293.43 29.7921L1294.64 29.3678L1295.2 29.4857L1293.46 29.7921H1293.43ZM1413.21 6.21779L1410.73 6.80715L1412.79 6.24137C1413.23 5.95848 1413.54 5.69916 1414.22 5.36912C1414.39 5.29839 1416.32 4.87406 1416.32 4.87406C1418.47 4.82691 1414.95 5.65201 1413.23 6.19422L1413.21 6.21779Z" fill="#E795C0"/>
<path d="M1661.91 488.643C1658.63 482.655 1657.6 484.494 1650.5 465.682C1647.13 456.771 1640.29 441.117 1632.77 426.643C1628.29 418.038 1617.56 396.491 1613.58 382.771C1612.3 378.362 1609.61 373.294 1606.83 367.589C1593.82 340.832 1581.44 312.967 1569.58 284.819L1573.49 292.316C1571.87 287.413 1570.22 284.607 1568.56 281.778C1563.73 270.463 1559.32 259.241 1553.57 247.737C1548.36 237.341 1542.3 226.096 1542.3 220.956C1542.3 220.344 1539.85 214.874 1538.13 211.55C1535.44 206.293 1534.49 206.175 1532.63 202.451C1529.5 196.18 1531.57 197.406 1527.37 188.471C1519.71 172.205 1511.25 155.703 1505.75 139.531C1493 112.68 1481.3 85.8519 1469.35 58.1049C1462.16 41.4143 1453.58 23.6864 1445.61 6.42996C1444.97 4.52044 1444.36 3.12956 1444.03 2.89381C1443.93 2.79951 1444.31 3.88393 1444.47 4.42614C1439.43 -1.56174 1439.81 0.795696 1447.61 19.3723C1451.43 28.472 1455.79 38.2318 1459.99 47.6143C1483.07 98.9828 1506.15 150.328 1529.24 201.696C1554.04 257.355 1578.8 312.991 1603.65 368.744C1620.77 406.534 1637.67 443.899 1654.67 481.477C1661.89 497.531 1663.35 499.181 1663.89 497.601C1664.2 496.729 1665.52 497.837 1661.86 488.714L1661.91 488.643Z" fill="#E795C0"/>
<path d="M49.6046 589.73C50.6892 590.249 55.8763 585.039 63.657 575.397C75.2809 561.04 63.9164 572.049 67.123 566.816C69.6694 562.643 63.0912 569.88 57.6918 576.01C49.2981 585.534 41.0694 595.623 32.7699 605.548C28.6202 610.522 24.4469 615.449 20.2501 620.259C17.2321 623.677 14.2141 627.095 11.2433 630.466C7.75377 634.309 4.28782 638.128 0.869019 641.9C1.317 641.9 1.7414 641.9 2.1658 641.9C3.95773 641.9 13.5775 641.311 17.6329 640.957C29.1625 640.061 34.5619 639.825 42.767 639.684C91.9505 638.93 140.474 635.959 189.54 634.804C200.032 634.568 204.064 633.484 212.151 632.918L218.163 633.507C224.176 632.871 219.554 632.729 216.065 632.541C222.784 631.362 226.345 629.995 211.467 630.207C188.573 630.537 162.307 630.726 144.836 633.531C148.608 634.238 159.737 633.649 166.15 633.955C155.988 634.592 145.708 634.993 138.022 634.545C131.75 634.191 140.639 633.837 143.798 633.507C146.557 632.187 140.356 631.244 126.634 632.282C101.783 634.191 65.7555 634.073 50.9721 638.057C48.2371 636.596 46.6338 635.841 42.4605 635.582C40.362 635.464 37.6034 635.464 33.7602 635.582C31.8504 635.653 29.6577 635.723 27.1584 635.818C24.8242 635.912 22.207 636.03 19.2126 636.171L12.1864 636.478C15.3459 632.659 18.5289 628.84 21.6412 625.044C24.9892 620.942 28.3137 616.888 31.5439 612.927C37.9807 604.959 43.9459 597.321 49.0151 590.343L50.9485 587.231C53.9429 584.308 50.3827 588.551 49.6753 589.683L49.6046 589.73Z" fill="#E795C0"/>
<path d="M1235.06 45.4455C1224.28 47.0721 1213.22 49.4767 1202.07 51.2212C1169.96 56.2661 1167.22 56.9734 1146.1 64.2814C1163.26 61.2403 1179.81 59.1186 1192.83 54.7574C1197.47 53.2015 1201.98 52.73 1203.34 52.9421C1207.85 53.6258 1222.25 50.0661 1231.75 48.5809C1240.97 47.1429 1250.33 45.3041 1252.88 43.8189C1256.04 41.9801 1244.56 44.031 1235.08 45.4455H1235.06Z" fill="#E795C0"/>
<path d="M413.388 620.4C422.372 620.141 431.449 619.858 440.385 619.504C459.766 618.703 479.1 617.901 497.444 617.123C504.588 617.383 510.883 617.053 517.178 616.699C523.144 616.345 531.066 616.11 531.49 615.355C531.962 614.507 524.959 614.365 516.801 614.53C509.138 614.672 500.886 614.813 493.577 615.214C468.018 616.558 442.908 618.066 416.029 618.726C414.85 618.75 413.105 618.844 412.54 618.938C410.37 619.269 407.541 619.622 406.881 619.952C406.079 620.329 409.427 620.542 413.436 620.424L413.388 620.4Z" fill="#E795C0"/>
<path d="M941.652 603.639C954.643 602.932 966.809 602.884 979.471 602.554C1010.45 601.753 1041.62 600.668 1072.72 599.678C1054.31 597.674 1031.11 599.16 1009.23 600.079C986.12 601.069 963.485 601.564 940.614 602.059C936.276 602.154 925.784 602.436 927.222 603.262C928.236 603.827 934.79 604.016 941.652 603.639Z" fill="#E795C0"/>
<path d="M1135.7 63.362C1120.56 66.7803 1106.15 69.9628 1091.14 71.8488C1076.16 76.2807 1061.45 77.7423 1046.67 80.2412C1043.23 80.5713 1039.36 81.0192 1034.17 82.08C1029.22 83.0937 1024.86 84.2017 1024.41 84.7439C1024.17 85.0504 1025.97 85.1447 1028.25 84.8147C1033.39 84.0839 1037 82.9994 1040.35 82.0565C1042 81.6085 1043.79 81.1135 1045.51 80.6184C1043.7 82.9523 1060.96 80.7363 1075.76 77.6481C1096.87 73.2397 1124.14 69.3263 1139.4 64.0692C1140.65 63.6449 1143.12 63.0084 1143.55 62.7255C1144.7 61.9711 1140.74 62.2069 1135.67 63.3384L1135.7 63.362Z" fill="#E795C0"/>
<path d="M1098.28 598.712C1126.03 598.311 1154.4 597.085 1181.58 596.095C1203.3 595.317 1226.5 595.435 1247.17 593.926C1247.88 593.148 1243.97 593.054 1238.33 593.172C1191.15 594.091 1143.5 596.354 1096.3 597.227C1090.73 597.321 1087.1 597.887 1087.46 598.382C1087.86 598.947 1093.07 598.782 1098.3 598.712H1098.28Z" fill="#E795C0"/>
<path d="M633.818 612.267C639.996 612.55 647.682 612.621 655.227 612.173C678.451 610.829 700.19 610.711 722.943 610.334C738.622 610.075 755.858 609.084 772.103 608.283C778.304 607.976 782.925 607.246 780.544 606.703C778.587 606.255 772.739 606.491 767.434 606.774C745.719 607.882 722.589 608.589 702.194 608.849C676.824 609.179 656.783 610.216 636.412 611.937C635.799 611.748 635.445 611.348 634.526 611.371C612.575 611.795 590.553 612.149 568.531 612.809C555.398 613.21 546.439 614.365 543.468 615.78C575.746 615.284 604.063 613.021 633.889 612.22L633.818 612.267Z" fill="#E795C0"/>
<path d="M942.548 102.26C993.641 93.9851 1011.18 90.2603 1014.06 86.3706C993.476 92.8064 960.184 96.2718 942.548 102.26Z" fill="#E795C0"/>
<path d="M178.175 627.472C187.418 627.001 198.028 626.812 195.788 625.822C193.43 624.785 181.688 625.634 173.577 626.011C168.767 626.247 164.405 626.671 159.855 627.001L157.757 627.213L159.501 626.977C141.134 626.647 133.259 628.274 120.103 629.264C142.289 630.348 159.525 628.368 178.175 627.449V627.472Z" fill="#E795C0"/>
<path d="M902.347 107.045C885.56 111.029 872.356 113.882 861.534 117.394C877.614 114.66 890.063 112.538 910.269 109.073C898.928 109.945 899.872 108.837 902.347 107.045Z" fill="#E795C0"/>
<path d="M796.506 607.741C815.132 607.67 830.718 606.774 843.473 604.935C824.658 604.723 808.248 605.336 793.842 606.986C790.776 607.34 792.993 607.764 796.53 607.741H796.506Z" fill="#E795C0"/>
<path d="M735.699 129.252C708.23 133.826 685.36 138.611 663.008 143.515C697.274 137.48 721.505 132.726 735.699 129.252Z" fill="#E795C0"/>
<path d="M384.317 205.68C383.822 205.798 383.327 205.892 382.973 205.963C381.865 207.331 380.898 208.533 380.026 209.617C379.012 210.89 378.163 211.998 377.432 212.988C375.97 214.969 375.027 216.383 374.508 217.397C373.471 219.448 374.06 219.848 375.334 219.731C376.725 217.798 378.352 215.652 380.073 213.46C380.945 212.375 381.818 211.267 382.713 210.159L383.374 209.334L383.704 208.934L383.822 208.792L384.27 208.203L384.788 208.061C385.024 207.991 384.953 207.991 385.59 207.873C386.557 207.661 387.5 207.448 388.419 207.236C390.235 206.812 391.885 206.435 393.276 206.058C396.059 205.303 397.803 204.643 397.78 204.077C397.78 203.724 395.776 203.865 393.064 204.219C391.72 204.407 390.188 204.643 388.655 204.902C387.877 205.044 387.099 205.185 386.344 205.303C385.661 205.445 384.977 205.562 384.317 205.704V205.68Z" fill="#E795C0"/>
<path d="M22.0184 633.39C23.6924 633.39 25.3665 633.366 26.9226 633.295C28.1015 633.248 29.2333 633.201 30.3178 633.154C31.5911 633.083 32.8171 633.012 33.996 632.942C38.6409 632.612 42.2011 632.14 44.2996 631.48C57.5032 630.773 78.3697 631.386 81.7884 628.793C65.9441 629.17 51.3022 629.618 41.6824 631.291C38.523 631.362 35.3164 631.456 32.2277 631.527C30.6951 631.527 29.1861 631.551 27.7243 631.574C27.2056 631.551 26.8047 631.48 26.4511 631.409C25.3429 631.15 25.2486 630.749 23.8811 630.938C23.9518 630.796 24.0225 630.679 24.0461 630.513C24.164 629.924 23.4095 630.042 22.4192 630.513C21.594 630.891 20.4387 631.81 18.9061 633.342C19.5899 633.413 20.698 633.46 22.042 633.46L22.0184 633.39Z" fill="#E795C0"/>
<path d="M620.332 161.101C611.042 162.94 598.357 165.486 599.63 166.429C600.55 167.113 611.466 164.708 618.115 163.553C625.071 162.162 634.927 160.559 634.927 159.569C634.927 158.838 628.608 159.451 620.332 161.101Z" fill="#E795C0"/>
<path d="M330.512 270.368C343.433 255.823 350.765 246.37 356.848 236.303C343.126 252.617 331.785 265.701 330.512 270.368Z" fill="#E795C0"/>
<path d="M677.06 150.729C674.396 151.389 670.223 152.19 666.709 152.874C659.99 154.17 653.435 155.514 654.968 156.009C656.029 156.339 662.088 155.16 668.949 153.887C671.967 153.275 676.966 152.284 681.823 151.294C690.311 149.526 696.064 147.994 692.103 147.947C688.519 147.9 682.672 149.314 677.037 150.729H677.06Z" fill="#E795C0"/>
<path d="M243.816 370.394C238.582 376.594 233.701 382.299 232.098 385.788C238.417 379.376 243.132 373.247 247.659 367.801C254.167 359.974 262.867 349.177 258.198 353.02C253.506 356.886 248.956 364.336 243.839 370.394H243.816Z" fill="#E795C0"/>
<path d="M62.5253 583.671C60.3561 585.675 55.9706 590.791 55.0746 592.7C54.1551 594.657 55.9235 593.431 60.9691 587.75C68.3726 579.404 75.6818 570.965 77.9452 566.603C73.6305 569.833 67.3116 579.239 62.5488 583.671H62.5253Z" fill="#E795C0"/>
<path d="M798.935 118.432C803.556 117.748 809.144 116.357 809.945 115.697C810.865 114.966 805.159 115.862 800.42 116.734C788.348 118.95 776.253 121.261 761.823 124.773C776.559 122.958 788.466 119.988 798.935 118.432Z" fill="#E795C0"/>
<path d="M494.897 626.883C519.371 625.846 537.597 625.917 553.512 624.125C536.206 624.809 517.273 624.125 494.897 626.883Z" fill="#E795C0"/>
<path d="M34.8212 614.554C30.0113 620.282 28.4316 622.875 28.6438 623.583C28.856 624.054 29.7755 623.842 33.4301 619.646C40.7864 611.23 39.9612 610.876 40.3385 609.485C40.6214 608.471 39.4425 609.037 34.8212 614.53V614.554Z" fill="#E795C0"/>
<path d="M289.533 624.644C293.966 624.313 297.55 623.866 301.511 623.465C303.987 623.418 306.462 623.37 308.938 623.323C315.941 623.111 321.104 622.71 321.977 622.05C322.212 621.862 320.633 621.626 318.912 621.602C312.098 621.485 307.264 621.98 302.996 622.545C301.346 622.758 300.026 622.993 298.564 623.205C296.395 623.158 294.202 623.111 292.033 623.064C287.081 622.946 282.389 622.498 276.33 623.347C273.288 623.771 270.53 624.313 273.359 624.667C276.872 625.091 282.837 625.139 289.533 624.644Z" fill="#E795C0"/>
<path d="M465.637 181.587C470.612 180.574 474.974 179.536 473.677 179.159C469.056 179.395 461.77 180.762 454.414 182.318C449.51 183.355 444.134 184.746 446.28 184.793C449.911 184.864 458.564 183.025 465.637 181.587Z" fill="#E795C0"/>
<path d="M722.165 143.42C718.534 144.693 726.597 143.609 733.128 142.124C738.316 140.945 741.782 139.719 746.026 138.517C756.651 137.464 767.607 135.099 778.893 131.421C768.024 133.684 758.64 135.617 749.279 137.574C734.543 138.8 727.423 141.605 722.188 143.42H722.165Z" fill="#E795C0"/>
<path d="M191.52 416.671C200.574 407.099 208.968 396.255 217.574 386C219.625 383.572 221.181 381.215 222.949 378.834L215.546 387.391L205.667 398.801C193.548 412.757 185.696 422.8 191.497 416.671H191.52Z" fill="#E795C0"/>
<path d="M364.299 620.636C364.936 620.542 364.912 620.4 365.549 620.141C353.029 620.141 344.376 620.848 337.845 621.932C335.652 622.286 337.09 622.616 341.051 622.592C353.194 622.475 358.876 621.555 364.299 620.636Z" fill="#E795C0"/>
<path d="M892.633 604.77C899.188 604.487 906.45 604.11 904.398 603.45C903.22 603.073 896.665 603.167 891.313 603.356C884.758 603.592 878.675 603.875 874.337 604.865C879.854 605.265 886.243 605.053 892.633 604.77Z" fill="#E795C0"/>
<path d="M562.165 162.751C547.547 164.614 537.22 166.57 521.8 170.083C535.97 168.456 546.391 166.382 562.165 162.751Z" fill="#E795C0"/>
<path d="M330.536 254.22C333.601 250.589 337.114 246.37 336.336 246.346C335.628 246.346 332.422 249.929 329.427 253.348C325.608 257.78 322.26 261.905 322.118 262.777C321.882 264.192 326.433 259.029 330.512 254.196L330.536 254.22Z" fill="#E795C0"/>
<path d="M304.93 284.136C308.16 280.293 311.885 275.932 311.39 275.578C310.919 275.272 307.5 279.02 304.01 283.098C300.662 287.012 297.126 291.302 297.503 291.727C297.88 292.151 301.488 288.096 304.906 284.136H304.93Z" fill="#E795C0"/>
<path d="M279.112 314.382C282.083 310.916 286.28 305.895 284.841 306.626C283.333 307.38 279.065 312.213 274.797 317.258C271.237 321.43 267.771 325.815 267.983 326.263C268.502 327.3 274.868 319.356 279.136 314.382H279.112Z" fill="#E795C0"/>
<path d="M809.097 125.292C800.043 126.918 800.844 127.531 799.335 128.309C798.062 128.969 797.072 129.629 803.957 128.498C811.502 126.989 813.694 126.046 814.897 125.245C815.887 124.608 814.967 124.231 809.097 125.292Z" fill="#E795C0"/>
<path d="M162.26 466.436C158.912 470.232 155.917 473.862 154.833 475.866C155.163 476.337 158.181 473.108 161.529 469.359C165.136 465.328 168.249 461.438 168.697 460.165C169.215 458.704 165.537 462.711 162.26 466.413V466.436Z" fill="#E795C0"/>
<path d="M947.782 99.36C946.697 98.9828 942.241 99.6665 937.29 100.562C932.268 101.482 927.269 102.519 927.246 103.085C927.198 103.674 932.668 102.708 937.408 101.835C942.076 100.987 947.075 100.02 947.758 99.3364L947.782 99.36Z" fill="#E795C0"/>
<path d="M1360.11 23.0027C1353.86 24.1579 1351.13 25.1008 1350.71 25.6431C1350.16 26.3267 1354.81 25.6195 1360.44 24.5351C1365.82 23.4271 1370.58 22.2955 1370.58 21.7533C1370.58 21.2111 1365.35 22.0126 1360.14 22.9792L1360.11 23.0027Z" fill="#E795C0"/>
<path d="M172.068 636.784C166.716 636.949 161.435 637.232 159.454 637.727C157.049 638.34 161.6 638.458 167.046 638.34C172.21 638.222 177.986 637.939 179.802 637.444C181.83 636.879 177.468 636.737 172.068 636.784Z" fill="#E795C0"/>
<path d="M692.339 619.033C686.397 619.245 678.05 619.457 680.149 620.235C681.281 620.636 687.529 620.636 692.81 620.329C698.658 619.999 705.259 619.646 706.533 618.938C702.642 618.679 697.361 618.844 692.362 619.033H692.339Z" fill="#E795C0"/>
<path d="M379.389 621.579C384.482 621.131 390.777 620.636 389.622 619.999C389.032 619.669 384.718 619.504 381.346 619.764C375.381 620.211 373.495 620.848 371.915 621.39C372.481 621.838 375.428 621.932 379.389 621.579Z" fill="#E795C0"/>
<path d="M218.446 626.647C225.826 626.459 228.702 625.869 229.174 625.304C229.457 624.974 227.264 624.785 224.01 624.856C217.102 625.115 214.391 625.563 214.461 626.011C214.509 626.27 216.866 626.694 218.422 626.647H218.446Z" fill="#E795C0"/>
<path d="M54.2966 641.098C50.4769 641.287 47.2232 641.593 48.8501 641.994C53.9193 642.442 60.026 641.994 65.8733 641.593C69.4336 641.358 74.1963 640.98 71.5792 640.698C67.1701 640.226 60.1439 640.792 54.2966 641.098Z" fill="#E795C0"/>
<path d="M42.4369 592.229C44.3231 590.06 45.2427 588.504 43.828 589.848C40.3385 593.172 36.4717 596.92 31.0959 603.615C30.0585 604.912 29.917 605.548 29.3276 606.538C32.5106 603.969 37.8864 597.415 42.4369 592.229Z" fill="#E795C0"/>
<path d="M358.358 630.348C354.538 630.443 351.874 630.749 351.166 631.126C351.166 631.504 353.406 631.692 357.367 631.574C360.48 631.456 365.596 631.15 366.115 630.938C367.506 630.419 363.828 630.207 358.358 630.348Z" fill="#E795C0"/>
<path d="M105.414 629.83C112.793 629.57 114.373 628.981 116.33 628.439C117.981 627.967 114.915 627.873 110.931 628.015C103.975 628.274 100.344 628.792 99.189 629.382C98.458 629.759 100.698 629.924 105.437 629.83H105.414Z" fill="#E795C0"/>
<path d="M248.602 634.144C245.278 634.309 241.458 634.663 239.784 634.969C237.969 635.299 239.313 635.676 244.099 635.535C249.31 635.37 253.954 635.016 256.312 634.474C255.982 634.05 252.54 633.955 248.602 634.144Z" fill="#E795C0"/>
<path d="M1248.66 33.4226C1252.27 32.7389 1255.99 31.7724 1253.28 31.9138C1251.63 32.0081 1247.69 32.6446 1245.55 32.9275C1240.34 34.0591 1237.6 34.8606 1239.51 34.8135C1240.86 34.7663 1245.52 34.0119 1248.68 33.4226H1248.66Z" fill="#E795C0"/>
<path d="M391.107 195.708C395.351 194.813 398.228 194.058 397.285 193.822C396.884 193.728 394.219 194.035 392.263 194.365C388.136 195.072 384.93 195.921 384.317 196.392C383.586 196.934 386.863 196.486 391.107 195.685V195.708Z" fill="#E795C0"/>
<path d="M834.466 111.289C837.956 110.534 841.304 109.733 840.903 109.403C839.3 109.356 835.834 109.803 832.203 110.605C828.996 111.312 824.351 112.467 824.139 112.727C823.526 113.505 829.279 112.397 834.466 111.289Z" fill="#E795C0"/>
<path d="M152.734 462.122C154.102 459.953 152.263 461.698 149.41 464.951C146.793 467.945 144.742 470.562 144.034 471.952C144.836 471.316 145.355 471.127 146.486 469.925C149.198 467.002 151.603 463.937 152.734 462.146V462.122Z" fill="#E795C0"/>
<path d="M1308.08 32.3146C1293.41 34.4363 1278.84 36.4873 1261.58 39.8584C1259.58 40.0234 1258.07 40.3063 1257.74 40.5656C1257.64 40.6363 1258.92 40.4949 1259.55 40.4477C1259.62 40.8957 1259.15 41.4379 1259.88 41.7443C1263.07 43.0645 1279.33 40.6363 1296.03 36.3458C1301.26 35.0021 1292.49 35.5207 1305.62 33.069C1308.08 33.3283 1312.3 33.069 1321.21 31.4895L1325.83 30.7587L1323.97 30.7115C1323.87 29.7921 1323.14 29.0378 1308.05 32.3146H1308.08Z" fill="#E795C0"/>
<path d="M182.325 443.121C181.287 444.536 179.354 446.964 179.377 447.152C179.472 447.624 181.499 445.644 184.235 442.532C187.017 439.349 188.927 436.803 188.101 437.157C187.347 437.487 184.989 440.009 182.325 443.145V443.121Z" fill="#E795C0"/>
<path d="M909.845 612.22C910.765 612.385 911.236 612.644 912.745 612.644C914.301 612.644 918.05 612.408 918.852 612.267C920.785 611.89 919.3 611.63 914.914 611.748C913.334 611.795 911.543 612.055 909.845 612.22Z" fill="#E795C0"/>
<path d="M448.85 627.708C450.123 628.227 455.216 627.967 459.577 627.755C461.157 627.661 462.218 627.425 464.199 627.166C460.544 627.189 457.361 627.166 454.155 627.26C452.315 627.307 448.661 627.661 448.826 627.732L448.85 627.708Z" fill="#E795C0"/>
<path d="M122.484 638.694C120.645 638.859 119.042 639 117.368 639.142C118.735 639.236 120.126 639.33 121.588 639.425C122.908 639.189 124.158 639 124.96 638.812C125.101 638.788 122.979 638.67 122.508 638.694H122.484Z" fill="#E795C0"/>
<path d="M170.041 442.131C172.587 439.208 174.662 436.45 174.049 436.615C173.459 436.78 170.889 439.679 168.484 442.508C166.127 445.408 164.311 447.789 165.985 446.398C166.693 445.809 168.673 443.71 170.017 442.155L170.041 442.131Z" fill="#E795C0"/>
<path d="M119.914 500.572C120.386 499.817 119.584 500.218 118.641 501.208C116.189 503.778 113.831 506.701 113.548 507.62C113.43 507.974 115.104 506.347 115.953 505.593C117.344 503.849 119.372 501.444 119.914 500.572Z" fill="#E795C0"/>
<path d="M605.501 154.359C604.653 154.335 604.299 154.123 602.766 154.335C601.304 154.548 597.603 155.349 596.636 155.656C594.373 156.386 595.481 156.504 599.866 155.726C601.587 155.42 603.615 154.83 605.525 154.359H605.501Z" fill="#E795C0"/>
<path d="M582.277 158.767C581.475 158.744 581.169 158.508 579.683 158.72C578.292 158.909 574.661 159.687 573.718 159.993C571.549 160.7 572.539 160.818 576.783 160.064C578.434 159.781 580.438 159.192 582.277 158.744V158.767Z" fill="#E795C0"/>
<path d="M498.245 174.798C497.349 174.774 497.019 174.562 495.44 174.774C493.978 174.986 490.087 175.812 489.191 176.094C486.975 176.825 488.154 176.943 492.516 176.165C494.213 175.859 496.335 175.246 498.245 174.798Z" fill="#E795C0"/>
<path d="M844.982 120.435C843.544 120.742 842.907 121.143 841.941 121.52C842.931 121.685 845.737 121.308 849.344 120.53C850.829 120.2 852.386 119.634 852.221 119.492C851.89 119.186 848.495 119.681 844.982 120.459V120.435Z" fill="#E795C0"/>
<path d="M260.556 624.313C260.698 624.125 258.977 623.842 257.75 623.866C253.176 623.96 251.762 624.337 250.583 624.691C249.616 624.974 250.559 625.115 253.341 625.139C257.939 624.997 260.297 624.667 260.58 624.313H260.556Z" fill="#E795C0"/>
<path d="M500.98 184.841L498.457 185.878L504.918 184.888C507.747 184.228 509.044 183.756 507.205 183.898C505.979 183.992 503.126 184.511 500.98 184.841Z" fill="#E795C0"/>
<path d="M467.358 191.465C465.613 192.007 466.934 191.984 469.669 191.583C471.791 191.088 474.927 190.475 475.728 190.168C476.389 189.933 474.314 190.074 473.441 190.051C471.366 190.522 468.561 191.088 467.358 191.465Z" fill="#E795C0"/>
<path d="M300.874 304.15C298.635 306.932 295.9 310.232 296.253 310.468C296.253 310.468 296.465 310.303 296.748 309.973C297.031 309.667 297.432 309.219 297.88 308.747C298.776 307.781 299.837 306.578 300.592 305.753C303.209 302.618 305.661 299.577 305.071 299.6C304.718 299.624 302.761 301.793 300.874 304.127V304.15Z" fill="#E795C0"/>
<path d="M201.305 418.25C199.018 421.126 197.839 422.894 198.994 422.046C199.513 421.668 201.541 419.5 202.837 418.014C205.242 415.209 207.247 412.616 206.492 412.922C205.855 413.182 203.851 415.256 201.305 418.274V418.25Z" fill="#E795C0"/>
<path d="M350.011 231.07C351.19 229.585 352.817 227.534 353.076 227.039C353.5 226.166 352.157 227.557 350.317 229.726C349.61 230.811 348.832 231.942 348.266 232.862C348.219 232.956 349.728 231.447 350.035 231.07H350.011Z" fill="#E795C0"/>
<path d="M90.5123 535.391C91.644 533.977 92.5871 532.704 93.6246 531.36L90.2765 534.684C88.5082 536.829 87.8716 537.819 88.6968 537.23C88.9797 537.041 90.1586 535.839 90.5123 535.391Z" fill="#E795C0"/>
<path d="M117.863 516.956C116 519.219 115.387 520.162 116.401 519.384C116.754 519.125 117.627 518.229 118.358 517.427C120.362 515.211 121.871 513.278 121.305 513.585C120.904 513.821 119.065 515.777 117.863 516.956Z" fill="#E795C0"/>
<path d="M432.769 197.029C430.53 197.594 430.53 197.806 432.769 197.571C435.009 197.335 437.155 196.887 438.876 196.368C439.961 195.897 439.135 195.873 436.235 196.345C435.198 196.51 433.618 196.816 432.793 197.029H432.769Z" fill="#E795C0"/>
<path d="M546.321 175.364C540.568 176.613 540.45 177.108 539.742 177.674C539.082 177.886 538.304 178.098 537.88 178.263C537.785 178.31 539.129 178.169 539.365 178.098C540.285 177.863 541.063 177.65 541.888 177.438C546.368 176.377 550.588 175.317 550.942 174.751C551.013 174.656 547.523 175.081 546.321 175.34V175.364Z" fill="#E795C0"/>
<path d="M575.817 169.753C575.204 170.036 575.156 170.225 574.897 170.46L580.768 169.258C582.513 168.692 581.947 168.621 578.953 169.117C577.962 169.282 575.982 169.682 575.817 169.777V169.753Z" fill="#E795C0"/>
<path d="M1562.79 590.956C1561.23 591.121 1560.62 591.356 1559.58 591.545C1561.59 591.545 1564.13 591.616 1565.43 591.545C1566.94 591.427 1568.26 591.121 1568.07 590.979C1567.79 590.72 1565.08 590.72 1562.79 590.979V590.956Z" fill="#E795C0"/>
<path d="M1673.44 587.82C1674.31 588.056 1676.39 588.08 1678.72 587.82C1680.25 587.655 1680.84 587.42 1681.86 587.231C1679.97 587.231 1677.4 587.137 1676.36 587.231C1674.81 587.372 1674.36 587.608 1673.44 587.82Z" fill="#E795C0"/>
<path d="M876.789 102.849C877.449 102.495 876.246 102.566 873.158 103.132C871.979 103.344 870.47 103.651 869.597 103.863C866.98 104.523 867.169 104.735 870.305 104.216C872.191 103.91 874.62 103.321 876.789 102.849Z" fill="#E795C0"/>
<path d="M1399.46 16.5905C1398.59 16.7555 1397.63 17.0384 1396.68 17.2506L1399.13 16.9677L1401.94 16.284C1401.11 16.3783 1400.31 16.4255 1399.44 16.5905H1399.46Z" fill="#E795C0"/>
<path d="M1441.06 6.92502L1439.55 7.44365L1442.21 6.94859L1441.06 6.92502Z" fill="#E795C0"/>
<path d="M990.694 91.1797C990.364 91.1326 990.199 90.9911 989.703 91.0854C986.379 91.6748 985.624 91.9341 987.888 91.7691C988.124 91.7691 989.727 91.3683 990.694 91.1797Z" fill="#E795C0"/>
<path d="M285.431 321.289C283.851 323.458 281.941 325.957 280.763 327.725C279.23 330.011 276.849 333.43 281.234 328.762C282.295 327.63 285.289 323.693 286.35 322.114C287.482 320.44 287.364 320.039 287.789 319.073L292.834 312.354C289.133 315.914 287.317 318.601 285.407 321.312L285.431 321.289Z" fill="#E795C0"/>
<path d="M173.766 451.372C173.601 451.608 174.072 451.207 174.261 451.113C174.827 450.429 175.534 449.58 175.888 449.109C176.053 448.873 175.581 449.25 175.393 449.368C174.827 450.052 174.12 450.901 173.766 451.372Z" fill="#E795C0"/>
<path d="M380.403 630.278L381.888 630.466C382.525 630.372 383.609 630.278 383.68 630.207C383.751 630.136 382.808 630.089 382.336 630.018L380.426 630.278H380.403Z" fill="#E795C0"/>
<path d="M639.43 148.112C639.713 147.782 638.487 147.97 635.917 148.63C635.657 148.701 636.318 148.701 636.553 148.725L639.43 148.112Z" fill="#E795C0"/>
<path d="M75.0452 552.647L73.4655 554.392L72.9939 555.288C73.5362 554.698 74.385 553.803 74.5265 553.59C74.8801 553.095 74.9037 552.93 75.0452 552.647Z" fill="#E795C0"/>
<path d="M158.016 463.631C157.521 464.126 157.026 464.574 156.507 465.139C155.988 465.729 155.493 466.436 154.974 467.096L156.46 465.611L158.016 463.607V463.631Z" fill="#E795C0"/>
<path d="M1383.67 596.991C1382.84 596.991 1381.92 597.132 1381.05 597.203C1382.39 597.368 1384.04 597.344 1385.95 597.085C1385.2 597.062 1384.49 596.967 1383.67 596.991Z" fill="#E795C0"/>
<path d="M1449.24 594.916L1451.01 594.633L1448.13 594.68L1449.24 594.916Z" fill="#E795C0"/>
<path d="M790.022 616.51L792.993 616.345L790.399 616.275L790.022 616.51Z" fill="#E795C0"/>
<path d="M204.794 636.077C206.398 636.266 208.26 636.218 210.406 635.936C209.51 635.888 208.661 635.818 207.742 635.841C206.799 635.841 205.785 635.983 204.818 636.077H204.794Z" fill="#E795C0"/>
<path d="M274.396 633.979C275.127 634.026 276.353 633.979 277.367 633.979L278.334 633.72H275.269C274.939 633.814 274.114 633.955 274.396 633.979Z" fill="#E795C0"/>
<path d="M312.97 632.682C313.748 632.729 314.432 632.847 315.351 632.824C318.605 632.777 320.02 632.588 318.888 632.399C318.558 632.352 316.86 632.399 315.799 632.399L312.994 632.682H312.97Z" fill="#E795C0"/>
<path d="M1402.32 5.39268L1404.79 5.03906H1404.82L1402.32 5.39268Z" fill="#E795C0"/>
<path d="M236.837 632.117C243.038 632.706 251.455 633.13 262.419 632.612C297.526 631.009 332.327 629.924 367.836 629.052C380.827 628.745 395.469 627.873 409.734 627.52C438.57 626.765 441.588 626.459 451.137 623.418C457.479 624.078 450.382 625.492 461.464 626.082C527.01 622.805 595.221 621.932 662.206 618.844C668.431 618.561 675.198 618.42 681.516 618.326C714.761 617.76 747.44 615.614 780.85 615.002C791.673 614.813 798.133 613.564 806.55 612.809L808.719 612.573L806.739 612.809L820.862 614.294C820.249 614.412 818.952 614.554 819.212 614.624C819.872 614.789 821.239 614.907 822.3 615.025L824.729 615.072L822.347 615.025C822.701 614.837 823.338 614.648 824.257 614.436C834.16 613.894 844.016 613.186 853.942 612.88C913.146 611.041 972.35 609.202 1031.55 607.363C1065.01 606.373 1098.19 606.562 1131.97 604.252C1139.97 603.709 1149.33 603.544 1156.64 604.016C1163.78 604.464 1167.74 604.275 1170.95 603.144C1173.02 602.413 1182.24 601.635 1188.25 600.881L1186.25 600.763L1188.61 600.833C1201.15 600.668 1203.13 601.423 1202.85 602.366C1201.29 602.649 1199.64 602.955 1198.27 603.214C1198.16 603.238 1199.76 603.285 1200.56 603.332L1205.49 602.484C1221.45 601.564 1237.11 600.48 1253.42 599.773C1271.34 598.971 1284.76 597.887 1295.13 596.331C1299.87 596.967 1293.67 599.207 1307.42 598.193C1324.93 596.92 1329.79 598.217 1342.43 597.769C1355.8 597.297 1364.8 596.331 1376.26 595.694C1406.84 593.997 1437.61 593.502 1467.72 592.606C1483.54 592.134 1503.82 591.097 1514.08 591.215C1541.12 591.498 1566.11 589.541 1591.46 589.093C1598.18 590.272 1604.31 589.258 1610.49 588.457C1633.05 587.679 1655.69 587.962 1678.23 586.264C1682.31 585.958 1686.05 585.793 1689.31 585.793C1692.82 585.793 1696.36 585.911 1699.23 586.194C1700.72 586.335 1702.61 586.406 1704.87 586.406C1704.09 584.426 1703.03 581.974 1701.87 579.357C1700.77 576.882 1699.61 574.218 1698.43 571.554C1696.57 567.334 1694.78 563.091 1693.72 559.696C1692.61 556.136 1689.73 553.708 1686.48 547.603C1685.04 544.915 1683.74 542.558 1682.12 538.597C1679.57 531.831 1683.96 539.304 1680.61 530.912C1678.77 526.504 1677.59 524.641 1676.15 521.883C1671.08 512.147 1665.33 501.42 1666.96 507.927C1668.32 513.443 1674.97 527.093 1679.62 537.513C1686.41 552.789 1693.22 568.041 1700.01 583.341C1677.9 584.048 1655.76 584.756 1633.57 585.439C1591.6 586.901 1549.94 587.655 1507.29 589.188C1469.66 590.555 1429.81 591.616 1390.67 592.252C1362.12 592.724 1328.21 593.266 1299.21 595.765C1269.29 595.576 1238.17 597.25 1207.54 598.17C1177.17 599.065 1146.36 600.904 1116.6 601.069C1082.98 601.258 1050.32 603.214 1017.24 604.181C1003.8 604.582 987.841 607.646 977.443 605.03C977.302 605.006 974.92 605.1 971.973 605.242C969.026 605.383 965.489 605.548 963.037 605.595C940.897 606.09 920.549 607.953 898.339 608.236C857.455 608.754 825.153 609.91 792.333 612.291C783.161 612.951 780.968 612.456 776.748 612.314C754.042 611.678 728.79 612.173 702.595 613.281C690.712 613.776 679.489 614.483 686.208 615.78C691.183 616.723 680.55 616.581 676.376 616.628C670.553 616.699 671.614 616.062 669.02 615.803C650.488 614.082 611.584 615.638 596.919 618.632L598.263 618.773L596.259 618.703C588.596 618.42 591.166 616.746 577.373 617.477C539.672 619.481 501.853 620.141 464.081 621.367C455.333 621.65 449.25 622.145 447.293 622.993C434.161 622.215 418.481 622.215 403.085 623.818C394.102 624.761 387.075 624.808 378.422 624.879C376.206 625.563 374.178 626.27 368.166 626.883C363.686 627.355 358.853 628.109 352.746 627.802C347.535 627.543 352.911 626.812 354.538 626.27L352.534 626.152L354.868 626.223C364.063 626.129 371.019 625.516 377.715 624.856C359.442 624.243 341.428 624.596 324.146 626.647C315.894 627.614 301.723 627.944 296.395 627.897C262.207 627.661 251.927 628.132 236.224 631.221C231.65 631.669 232.239 631.952 236.884 632.046L236.837 632.117ZM1606.64 588.292L1597.19 588.528C1600.65 588.009 1603.77 587.985 1606.64 588.292ZM1078.76 603.898H1081.04L1078.73 604.04V603.898H1078.76ZM961.787 607.529L963.909 607.576L961.41 607.694L961.787 607.529ZM545.448 620.872L546.368 621.06L544.434 621.107L545.448 620.872ZM270.011 629.358C270.388 629.358 269.799 629.523 269.634 629.618C268.643 629.712 267.677 629.806 266.592 629.853C266.168 629.853 264.965 629.759 265.083 629.688C265.602 629.406 267.512 629.264 269.987 629.358H270.011ZM241.293 631.692L239.171 631.857L240.256 631.574L241.293 631.692Z" fill="#E795C0"/>
<path d="M105.885 532.963C105.225 533.764 104.73 534.472 104.164 535.226L84.8536 556.749C83.2503 558.258 82.1421 559.555 82.0006 560.05C81.9535 560.191 82.9438 559.201 83.4389 558.73C92.4457 551.162 96.0295 547.131 106.05 533.34C106.404 532.798 106.899 532.114 107.04 531.808C107.088 531.713 106.097 532.656 105.862 532.963H105.885Z" fill="#E795C0"/>
<path d="M10.984 628.038L8.6969 630.773L10.8425 628.439L10.984 628.038Z" fill="#E795C0"/>
<path d="M94.2612 640.344L94.5441 640.155L92.4221 640.273L94.2612 640.344Z" fill="#E795C0"/>
<path d="M223.728 377.655L222.973 378.834C222.973 378.834 222.973 378.834 222.997 378.834L223.728 377.655Z" fill="#E795C0"/>
</g>
<defs>
<clipPath id="clip0_2_4032">
<rect width="1704" height="642" fill="white" transform="translate(0.845459 0.18277)"/>
</clipPath>
</defs>
</svg>
