<svg width="601" height="611" viewBox="0 0 601 611" fill="none" xmlns="http://www.w3.org/2000/svg">
<g clip-path="url(#clip0_2_4454)">
<path d="M558.05 153.986L423.104 296.576L595.789 414.127L400.286 415.432L415.798 605.801L281.567 460.197L153.584 584.676L219.674 381.757L6.63831 366.659L162.071 277.75L85.598 115.931L252.253 215.65L330.995 21.2743L387.137 205.523L558.05 153.986Z" fill="#FFF6E1"/>
<path d="M401.53 584.521C404.794 587.534 407.374 590.144 410.389 593.499C410.358 592.753 410.296 592.008 410.265 591.231C410.047 590.485 409.83 589.678 409.581 588.746C408.991 588.342 408.524 588.342 408.182 588.466C404.545 582.999 403.706 582.036 400.722 580.855C399.696 580.172 399.105 580.42 399.478 581.321C399.54 581.508 399.82 581.942 399.944 582.191C400.069 582.44 400.193 582.719 400.38 582.999C400.722 583.589 401.188 584.21 401.499 584.49L401.53 584.521Z" fill="#FFF6E1"/>
<path d="M383.842 564.266C386.484 567 388.194 568.149 388.66 567.777C389.157 567.342 387.541 564.919 385.147 562.433C382.256 559.451 379.645 557.277 379.334 558.177C379.458 559.482 381.448 561.812 383.842 564.297V564.266Z" fill="#FFF6E1"/>
<path d="M335.782 512.418C336.994 514.375 338.424 516.457 341.098 518.755C341.502 519.097 341.937 519.284 341.875 519.066C341.346 517.264 338.611 515.059 336.714 513.008C335.284 508.442 327.824 502.57 323.503 497.382C322.228 495.612 320.891 494.214 319.555 493.313C320.487 494.338 321.327 495.363 322.073 496.357C322.694 501.11 329.906 506.857 335.782 512.418Z" fill="#FFF6E1"/>
<path d="M315.918 490.921C317.161 491.822 318.249 492.443 319.399 493.158C317.783 491.418 316.197 489.616 314.581 487.939C312.312 485.578 310.135 483.527 309.514 483.931C309.42 483.993 309.7 484.552 310.042 485.018C312.001 487.659 314.052 489.616 315.918 490.921Z" fill="#FFF6E1"/>
<path d="M420.617 407.79C420.524 407.635 418.068 407.386 416.949 407.417C414.275 407.51 412.534 407.914 412.97 408.411C413.125 408.598 415.425 408.691 416.482 408.784C419.653 408.66 420.897 408.256 420.617 407.79Z" fill="#FFF6E1"/>
<path d="M565.107 404.28C565.107 404.28 564.827 404.466 564.765 404.497C564.33 404.745 564.703 404.497 565.48 404.559L565.853 404.497C565.853 404.497 566.07 403.876 565.107 404.248V404.28Z" fill="#FFF6E1"/>
<path d="M243.237 491.977C242.958 492.412 242.398 493.064 242.429 493.189C242.46 493.313 243.082 492.909 243.424 492.723C244.667 491.263 244.574 491.014 243.237 491.977Z" fill="#FFF6E1"/>
<path d="M230.305 503.44C228.44 504.683 226.606 505.77 224.71 508.566L229.155 505.211C229.528 504.652 229.932 504.062 230.305 503.44Z" fill="#FFF6E1"/>
<path d="M319.555 493.313L319.461 493.189L319.399 493.158L319.493 493.282L319.555 493.313Z" fill="#FFF6E1"/>
<path d="M393.976 408.908C393.976 408.908 393.416 408.846 393.043 408.815C393.043 409.064 393.043 409.219 393.043 409.281C393.199 410.213 393.323 410.99 393.447 411.828L393.509 410.337C393.416 409.902 393.323 409.405 393.261 409.032C393.572 409.001 393.789 408.97 393.976 408.908Z" fill="#FFF6E1"/>
<path d="M566.164 405.553L566.412 405.74L566.599 405.771L566.164 405.553Z" fill="#FFF6E1"/>
<path d="M412.721 589.554C412.814 591.293 412.472 592.194 412.317 593.219C412.565 594.338 412.814 595.394 413.032 596.326L413.653 600.986C410.265 597.817 406.348 594.089 401.934 589.833C399.323 587.317 396.276 584.521 395.623 584.987C395.064 585.391 395.468 586.323 396.773 587.845C398.017 589.305 399.975 591.138 401.965 592.722L401.032 591.355L402.12 592.815C407.281 598.5 412.379 604.185 417.508 609.87C417.042 603.626 416.607 597.382 416.14 591.076C415.861 587.845 415.612 584.614 415.332 581.383C415.052 578.432 414.773 575.45 414.462 572.468C413.529 563.552 414.493 553.145 411.322 546.714C410.483 545.037 411.073 539.507 410.856 535.81C410.327 526.677 411.135 517.202 408.617 508.255L408.493 509.529L408.555 508.007C407.56 492.567 406.379 477.097 405.105 461.657L401.25 416.333L425.342 416.147C444.833 416.022 465.63 416.364 483.753 414.22C503.027 415.743 523.824 414.873 542.724 414.22C550.62 413.941 558.112 414.22 565.511 414.407C572.878 414.593 581.303 414.686 587.613 414.096C589.696 413.91 591.779 413.754 594.017 413.599C583.448 407.013 575.303 401.297 566.91 395.302C540.424 376.383 513.628 359.39 487.142 341.434C475.826 333.761 463.765 325.125 452.138 318.632L450.677 317.793L451.921 318.384C449.869 316.271 447.165 313.941 443.403 311.394C436.16 306.486 428.948 301.577 421.767 296.669C428.73 289.4 435.663 282.099 442.595 274.861C449.341 267.871 456.086 260.882 462.801 253.923C476.324 240.006 489.877 226.244 503.524 212.575C519.596 196.452 535.481 180.981 551.367 166.194C554.755 163.026 559.107 158.552 559.76 156.285C560.382 154.079 556.651 157.185 553.014 160.54C539.709 172.811 526.311 185.175 513.037 197.384C502.001 207.511 490.033 220.372 480.241 229.319C465.63 242.677 453.382 256.967 440.295 270.357C436.844 273.805 433.238 277.408 429.57 281.105L426.803 283.87L422.544 288.25C419.622 291.357 416.669 294.432 413.747 297.539C417.291 299.9 420.834 302.261 424.347 304.466C426.057 305.523 427.767 306.61 429.445 307.666C430.564 308.287 431.652 308.909 432.741 309.499L433.984 310.089L433.051 309.779C438.74 315.805 445.828 319.813 452.325 322.733C457.05 324.845 461.247 326.771 467.215 331.618C468.397 333.761 456.801 325.933 461.464 330.686C464.449 333.761 468.925 336.246 472.966 338.514C474.956 339.632 477.008 340.782 478.748 341.621C490.841 347.461 503.524 355.786 517.109 365.758C513.938 364.578 507.659 359.359 505.949 360.26C514.374 365.355 521.772 371.568 530.725 375.482C534.362 377.066 550.465 386.697 551.118 388.188C553.698 394.028 557.957 393.842 563.21 396.7C564.516 397.414 566.07 398.253 567.656 399.123C568.961 399.806 569.956 400.303 571.013 400.987C573.034 402.291 574.029 403.441 571.666 403.658C571.666 403.751 571.666 403.876 571.666 403.969C572.785 404.87 573.687 405.646 574.806 406.423C575.925 407.2 577.293 407.976 579.78 409.188C579.717 409.343 579.78 409.53 579.904 409.778C580.184 410.244 578.35 410.648 576.018 410.865C573.687 411.083 571.137 411.114 570.64 410.803C568.215 409.405 567.252 409.219 565.946 409.405C565.262 409.592 561.594 410.151 558.827 410.244C552.081 410.462 545.709 411.984 538.186 410.741C541.357 410.151 544.279 409.405 538.714 409.002C526.311 408.07 515.493 408.132 504.644 410.275C494.043 412.357 488.168 412.077 484.686 409.902C483.474 409.157 480.334 409.033 477.194 409.002C468.894 409.002 460.376 409.25 452.263 409.064C435.165 408.691 435.259 408.598 430.627 411.891H435.569C443.123 410.865 451.237 410.959 463.081 411.425C451.641 411.611 443.745 411.766 435.818 411.891C433.984 412.201 432.212 412.232 430.596 411.891C425.56 412.263 420.524 412.605 415.488 412.698H411.726L407.219 412.636C404.017 412.543 400.69 412.357 397.053 412.077H396.867L396.805 413.071C397.178 417.11 397.644 421.055 398.11 424.845C398.514 427.796 398.887 430.747 399.291 433.698C400.038 439.446 400.659 445.317 400.815 451.592C400.069 448.734 399.323 444.633 398.608 443.453C397.955 442.366 397.737 446.435 398.141 449.915C400.721 472.375 401.965 495.829 405.042 517.886C405.509 518.849 406.037 519.315 406.472 520.868C406.877 522.297 406.783 524.161 406.379 523.136C405.913 521.924 405.478 519.719 405.042 517.979C404.141 537.146 407.125 557.339 409.27 577.221C409.363 578.121 410.141 577.935 410.576 578.37C410.7 577.935 410.762 577.096 410.856 576.289L411.104 573.928L411.322 573.027L411.229 574.394C411.042 575.854 410.918 577.811 410.7 578.681C410.452 581.414 408.959 580.793 409.581 584.148C409.985 586.385 410.389 587.41 410.762 587.628C411.135 587.845 411.477 587.224 411.788 586.664C412.161 586.074 412.659 586.167 412.814 589.305L412.721 589.554ZM538.03 410.865L533.367 410.648C536.072 410.058 536.6 410.71 538.03 410.865ZM405.54 502.881L404.763 492.971C402.4 480.048 402.307 465.634 400.753 452.182C402.96 465.012 403.706 478.961 404.825 492.63C405.695 496.202 406.068 499.65 405.571 502.974L405.416 504.279L405.54 502.881ZM407.778 541.06C408.182 542.738 408.617 544.229 408.959 546.124C409.332 548.112 409.612 550.473 409.954 552.741C408.586 553.89 408.151 547.553 407.778 541.029V541.06Z" fill="#FFF6E1"/>
<path d="M534.269 153.023C529.264 154.11 523.233 156.502 517.078 157.589C512.26 158.428 509.493 160.603 506.229 162.187L504.644 162.839L505.856 162.218C505.483 161.721 505.017 160.882 502.063 161.752C480.427 168.183 458.356 173.836 437.372 181.603L442.377 181.044L443.59 180.95L442.191 181.137L437.093 181.758C426.399 183.28 413.84 187.909 402.276 190.922C399.975 191.513 397.924 192.103 396.152 192.693C395.25 193.004 394.442 193.283 393.634 193.532C393.634 193.563 393.634 193.625 393.634 193.718C393.572 193.998 393.292 194.557 392.67 195.241C392.142 195.644 391.427 195.738 390.65 195.178C390.712 194.837 390.805 194.557 390.96 194.309C391.085 193.998 391.085 193.283 391.209 192.88C391.396 191.948 391.675 191.202 391.738 190.146C391.862 188.064 391.209 184.896 387.634 177.098C386.235 170.916 385.178 163.088 382.412 162.777V163.833L382.287 162.498L380.795 157.589L380.173 156.378L380.764 157.279C382.287 157.185 381.603 152.308 378.868 147.928C372.992 138.546 370.505 127.735 367.925 114.781C365.936 104.809 363.542 94.2159 358.817 84.1507C359.439 86.4184 360.06 88.6862 360.682 90.9229C361.304 93.2218 361.988 96.1108 361.366 95.6449C360.309 94.8682 359.594 91.3889 358.91 88.6551C358.568 87.1951 358.226 85.7661 357.884 84.306L357.232 82.877L357.853 84.1196C358.226 84.306 358.506 84.2749 358.724 83.9953C355.739 68.8976 353.967 78.124 351.201 66.9094C351.418 60.7584 351.17 56.3161 349.833 51.7805C349.491 50.6311 349.118 49.5128 348.621 48.3323C348.372 47.742 348.123 47.1518 347.843 46.5305L347.408 45.5985C347.253 45.2568 347.16 45.0704 346.849 44.3559C344.89 39.4786 342.59 34.3528 340.165 29.5998C335.937 21.3675 334.445 16.9252 332.673 4.25047C332.487 3.00786 332.238 1.64098 331.927 0.149841C330.963 1.76524 329.44 5.27563 327.793 9.90438C325.088 17.4222 322.57 25.2507 320.332 31.1531C319.182 34.1354 318.094 36.7449 316.912 38.9505C316.322 40.0378 315.7 41.063 315.078 41.9639C314.767 42.4298 314.425 42.8337 314.084 43.2375C313.928 43.4239 313.742 43.6725 313.586 43.7967L313.182 44.0452C309.794 52.9921 308.27 59.3605 307.959 64.0514C306.965 64.7348 306.032 65.1697 304.291 68.3694C300.499 72.1594 300.032 77.2542 299.131 81.3237C298.478 84.3371 298.665 85.9214 300.592 82.877C301.618 81.2305 302.395 78.621 302.706 77.0056C303.11 74.8621 303.328 73.0293 303.607 71.0411L307.307 66.6298C308.084 66.2259 308.799 66.1017 309.7 65.3561C311.068 64.2688 309.98 71.01 313.897 61.4729C315.887 56.6267 317.161 52.2154 316.757 49.637C316.57 48.4876 316.726 47.1828 317.068 45.816C317.192 45.2568 317.596 44.1074 317.969 43.1443C318.373 42.1503 318.809 41.094 319.244 40.0689C321.109 35.844 323.316 31.8365 325.119 28.1708C323.347 35.0673 322.104 40.131 320.923 44.418C319.772 48.6119 318.653 52.2465 317.192 56.0986C314.301 63.7096 310.509 71.3207 305.379 80.1432C303.607 83.1566 302.084 86.4184 300.374 90.5501C293.908 105.959 292.168 114.874 290.302 126.617C295.028 113.849 298.229 103.256 301.183 97.5088C306.188 87.7232 310.509 77.3473 314.674 66.9094C316.757 61.6904 318.84 56.4714 320.923 51.2835C321.886 48.9846 322.85 46.6547 323.814 44.387C324.684 42.3988 325.523 40.4727 326.363 38.702C326.767 39.1369 326.953 40.3795 327.979 38.4535C328.104 38.2049 328.383 37.1177 328.383 36.9623C328.259 35.4401 327.326 37.0555 326.394 38.6399C327.451 34.3218 329.192 29.7241 330.839 25.6545C331.554 28.0155 332.238 30.4386 332.953 32.7996C334.943 39.5408 336.652 43.3618 338.953 46.1888C339.357 49.6059 338.642 49.3264 337.771 48.4565C336.87 47.4935 336 46.6858 335.564 47.3382L335.129 46.9033L335.564 47.4003C337.771 54.1726 339.947 60.9137 342.124 67.6239C344.424 74.5204 346.693 81.3858 348.963 88.2202C353.563 101.889 358.226 115.434 362.983 128.823C366.589 133.576 363.635 120.404 365.221 118.695C367.397 127.518 372.744 137.707 371.967 143.672C371.656 146.095 369.075 143.02 367.117 140.596C366.402 139.727 364.506 133.514 363.138 129.724C362.236 128.543 360.744 127.363 361.708 130.065C366.153 142.833 368.485 157.341 374.609 169.394C377.127 174.333 380.578 185.02 383.096 195.675C383.189 182.752 382.163 177.316 377.78 168.773C376.07 165.418 375.448 163.647 374.547 160.261C373.49 156.316 373.77 155.228 374.547 155.539C375.541 155.943 377.034 158.708 378.37 162.995C382.287 175.328 386.235 187.661 390.152 199.994C393.354 198.968 405.136 195.458 414.058 193.128C420.803 191.357 422.264 191.761 413.622 194.65C410.731 195.613 409.022 196.825 410.576 196.421C420.12 194.122 419.746 196.638 428.855 194.402C436.533 192.507 443.279 190.022 449.838 186.791C440.046 188.841 438.616 187.319 433.083 187.505C436.098 186.387 439.238 185.02 442.129 184.243C462.366 178.652 482.044 171.631 502.374 166.07C511.047 163.709 520.125 160.727 528.798 157.869C534.86 155.881 539.119 151.873 534.331 152.929L534.269 153.023ZM342.652 56.6889C341.564 52.0601 340.383 49.0157 338.891 46.2198C337.398 41.1562 335.906 36.0614 334.414 30.9978C333.295 27.1457 332.083 24.5672 331.026 20.0628L330.715 20.6219C330.839 20.1249 330.932 19.6589 331.088 19.0687C333.637 19.8764 338.113 32.8928 342.403 46.6237C345.636 56.9063 348.838 68.4005 352.848 79.3977C348.341 74.0233 345.512 68.9597 342.683 56.6578L342.652 56.6889ZM357.915 104.561C356.89 102.541 355.429 100.087 355.087 96.7011C354.776 93.6567 355.087 92.3209 357.263 97.6952C358.351 100.367 359.439 102.572 361.117 106.3C360.433 108.723 359.345 107.419 357.915 104.561ZM385.831 177.906L384.401 175.856C384.121 173.122 385.209 176.508 385.769 177.471L387.572 177.129C390.65 189.183 387.012 179.646 385.831 177.906ZM477.163 171.289L475.795 171.538L477.412 170.978L477.163 171.289ZM491.836 166.971L490.406 167.22L492.054 166.66L491.836 166.971Z" fill="#FFF6E1"/>
<path d="M55.7238 372.531C55.7238 373.556 61.9411 374.488 66.8839 374.674C84.199 375.296 100.955 377.035 117.804 378.682C119.482 379.085 122.093 379.738 123.648 379.458C125.389 379.148 121.534 378.744 119.824 378.433C122.684 376.662 131.917 378.216 138.631 378.433C139.875 378.713 140.963 379.054 142.424 379.272C149.636 380.235 156.972 381.074 163.065 380.266C163.874 380.173 163.905 379.676 163.128 379.458C156.537 377.408 149.698 378.216 142.921 378.06L140.466 377.998C139.657 376.787 136.02 376.072 129.585 375.886H128.124L129.119 375.761C137.233 375.047 143.077 372.686 156.786 376.818C160.361 377.905 169.189 377.781 171.894 376.6C172.733 376.693 173.573 376.756 174.412 376.849C180.101 377.501 186.007 377.719 184.546 376.445C183.396 375.42 177.645 375.637 174.039 375.668C172.547 375.668 171.428 375.855 170.122 375.948C160.454 374.022 149.045 373.649 138.258 372.748C132.01 372.22 125.793 371.972 123.555 372.997C118.208 375.42 104.436 374.239 92.1883 373.618C83.826 373.183 75.3083 372.406 66.8839 371.909C61.6924 371.599 55.7238 371.537 55.6927 372.531H55.7238Z" fill="#FFF6E1"/>
<path d="M356.796 545.254C363.729 551.778 369.293 558.426 375.448 565.105C380.857 570.976 388.225 578.308 388.722 576.786C389.064 575.667 382.038 566.876 376.225 561.346C368.92 554.45 368.236 552.368 369.759 552.057C370.599 551.902 373.272 553.735 369.573 549.199C366.371 545.254 362.299 540.967 359.781 539.507C356.081 537.333 353.284 536.369 349.988 534.847C349.553 536.276 350.89 539.694 356.796 545.254Z" fill="#FFF6E1"/>
<path d="M130.3 142.46C128.373 140.907 126.881 139.261 123.43 138.049L128.497 141.839C124.58 139.571 120.415 137.707 116.405 135.595C114.415 134.57 112.301 133.358 110.747 132.302C109.068 131.184 107.359 129.848 105.307 128.046C103.037 125.996 99.6491 123.045 96.0741 121.522C92.437 120 94.7996 122.641 97.3176 125.126C101.234 128.947 103.97 130.842 108.664 133.389C111.617 135.036 114.602 136.682 117.586 138.36C120.974 140.286 124.394 142.212 127.813 144.169C134.621 148.083 141.398 152.184 148.051 156.595C150.755 158.397 154.144 160.323 156.226 160.944C158.402 161.597 156.91 160.199 155.387 158.645C147.678 150.879 146.9 150.351 130.238 142.491L130.3 142.46Z" fill="#FFF6E1"/>
<path d="M166.423 548.205C164.993 554.294 163.749 557.059 161.387 562.216C162.133 559.047 162.91 555.63 163.936 551.685C165.086 547.273 165.925 543.546 164.526 544.85C163.843 545.503 163.252 545.969 162.257 548.05C161.293 549.976 160.143 552.927 158.838 557.09C157.439 561.439 155.853 566.285 154.392 570.79C152.962 575.263 151.781 579.302 151.563 581.321C151.253 584.179 150.133 588.093 148.766 592.474C152.62 588.653 156.351 585.111 160.143 581.042C160.734 581.694 162.568 580.948 169.003 574.456L192.691 550.691L212.773 531.026C226.233 517.979 239.818 505.056 253.403 492.195C260.957 485.018 269.972 475.046 269.381 474.239C268.449 472.965 269.381 470.853 271.402 468.212C271.899 467.56 272.49 466.876 273.143 466.131C273.858 465.323 274.728 464.422 275.63 463.521C277.433 461.688 279.484 459.7 281.629 457.681C284.178 460.601 286.914 463.708 289.681 466.845C290.738 468.088 291.981 469.299 293.131 470.542C296.457 474.115 299.162 476.444 299.628 475.637C300.032 474.922 296.675 471.691 294.996 469.548L292.478 466.41L291.204 464.857L289.37 462.713C286.883 459.855 284.334 456.966 281.754 454.139C278.303 457.432 274.852 460.819 271.464 464.174C269.132 466.535 266.832 468.896 264.532 471.256C259.993 476.041 255.454 480.794 250.916 485.547C249.113 488.311 252.004 486.479 252.594 486.851C254.18 487.845 253.838 489.585 244.419 496.419C241.621 498.47 236.15 504.434 231.922 508.628C222.036 518.352 212.151 528.044 202.297 537.736L187.344 552.12C182.339 556.873 177.21 561.688 172.454 566.006C174.785 562.34 176.899 559.793 179.386 557.308C180.505 556.189 182.277 554.543 183.893 553.083C185.572 551.592 187.251 550.1 188.929 548.609C198.286 540.377 207.364 531.989 215.353 522.732C217.809 519.874 220.482 516.736 218.741 517.14C217.498 517.42 214.949 519.718 212.4 522.173L171.801 561.595C169.469 563.862 167.324 566.161 164.993 568.957C162.661 571.722 160.081 575.015 157.252 578.805C156.662 579.364 155.884 580.265 154.921 581.57L159.397 568.615C159.49 571.101 160.547 570.355 161.667 568.646C162.817 566.845 163.998 564.235 165.055 560.911C167.48 553.642 169.936 546.217 172.422 538.699C175.687 528.696 178.826 518.445 181.438 507.914C174.567 518.6 169.967 533.512 166.392 548.174L166.423 548.205ZM194.867 541.371L195.986 540.501L194.805 541.744L194.867 541.371ZM164.806 572.374C166.019 571.753 167.449 570.883 169.127 569.827C167.759 572.033 165.552 574.766 162.288 578.152C158.931 580.762 156.071 582.906 153.708 584.521L154.081 583.589C154.019 583.806 153.926 584.055 153.864 584.272C157.656 580.513 161.511 576.164 164.806 572.374Z" fill="#FFF6E1"/>
<path d="M213.985 396.668C215.602 391.915 217.249 387.1 218.866 382.285C215.073 381.975 211.281 381.695 207.457 381.384C203.447 381.105 199.374 380.856 195.333 380.639C187.22 380.266 179.137 380.142 171.117 380.483C178.546 382.844 186.163 381.664 191.478 382.689C196.048 383.59 200.68 384.118 205.374 384.491L208.172 384.677L210.348 384.77L214.949 384.895L213.799 389.089L213.146 391.294L212.275 394.028C210.814 398.439 209.664 402.353 210.317 403.348C210.97 404.311 212.679 400.676 214.047 396.637L213.985 396.668Z" fill="#FFF6E1"/>
<path d="M102.291 151.5C110.156 165.542 117.772 179.49 122.591 194.806C123.182 196.701 124.674 198.72 125.544 199.621C126.974 201.081 128.87 203.224 128.186 200.335C127.192 196.235 124.083 190.208 120.57 182.442C115.254 172.438 109.535 158.987 102.851 146.841C102.26 145.815 101.732 144.884 101.297 144.107C100.893 143.423 100.582 143.02 100.271 142.647C99.6801 141.963 99.2449 141.808 99.1517 142.678C98.9962 144.169 99.7734 147.027 102.291 151.5Z" fill="#FFF6E1"/>
<path d="M284.645 463.242C283.432 461.906 282.438 460.756 281.598 459.824C275.35 465.975 278.179 464.95 280.355 464.484C280.137 464.826 279.888 465.199 279.795 465.447C279.795 465.54 280.199 465.292 280.324 465.168C280.635 464.795 280.914 464.422 281.225 464.018L281.505 463.77L283.774 466.286C285.018 467.684 286.261 469.113 287.505 470.48C289.059 472.219 290.613 473.928 292.168 475.637C295.276 479.023 298.354 482.316 301.369 485.391C307.431 491.542 313.338 496.885 318.902 500.551C319.866 505.522 331.026 515.307 336.155 522.328C338.424 525.434 342.03 528.727 343.522 529.193C344.984 529.628 343.709 527.205 341.409 524.13C334.912 515.556 327.389 508.193 319.835 501.172C314.488 493.779 307.618 485.764 300.934 480.11C294.592 474.736 290.489 469.859 284.707 463.211L284.645 463.242Z" fill="#FFF6E1"/>
<path d="M143.947 239.167C144.32 239.726 144.662 240.285 145.035 240.844C148.579 246.281 152.278 250.754 153.553 258.707C153.957 261.286 156.941 265.635 158.278 266.815C159.832 268.182 159.553 265.821 157.656 261.503C155.698 257.03 153.304 252.432 152.496 250.785C148.983 243.268 146.807 238.639 144.662 234.01C141.927 228.201 139.315 223.417 137.481 222.516C136.611 222.081 135.989 222.174 136.797 224.97C138.507 230.717 141.212 235.004 143.885 239.136L143.947 239.167Z" fill="#FFF6E1"/>
<path d="M214.762 403.348C215.384 404.217 216.317 402.757 217.374 400.303C217.902 399.061 218.462 397.6 218.99 396.016C219.674 393.966 220.42 391.822 221.104 389.772C222.41 385.858 223.622 382.037 224.772 378.278C219.114 377.998 213.27 377.781 207.395 377.688C202.887 377.719 197.944 377.781 192.193 377.843C198.131 378.557 203.26 379.179 207.768 379.738C212.804 380.297 216.938 380.763 220.42 381.229C219.55 383.528 218.835 385.392 218.12 387.131C215.135 394.276 213.612 401.67 214.762 403.348Z" fill="#FFF6E1"/>
<path d="M175.065 168.524C168.039 168.586 169.158 169.767 184.453 178.186C190.359 181.416 196.048 184.678 201.799 188.126C210.659 193.439 213.177 193.594 214.109 192.414L215.757 192.724L212.742 191.233C199.406 184.896 186.598 177.502 175.034 168.524H175.065Z" fill="#FFF6E1"/>
<path d="M293.566 100.211C294.499 99.0621 295.121 99.5591 296.737 95.0857C296.955 94.4644 297.141 93.6567 297.11 93.4082C296.955 91.6996 295.401 95.241 294.157 97.5709C293.877 95.9866 295.463 89.2765 291.048 99.1242C282.593 118.105 281.816 121.243 284.831 125.623C287.505 116.956 292.634 107.294 293.566 100.18V100.211Z" fill="#FFF6E1"/>
<path d="M188.183 480.669C187.624 481.788 186.194 488.125 185.541 491.48C184.608 496.171 185.634 495.705 187.406 491.2C190.701 482.875 193.561 473.742 196.266 464.826C198.38 457.929 199.437 452.524 198.535 450.132C193.965 460.85 192.846 471.66 188.183 480.669Z" fill="#FFF6E1"/>
<path d="M83.5152 117.36C81.8676 113.632 80.0646 110.401 78.4481 108.009C78.6657 107.916 78.417 107.481 77.7331 106.766C77.0492 106.021 76.2099 105.244 75.1529 104.405C74.6245 104.592 76.0234 108.102 79.3185 114.905C82.365 121.212 85.4737 127.642 88.458 133.824C89.9812 136.9 91.4733 139.851 92.9655 142.647C93.7116 144.014 94.4266 145.349 95.1416 146.654C95.7011 147.555 96.1985 148.332 96.727 149.139C100.706 159.142 104.872 168.617 110.467 176.415C106.799 165.2 102.136 157.869 97.6596 150.227C97.6596 149.357 97.5352 148.425 97.3487 147.462C97.2554 146.965 97.1311 146.468 96.9757 145.94C96.758 145.318 96.5404 144.666 96.2917 144.014C95.3281 141.404 94.0846 138.701 92.6235 135.781C89.7947 130.034 85.94 122.889 83.4841 117.391L83.5152 117.36Z" fill="#FFF6E1"/>
<path d="M120.57 193.843C116.653 186.822 113.016 181.23 111.804 183.498C114.695 190.146 117.897 196.701 121.285 202.634C124.145 207.636 126.756 211.115 126.539 208.008C126.321 204.809 123.244 198.596 120.601 193.874L120.57 193.843Z" fill="#FFF6E1"/>
<path d="M168.412 158.583C161.884 153.861 149.729 147.524 145.097 146.406C141.927 145.66 142.61 146.903 150.444 151.687C154.61 153.955 160.299 157.061 165.987 160.199C168.785 161.752 172.049 163.709 172.795 163.274C173.604 162.808 171.583 160.882 168.412 158.614V158.583Z" fill="#FFF6E1"/>
<path d="M225.798 192.32C216.254 187.195 204.597 178.683 195.768 176.819C204.193 182.721 212.431 187.661 220.824 192.414C224.617 194.557 227.539 195.738 227.29 194.495C227.166 193.936 227.601 193.283 225.798 192.32Z" fill="#FFF6E1"/>
<path d="M196.359 443.08C192.691 453.58 188.339 464.142 186.287 474.798C184.391 480.949 181.531 486.727 180.225 493.22C186.225 485.05 186.318 484.801 189.209 469.486C192.38 461.378 196.359 455.475 198.473 444.261C198.97 441.682 200.089 437.923 199.374 437.737C198.753 437.582 197.509 439.725 196.359 443.049V443.08Z" fill="#FFF6E1"/>
<path d="M148.89 258.303C148.548 259.204 149.792 262.497 151.253 265.448C152.278 267.561 153.366 269.829 154.454 272.065C155.107 273.37 155.729 274.675 156.475 276.011C155.107 276.911 153.895 277.874 152.745 278.993C151.097 280.422 149.418 282.068 148.797 283.528C149.916 282.876 151.004 282.255 152.061 281.633C153.025 281.074 153.957 280.484 154.89 279.956C156.506 278.931 158.092 277.968 159.646 277.005C158.589 274.954 157.563 272.966 156.537 270.978C155.449 268.772 154.175 266.101 153.056 263.615C151.47 260.043 149.294 257.123 148.859 258.303H148.89Z" fill="#FFF6E1"/>
<path d="M133.253 228.698C136.393 234.6 140.87 244.634 142.611 244.697C144.414 244.728 140.59 236.06 137.388 229.071C134.124 221.895 132.321 219.72 131.917 221.988C130.953 221.988 129.679 221.957 133.253 228.729V228.698Z" fill="#FFF6E1"/>
<path d="M110.218 304.311C110.623 302.975 107.545 303.534 102.913 306.392C94.955 311.301 85.5669 316.427 77.2357 323.23C87.3388 317.731 95.328 313.134 102.851 309.375C108.011 306.796 109.877 305.46 110.218 304.342V304.311Z" fill="#FFF6E1"/>
<path d="M16.3373 361.285C12.0163 363.646 10.12 365.137 9.49829 366.038C12.4204 365.914 15.0939 365.727 17.5808 365.572C18.2958 364.92 18.2025 364.516 17.3321 364.267C21.0625 362.559 22.6168 361.192 25.1037 359.266C26.8445 357.899 28.1813 356.408 26.285 356.532C23.9224 356.749 19.8501 359.39 16.3684 361.316L16.3373 361.285Z" fill="#FFF6E1"/>
<path d="M175.997 514.189C177.458 508.286 177.365 505.366 175.003 509.374C173.573 511.797 171.055 516.985 171.055 520.619C171.055 523.695 168.008 531.958 169.625 532.424C172.422 526.584 174.536 520.184 175.997 514.189Z" fill="#FFF6E1"/>
<path d="M549.128 154.483C541.605 156.688 536.072 158.801 536.849 160.199C537.284 160.944 541.232 160.292 545.616 158.801C551.553 156.782 559.045 154.39 557.708 153.085C557.055 152.463 554.289 152.681 549.128 154.483Z" fill="#FFF6E1"/>
<path d="M114.446 304.87C109.348 307.977 105.12 310.866 106.053 311.798C106.488 312.202 108.54 311.705 111.68 310.027C119.575 305.833 117.959 305.15 119.047 303.566C119.824 302.416 118.456 302.602 114.415 304.87H114.446Z" fill="#FFF6E1"/>
<path d="M62.0654 369.238C63.7441 369.3 65.3917 369.393 67.0393 369.455C69.4329 370.605 72.2307 371.785 79.3184 371.319C83.2042 371.071 86.8413 370.356 82.5825 369.331C78.2926 368.306 74.3757 369.3 69.7749 369.051C62.5006 366.038 54.8534 367.405 47.6102 367.529C44.4083 367.591 42.5742 368.213 45.03 368.834C52.4597 370.667 56.0657 368.927 62.0654 369.269V369.238Z" fill="#FFF6E1"/>
<path d="M142.642 286.914C138.041 288.437 139.471 285.548 129.368 291.295C128.28 291.916 126.414 293.345 126.477 293.562C126.819 295.209 131.948 293.128 139.16 289.338C139.719 289.058 140.341 288.53 142.642 286.946V286.914Z" fill="#FFF6E1"/>
<path d="M94.3332 317.39C90.7272 319.44 86.8103 322.018 86.2507 323.23C85.629 324.566 88.862 323.23 93.0587 320.9C97.2554 318.539 99.4003 316.737 100.053 315.464C99.4936 315.029 97.4108 315.619 94.3332 317.359V317.39Z" fill="#FFF6E1"/>
<path d="M15.9021 360.229C19.6324 358.334 21.8396 356.47 20.0676 356.749C17.5496 357.184 12.1095 359.576 5.58135 363.025C0.669688 365.914 -0.0142145 366.908 1.5712 366.659C4.89745 366.1 11.3013 362.59 15.9021 360.229Z" fill="#FFF6E1"/>
<path d="M236.834 501.266C239.911 496.792 235.373 500.675 231.704 503.813C231.3 504.434 230.896 505.025 230.492 505.615C229.186 507.634 224.617 512.604 226.855 511.424C231.052 509.187 234.968 503.999 236.834 501.297V501.266Z" fill="#FFF6E1"/>
<path d="M251.506 205.741C252.284 202.945 251.88 201.423 251.133 200.925C250.947 200.739 250.605 201.05 250.17 201.795C250.077 201.982 249.952 202.199 249.828 202.417L249.703 202.603C249.703 202.603 249.548 202.883 249.486 203.1C249.424 204.405 249.299 206.424 250.045 207.294C250.356 207.667 251.009 207.325 251.506 205.71V205.741Z" fill="#FFF6E1"/>
<path d="M23.425 371.288C26.5336 371.599 32.1914 371.94 30.4505 371.288C28.3677 370.449 30.4505 369.362 22.6167 368.834C19.7879 368.647 17.1455 368.616 13.6638 369.145C13.2908 369.828 16.586 370.605 23.425 371.319V371.288Z" fill="#FFF6E1"/>
<path d="M262.48 178.962C265.34 173.588 265.526 170.761 265.62 168.369C268.573 162.529 272.583 157.092 272.956 150.227C273.049 149.699 273.298 148.705 273.174 148.767C272.832 148.953 272.334 149.574 271.899 150.009C270.811 151.594 270.127 153.333 269.785 155.228C267.267 160.509 263.63 166.132 264.096 170.419C262.635 173.743 260.677 175.234 259.713 179.832C258.781 184.212 260.211 183.156 262.48 178.962ZM271.713 150.786C271.899 150.91 272.024 151.128 272.086 151.5L269.972 154.918L271.713 150.755V150.786Z" fill="#FFF6E1"/>
<path d="M137.512 291.574C132.321 294.774 134.093 294.743 134.777 295.178C135.056 295.364 135.461 295.457 135.834 295.582L134.777 296.42L135.523 296.172L136.518 295.333C139.44 293.625 143.077 291.543 142.859 290.798C142.673 290.114 148.424 286.324 143.854 288.095C142.393 288.654 139.502 290.332 137.543 291.543L137.512 291.574Z" fill="#FFF6E1"/>
<path d="M98.8097 119.783C100.271 119.596 94.8306 115.993 89.8257 112.7C85.8466 110.246 83.2664 108.91 83.2975 109.438C83.3908 110.525 87.5564 113.601 92.7478 116.8C94.8617 118.105 98.3745 119.845 98.8097 119.783Z" fill="#FFF6E1"/>
<path d="M478.407 175.421C477.163 175.731 474.956 176.508 474.334 176.881C472.314 178.123 470.79 179.242 469.112 180.422L465.568 180.484C462.211 182.038 465.319 181.479 467.029 181.385C479.277 178.993 479.215 177.098 481.142 175.203C481.36 174.986 479.526 175.141 478.407 175.421Z" fill="#FFF6E1"/>
<path d="M495.628 171.941C490.53 173.308 488.261 174.613 487.577 175.638C487.204 176.197 487.764 176.508 487.888 176.943C490.095 176.104 492.302 175.265 494.478 174.396C498.302 172.936 501.721 171.475 499.763 171.103C499.328 171.009 497.121 171.538 495.628 171.941Z" fill="#FFF6E1"/>
<path d="M199.063 431.027C199.499 431.741 199.561 432.549 199.903 432.269C200.991 431.337 202.452 431.648 203.664 425.342C204.597 420.433 202.079 424.348 199.063 431.058V431.027Z" fill="#FFF6E1"/>
<path d="M546.548 152.432C552.082 149.885 547.823 150.227 546.02 149.854C545.895 149.854 544.714 150.196 542.569 150.724C540.673 152.184 538.963 153.582 542.6 153.489C543.16 153.489 545.833 152.743 546.548 152.432Z" fill="#FFF6E1"/>
<path d="M85.9088 118.975C86.7482 121.087 88.2403 124.039 89.4838 125.654C91.2246 127.86 91.2868 126.866 89.8879 123.821C89.1729 122.299 87.6186 119.845 86.9968 118.758C84.4788 115.216 85.0695 116.956 85.9088 119.006V118.975Z" fill="#FFF6E1"/>
<path d="M281.567 137.055C279.142 141.901 279.671 143.144 279.702 144.821C276.5 154.017 274.013 164.268 268.884 168.804C267.205 170.295 264.874 176.632 264.78 179.459C264.718 181.603 266.832 179.055 266.024 183.032C263.879 186.573 261.92 190.922 259.962 195.489C258.035 199.994 256.014 205.088 254.149 209.065C256.014 203.473 257.164 199.155 257.848 194.681C256.947 197.104 256.107 199.341 255.361 201.36C254.708 203.162 254.118 204.778 253.558 206.269C252.657 208.847 251.911 211.022 251.32 212.886C245.787 210.214 244.481 210.587 240.253 211.208L243.455 212.792L246.75 214.47C248.833 215.557 250.885 216.645 252.936 217.732L255.796 210.059L258.594 203.007C260.397 198.658 262.293 194.309 264.314 189.959C265.34 187.785 266.117 184.368 266.988 181.541L278.272 153.551C280.448 148.176 281.349 144.635 281.008 142.864C282.189 140.193 283.992 138.36 284.458 135.657C284.956 132.551 283.961 132.178 281.536 136.993L281.567 137.055Z" fill="#FFF6E1"/>
<path d="M128.342 135.719C126.321 133.824 123.337 132.147 120.788 130.966C119.513 130.345 117.648 129.32 116.311 128.729C115.969 128.574 115.69 128.45 115.441 128.388C115.13 128.263 114.819 128.17 114.695 128.17C114.353 128.17 114.508 128.481 115.099 129.133C120.57 132.519 124.953 134.787 128.373 135.719H128.342Z" fill="#FFF6E1"/>
<path d="M511.047 165.946C506.353 167.375 506.571 168.524 509.027 168.649C510.084 168.151 511.918 167.406 511.887 167.251C511.825 166.722 517.265 164.082 511.016 165.977L511.047 165.946Z" fill="#FFF6E1"/>
<path d="M276.935 132.613C275.754 136.061 275.723 137.645 276.5 137.366C276.686 137.304 277.712 134.974 278.334 133.669C279.236 130.687 280.075 127.735 278.769 129.009C278.427 129.351 277.246 131.588 276.904 132.613H276.935Z" fill="#FFF6E1"/>
<path d="M400.628 202.852C398.483 203.877 399.509 203.97 402.12 203.317C405.167 202.572 408.244 201.64 410.327 200.459C409.861 200.335 409.799 199.962 408.835 200.118C405.758 200.615 402.866 201.795 400.628 202.852Z" fill="#FFF6E1"/>
<path d="M104.312 372.593C107.203 372.872 108.726 372.655 109.068 372.189C109.379 371.785 108.757 371.381 106.519 371.102C103.286 370.884 101.483 371.04 101.017 371.443C100.551 371.847 101.639 372.313 104.343 372.593H104.312Z" fill="#FFF6E1"/>
<path d="M70.7697 332.891C70.0858 333.761 70.9251 333.823 73.3809 332.394C75.0596 331.431 76.4585 330.189 77.9506 329.101C76.9559 329.288 76.4274 329.132 75.5259 329.598C73.2877 330.717 71.4536 332.052 70.7697 332.922V332.891Z" fill="#FFF6E1"/>
<path d="M49.9107 339.57C49.7552 339.166 49.6931 338.669 47.2372 339.819C47.0507 339.912 45.6518 341.186 45.5586 341.527C45.341 342.149 45.5897 342.522 48.1077 341.341C48.3253 341.248 49.32 340.161 49.9418 339.57H49.9107Z" fill="#FFF6E1"/>
<path d="M257.32 191.326C257.257 190.643 256.698 191.326 256.107 192.942C255.703 194.06 255.61 195.023 255.361 196.079C255.952 194.93 256.511 193.936 257.009 192.817C257.164 192.507 257.351 191.575 257.32 191.326Z" fill="#FFF6E1"/>
<path d="M445.735 185.486C445.735 185.672 447.413 185.393 448.315 185.331C449.962 184.989 451.517 184.43 451.703 184.026C451.828 183.777 450.988 183.622 450.025 183.808C448.097 184.181 445.766 184.896 445.704 185.455L445.735 185.486Z" fill="#FFF6E1"/>
<path d="M372.713 129.133C372.495 127.953 372.371 126.772 372.029 125.592C371.687 124.411 371.096 123.293 370.63 122.175C370.847 123.355 370.972 124.536 371.314 125.685C371.656 126.834 372.246 127.984 372.713 129.133Z" fill="#FFF6E1"/>
<path d="M132.259 214.253C132.197 213.849 131.948 213.103 131.699 212.451C130.984 210.711 130.362 209.81 129.989 209.81C130.331 210.866 130.518 211.985 131.015 213.01C131.917 214.967 132.476 215.433 132.29 214.253H132.259Z" fill="#FFF6E1"/>
<path d="M163.065 279.366C161.604 280.204 160.237 281.074 158.807 281.944C159.739 281.602 160.672 281.292 161.604 280.95L164.9 278.62L164.837 278.527V278.589C164.216 278.837 163.532 279.055 163.065 279.303V279.366Z" fill="#FFF6E1"/>
<path d="M526.311 164.299L528.207 163.554L526.249 163.927L526.311 164.299Z" fill="#FFF6E1"/>
<path d="M31.7251 349.511L31.8184 349.418L33.1862 348.331L31.7251 349.449C31.7251 349.449 31.7251 349.449 31.7251 349.48V349.511Z" fill="#FFF6E1"/>
<path d="M29.7045 351.779C32.4712 350.039 31.4453 350.07 31.7251 349.511C30.6992 350.319 29.6112 351.158 28.8962 351.841C28.7097 352.028 29.4247 351.81 29.7045 351.779Z" fill="#FFF6E1"/>
<path d="M43.5069 370.574L41.8904 370.356C41.7039 370.418 41.2065 370.511 41.3619 370.574C41.7039 370.667 42.3878 370.729 42.9162 370.822L43.5069 370.605V370.574Z" fill="#FFF6E1"/>
<path d="M157.936 280.266C157.47 280.484 156.941 280.919 156.413 281.261C156.568 281.261 156.568 281.447 156.91 281.292C157.408 281.105 158.371 280.577 158.713 280.329C160.081 279.335 159.677 279.366 157.905 280.235L157.936 280.266Z" fill="#FFF6E1"/>
<path d="M18.1092 366.535C17.8294 366.193 17.6429 365.852 17.5807 365.541C17.7051 365.883 12.296 366.318 18.1092 366.535Z" fill="#FFF6E1"/>
<path d="M336.839 17.3601L335.968 14.4089L336.248 16.4592L336.839 17.3601Z" fill="#FFF6E1"/>
<path d="M278.614 138.422C278.396 138.888 278.023 139.571 277.961 139.789C277.868 140.193 277.961 140.317 277.961 140.565L278.645 139.199V138.422H278.614Z" fill="#FFF6E1"/>
<path d="M36.699 350.257C36.699 350.257 37.5072 350.008 37.9424 349.791C38.4087 349.542 38.875 349.138 39.3413 348.828C38.502 348.983 37.6005 349.48 36.699 350.257Z" fill="#FFF6E1"/>
<path d="M90.9137 122.268C90.9137 122.268 90.8204 121.864 90.6961 121.553C90.7893 121.615 90.9137 121.709 91.038 121.771L90.7893 121.274L89.8878 120.652L90.0432 121.118C90.3541 121.522 90.8826 122.299 90.9137 122.237V122.268Z" fill="#FFF6E1"/>
<path d="M349.646 98.3165L350.268 99.3727L349.802 97.602L349.646 98.3165Z" fill="#FFF6E1"/>
<path d="M51.7137 343.64C51.2163 343.919 50.7189 344.323 50.1904 344.696L51.6204 344.168L53.1436 343.112C52.6773 343.298 52.18 343.391 51.7137 343.671V343.64Z" fill="#FFF6E1"/>
<path d="M69.6816 327.455L66.7906 329.381C61.1018 332.674 59.1122 334.662 58.4905 336.184C55.786 338.141 53.0193 340.129 54.0141 340.502C54.1384 340.533 55.1643 340.098 55.6927 339.788C60.3868 337.054 59.9205 336.464 60.2624 335.501L68.6558 328.728L69.6506 327.455H69.6816Z" fill="#FFF6E1"/>
<path d="M487.049 177.471L487.888 176.943H487.857L487.049 177.471Z" fill="#FFF6E1"/>
<path d="M229.435 202.82L230.399 203.131L231.3 203.349L230.337 203.069L229.435 202.82Z" fill="#FFF6E1"/>
<path d="M345.916 64.5484C346.227 65.6046 346.849 66.6298 347.315 67.686C347.812 68.3694 347.968 67.8724 347.47 66.0395C347.128 64.828 346.444 62.9019 346.103 62.4049C345.419 61.3176 345.108 61.7836 345.947 64.5484H345.916Z" fill="#FFF6E1"/>
</g>
<defs>
<clipPath id="clip0_2_4454">
<rect width="600" height="610" fill="white" transform="translate(0.794067 0.180908)"/>
</clipPath>
</defs>
</svg>
