<svg width="299" height="301" viewBox="0 0 299 301" fill="none" xmlns="http://www.w3.org/2000/svg">
<g clip-path="url(#clip0_2_4642)">
<path d="M98.4893 273.837C98.8966 275.097 99.0188 276.479 98.8559 278.755L99.5075 278.105C99.8333 277.414 100.2 276.682 100.566 275.91C101.014 274.243 101.3 272.983 101.462 272.089C103.051 266.601 103.132 265.788 101.218 267.902C100.811 268.39 99.9555 269.691 99.5075 270.666C99.0595 271.601 98.4079 273.552 98.4893 273.796V273.837Z" fill="white"/>
<path d="M99.8333 264.853C99.9148 265.707 100.566 265.463 101.381 264.528C102.277 263.512 102.929 262.455 102.847 262.13C102.725 261.723 102.155 261.561 101.014 262.333C99.9555 263.187 99.7519 264.122 99.8333 264.894V264.853Z" fill="white"/>
<path d="M100.689 237.416C100.078 238.472 99.5889 239.611 100.037 241.277C100.118 241.521 100.363 241.765 100.485 241.643C101.625 240.911 100.974 239.245 101.014 237.903C103.784 235.952 101.992 231.481 102.562 228.31C102.929 227.294 102.929 226.4 102.481 225.627C102.399 226.278 102.318 226.888 102.155 227.497C98.4486 229.205 100.118 233.595 100.689 237.416Z" fill="white"/>
<path d="M101.218 223.595C101.625 224.327 102.073 224.896 102.481 225.546C102.521 224.408 102.644 223.311 102.603 222.172C102.603 220.628 102.358 219.205 101.422 219.124C101.259 219.124 101.055 219.368 100.933 219.652C100.444 221.156 100.607 222.498 101.177 223.595H101.218Z" fill="white"/>
<path d="M162.514 223.92C162.554 223.676 161.21 221.847 160.518 221.237C158.807 219.733 157.626 219.286 157.748 220.262C157.748 220.628 159.052 222.091 159.581 222.823C161.414 224.408 162.391 224.652 162.514 223.92Z" fill="white"/>
<path d="M197.743 254.976C197.54 254.732 197.336 254.407 197.051 254C196.236 252.821 197.051 253.96 197.743 255.138L198.232 255.87C198.232 255.87 199.332 257.293 197.743 254.976Z" fill="white"/>
<path d="M72.8715 196.239C72.6271 196.361 72.2198 196.482 72.1791 196.645C72.1791 196.808 72.5049 196.97 72.6678 197.133C73.5638 196.889 73.6453 196.604 72.8715 196.279V196.239Z" fill="white"/>
<path d="M64.7259 195.06C64.2779 194.775 63.5448 194.491 63.3004 194.369C63.056 194.247 62.7709 194.287 62.3229 194.735C62.7709 195.06 62.9746 195.344 63.7484 195.669L64.7259 195.1V195.06Z" fill="white"/>
<path d="M102.481 225.628L102.521 225.587L102.481 225.546V225.587V225.628Z" fill="white"/>
<path d="M150.703 214.043C150.703 214.043 150.54 213.758 150.417 213.555C150.336 213.636 150.295 213.636 150.255 213.677C150.01 214.124 149.766 214.53 149.562 214.937L150.092 214.652C150.214 214.408 150.336 214.165 150.417 213.961C150.54 214.002 150.621 214.043 150.703 214.043Z" fill="white"/>
<path d="M198.151 256.642L198.395 257.293L198.517 257.455L198.151 256.642Z" fill="white"/>
<path d="M98.5301 284.527C98.0413 285.015 98.0006 284.243 97.8377 283.958C97.3897 284.812 96.9824 285.584 96.6159 286.356L95.0275 288.714C94.6202 287.373 94.2536 285.665 93.8464 283.592C93.6427 282.373 93.1947 281.316 92.0951 283.105C90.1808 286.153 90.0994 288.633 91.0769 289.243L91.4434 287.901L91.1176 289.243C90.8732 293.063 90.6288 296.844 90.3438 300.624C93.9685 296.681 97.9599 292.21 102.073 286.844C103.662 284.771 105.25 283.674 106.961 281.926C108.59 280.178 110.26 277.82 110.789 274.528C111.034 272.861 113.233 272.373 114.577 270.91C117.917 267.414 122.193 265.544 123.252 260.707L122.641 260.951L123.293 260.545C133.149 249.976 143.005 237.944 151.069 228.229L158.726 235.708C165.039 241.928 171.759 249.448 179.701 253.512C182.226 257.496 185.321 260.951 188.824 264.325C192.367 267.739 195.951 270.666 198.965 273.105C201.45 275.137 203.975 278.186 206.785 281.397C209.514 284.487 212.487 287.739 214.075 288.267C214.605 288.43 215.175 288.714 215.786 289.161C213.831 282.251 213.138 277.82 212.69 273.796C211.143 260.585 206.907 245.627 204.015 230.871C202.753 224.53 201.938 217.579 199.25 211.685L198.924 210.953L199.332 211.522C199.861 210.1 200.024 208.23 199.576 205.954C198.761 201.726 197.947 197.458 197.132 193.271L212.161 193.027H226.008C235.172 193.109 244.336 193.312 253.5 193.759C264.293 194.247 274.8 195.1 285.064 196.604C287.263 196.93 290.236 196.93 291.173 195.507C292.11 194.084 289.788 193.393 287.426 193.027C278.833 191.645 270.198 190.263 261.645 188.922C254.559 187.743 246.25 188.19 239.937 187.093C230.448 185.507 221.895 186.971 212.65 186.808C205.563 186.808 196.888 186.32 188.905 186.686C189.761 190.67 190.82 194.816 192.245 198.637L192.734 199.694L192.204 198.881C191.471 201.36 191.716 204.572 192.449 207.58C193.263 211.116 194.078 212.01 195.218 213.636C196.847 215.791 198.232 217.701 198.11 221.4C196.888 222.66 195.544 216.197 194.444 219.571C193.711 221.725 194.729 223.961 195.666 226.034C196.114 227.05 196.603 228.066 197.132 228.879C200.839 234.57 202.508 241.521 203.242 249.488C201.938 248.147 202.183 244.204 199.943 244.204C200.716 246.44 201.002 248.716 201.49 250.952C201.612 251.521 201.735 252.049 201.898 252.618C201.979 252.821 202.101 253.065 202.264 253.269C202.59 253.716 203.038 254.244 203.771 254.935C204.341 255.464 205.319 257.171 206.011 259C206.703 260.789 207.111 262.496 206.459 262.089C203.893 260.423 203.608 260.301 204.178 261.317C204.748 262.293 206.174 264.366 206.826 265.788C208.047 268.308 211.55 276.357 205.807 267.455L205.359 266.886C205.196 267.739 204.748 267.536 206.663 271.967C206.866 272.536 207.07 273.105 207.314 273.715C208.536 276.682 206.133 275.463 205.156 273.39C202.956 268.634 202.427 267.78 202.183 267.861C201.938 267.943 201.898 268.918 201.368 268.552C200.798 268.146 200.391 268.512 199.698 268.268C199.047 268.065 198.151 267.252 197.295 265.219C197.947 264.853 198.151 263.715 197.255 261.967C196.277 260.057 195.707 259.041 194.933 258.512C194.526 258.228 194.078 258.106 193.467 257.984C193.1 257.862 192.937 257.984 192.286 257.699C191.634 257.415 190.982 257.171 190.29 256.968C184.873 255.342 183.203 253.065 184.018 249.895C184.303 248.797 183.407 247.618 182.348 246.521C179.619 243.675 176.565 241.074 174.04 238.188C168.745 232.091 168.826 232.009 164.265 233.513L165.935 235.139C169.356 236.765 171.922 239.611 175.424 244.041C171.474 240.383 168.704 237.822 165.975 235.261C165.079 234.936 164.469 234.367 164.265 233.473C161.943 231.847 159.418 229.896 157.341 227.944C155.183 225.912 153.228 223.636 150.947 220.262V220.181L150.54 220.303C148.096 223.432 145.897 226.766 143.86 229.733C142.801 231.237 141.783 232.66 140.683 234.001C139.502 235.424 138.729 236.237 137.547 237.294C137.995 235.749 138.647 234.123 138.688 232.863C138.688 232.294 137.995 232.538 137.344 232.904C136.733 233.229 136.081 233.798 135.592 234.489C129.443 243.269 121.582 251.155 116.043 260.26C116.125 260.951 116.45 261.561 116.247 262.374C116.084 263.146 115.269 263.593 115.269 262.943C115.269 262.171 115.717 261.154 115.962 260.26C114.943 260.87 113.925 261.52 112.988 262.211C112.581 262.496 111.97 263.065 111.726 263.187L110.993 263.675C110.056 264.325 109.364 265.057 108.671 265.992C107.287 267.78 105.78 270.544 103.865 273.268C103.703 273.512 103.214 275.625 102.888 276.885C103.051 277.292 103.214 277.658 103.458 277.983L103.54 278.471L103.295 278.349C103.051 278.024 102.888 277.658 102.725 277.211C102.155 276.926 103.214 272.78 101.992 274.975C100.322 277.861 100.037 279.893 99.9963 281.397C99.9555 282.292 99.589 283.674 98.693 284.527H98.5301ZM197.132 265.097L196.155 263.715C196.725 263.227 196.766 264.488 197.132 265.097ZM122.315 256.358L125.37 252.781C128.058 246.968 133.515 242.7 137.222 237.456C134.411 243.106 129.768 247.822 125.533 252.74C125.003 254.529 124.026 255.87 122.274 256.398L121.623 256.642L122.274 256.358H122.315ZM110.83 268.065C110.626 268.837 110.423 269.731 110.015 270.585C109.608 271.479 109.038 272.333 108.468 273.308C107.979 270.991 109.282 269.569 110.83 268.105V268.065Z" fill="white"/>
<path d="M286.652 177.662C284.779 176.077 281.724 175.264 279.606 172.988C277.937 171.199 275.778 171.971 273.945 171.849L273.131 171.646H273.823C274.108 170.955 274.597 169.817 273.294 169.126C263.967 163.964 255.047 157.785 244.906 154.411L246.413 156.566L246.739 157.135L246.291 156.566L244.743 154.411C243.033 152.297 240.63 150.712 238.105 149.249C236.842 148.558 235.539 147.826 234.235 147.135L233.828 146.891V146.851C233.828 146.851 233.828 146.769 233.91 146.729C234.317 146.403 233.502 147.054 231.466 147.42C230.448 147.582 229.389 147.623 228.656 147.42C229.878 146.81 231.67 146.729 232.769 146.647C233.054 146.647 233.299 146.647 233.747 146.647C233.828 146.566 233.462 146.647 232.973 145.997C234.887 143.639 238.105 141.2 235.417 139.168L234.846 139.412L235.417 139.005L236.557 136.892V136.201L236.679 136.81C238.349 137.867 240.263 136.323 239.815 133.396C238.838 127.177 242.177 123.03 246.617 118.356C248.327 116.567 249.997 114.657 251.341 112.502C251.993 111.446 252.604 110.307 253.052 109.088C253.866 107.218 254.885 104.617 255.455 102.462C254.437 104.21 253.378 105.999 252.359 107.747C252.034 108.275 251.911 108.478 251.748 108.682C251.586 108.925 251.382 109.129 251.219 109.291C250.893 109.616 250.567 109.779 250.364 109.495C250.038 109.047 250.16 108.478 250.445 107.909C250.69 107.543 250.934 107.137 251.178 106.69C251.504 106.161 251.871 105.674 252.156 105.186C252.848 104.129 253.541 103.113 254.233 102.056L254.559 100.877L254.355 101.934C254.64 102.218 255.007 102.34 255.455 102.3C264.13 90.3897 254.07 97.056 259.161 89.2109C270.483 79.1707 275.33 70.3906 271.705 66.7322C269.995 65.3501 270.768 63.5616 278.059 55.3912C278.792 54.5783 279.443 53.7653 280.054 52.9523C279.729 52.6678 278.222 53.1962 275.737 54.5376C271.705 56.692 267.144 59.4967 264.17 60.9601C261.157 62.4234 259.609 62.586 260.627 59.9032C252.604 63.6429 246.454 67.6265 242.422 71.3661C242.218 70.5125 242.177 69.5369 239.652 70.0247C238.308 69.1305 236.231 69.7808 234.317 70.8377C232.403 71.9352 230.611 73.4392 229.144 74.5774C226.904 76.244 226.334 77.5854 228.819 77.4634C230.122 77.3821 231.833 76.2846 232.973 75.3497C234.521 74.0083 235.946 72.7888 237.453 71.4881C238.593 71.8539 239.571 72.2604 240.426 72.7482C240.508 73.5612 240.345 74.4554 240.548 75.1871C240.67 76.3253 236.435 80.3088 241.281 78.317C243.725 77.3415 246.372 75.5123 249.59 72.2604C252.482 69.3337 254.762 68.0736 256.473 67.5452C258.224 67.0167 259.324 67.3013 260.586 67.22C242.014 80.5121 241.729 80.9998 231.67 81.1624C229.918 81.1624 227.882 81.8128 225.398 82.7477C217.985 85.5931 215.012 89.3328 211.346 94.6984C217.048 91.6904 221.365 88.4385 224.461 87.9508C227.271 87.463 229.307 86.9752 231.262 86.3248C233.217 85.6744 235.131 84.9021 237.086 84.0485C240.915 82.3819 245.395 80.2275 248.083 79.7397C247.065 80.9185 245.517 82.5038 246.087 82.5445C246.169 82.5445 246.902 82.0161 247.065 81.8535C248.816 80.1056 248.409 79.943 248.124 79.6584C251.097 77.4634 253.459 76.3253 255.373 75.5123C254.762 76.5692 254.151 77.6667 253.581 78.7235C251.911 81.7315 252.156 82.7071 254.477 82.0974C252.319 84.4143 251.138 84.9834 249.997 85.4712C248.857 85.9183 247.798 86.3248 246.291 87.4223L245.761 87.6256L246.291 87.463C244.621 91.162 242.992 95.0643 241.118 99.6982C239.897 102.625 238.716 105.511 237.494 108.438C236.231 111.608 234.969 114.738 233.747 117.868C234.887 121.445 239.041 116.486 241.648 117.218C239.041 120.714 239.041 126.73 234.928 127.502C233.258 127.786 232.281 125.307 231.588 123.396C231.344 122.705 232.769 119.982 233.421 118.193C233.136 117.299 232.24 115.998 231.751 117.258C229.348 123.234 223.809 128.071 223.565 135.062C223.443 137.949 221.284 142.542 217.578 147.623C222.017 144.656 224.135 143.802 225.316 142.704C226.538 141.566 227.19 139.615 227.23 137.176C227.271 135.225 227.638 134.412 228.534 133.03C229.592 131.404 230.489 131.363 231.14 132.014C231.955 132.786 231.995 134.493 231.018 136.363L228.737 140.916L227.597 143.192L226.986 144.574C226.212 146.322 225.479 147.989 224.705 149.574C225.886 150.143 226.945 150.753 228.004 151.363L229.592 152.379C230.163 152.745 230.448 153.029 231.629 153.761C234.398 155.59 234.398 156.809 230.448 155.102C229.144 154.533 228.289 155.021 228.656 155.387C232.077 158.07 230.448 160.59 233.95 163.191C237.005 165.427 240.263 166.524 244.01 166.728C240.385 163.516 241.159 161.118 239.815 158.313C241.281 158.801 242.951 159.086 244.132 159.858C252.563 165.102 261.93 168.557 270.361 173.882C273.945 176.158 278.099 178.028 282.05 179.776C284.82 181.036 288.607 179.207 286.815 177.662H286.652ZM253.052 86.2435C254.885 83.7233 255.17 82.4225 254.477 82.0567L258.346 75.2277C259.365 73.4799 259.039 72.9108 260.79 70.5125C260.749 70.5125 260.668 70.5125 260.668 70.4312C261.034 70.1873 261.36 69.9028 261.768 69.6182C266.411 67.0167 264.496 72.0165 261.482 77.9105C258.346 84.0485 254.355 90.7149 251.708 97.4219C249.712 93.5196 248.368 92.6253 253.092 86.2029L253.052 86.2435ZM241.892 108.966C241.933 107.787 241.77 106.243 243.277 105.226C244.621 104.332 245.721 104.291 244.988 106.974C244.621 108.316 244.58 109.576 244.295 111.608C242.259 111.649 241.852 110.592 241.933 108.966H241.892ZM230.611 144.859L230.244 143.395C231.466 142.582 230.733 144.127 230.774 144.737L232.851 145.956C231.751 146.485 231.14 145.672 230.611 144.899V144.859ZM261.034 165.468L260.546 164.98L261.279 165.305L261.034 165.468ZM267.347 169.004L266.859 168.476L267.632 168.76L267.347 168.963V169.004Z" fill="white"/>
<path d="M45.6245 94.9829C43.2623 94.3325 44.9728 97.2592 47.4572 99.7795C51.7337 104.088 55.1955 108.072 58.6574 112.259L60.7345 114.901L62.5673 117.299L66.1513 122.096C66.3957 122.949 66.7623 124.291 67.6175 124.494C68.595 124.738 67.4954 123.234 67.1695 122.461C69.9798 121.73 71.9754 125.835 74.2969 127.99C74.5006 128.599 74.582 129.25 74.9486 129.859C76.7406 132.827 78.7363 135.753 81.7909 136.851C82.1981 137.014 82.6869 136.566 82.6054 136.16C82.076 132.42 78.7363 131.079 76.2926 128.965L75.4373 128.193C76.2926 126.892 75.6002 125.185 73.3602 123.112L72.79 122.705L73.3195 122.868C77.1071 124.616 81.5872 124.291 82.7683 131.973C83.0942 134.006 86.556 136.485 88.7146 136.241L89.4477 137.176C90.9954 139.412 92.991 141.363 93.6834 139.818C94.2129 138.599 91.8507 137.095 90.4659 136.038C89.8957 135.591 89.2848 135.428 88.7146 135.144C86.9226 130.591 82.9312 126.892 79.7137 122.949C77.8403 120.632 75.7224 118.6 73.8896 118.844C69.491 119.372 65.4997 114.372 61.3047 110.064C58.2501 106.893 55.5621 103.478 52.5889 100.186C50.7562 98.1942 47.9052 95.6333 45.6245 95.0236V94.9829Z" fill="white"/>
<path d="M91.0361 255.138C91.199 256.277 91.2805 257.293 91.3212 258.512C91.3212 259.813 91.3212 261.073 91.2397 262.374C91.0768 264.935 90.9139 267.496 90.751 270.097C90.5474 274.772 90.9139 279.975 92.9096 276.804C93.602 275.707 94.2943 273.593 94.7423 271.56C95.1496 269.528 95.3125 267.577 95.0274 266.154C94.2943 262.252 95.5162 260.951 97.2675 260.951C98.2042 260.951 99.141 261.439 99.6704 259.813C100.118 259 100.118 255.626 99.0595 254.366C97.5118 252.374 95.7198 251.074 93.9685 249.407C92.2579 249.691 90.4659 251.236 91.0361 255.098V255.138Z" fill="white"/>
<path d="M152.047 44.7413C152.047 42.9528 152.25 40.3106 151.273 40.3106L151.517 44.7006C150.947 42.7902 150.051 42.0991 149.44 41.0016C148.788 39.8228 148.422 38.2782 148.422 32.75C148.422 29.62 148.422 25.1893 147.648 24.9861C146.874 24.8235 146.63 29.5387 146.508 33.6442C146.345 39.9041 146.63 42.0585 147.363 43.8877C148.055 45.6356 148.91 47.5054 149.684 49.9037C150.458 52.2613 151.191 55.2286 151.436 58.2366C151.517 59.4561 151.924 60.5536 152.78 61.0007C153.635 61.4885 154.042 60.5942 154.449 59.3748C156.486 53.0336 155.834 50.1069 152.087 44.8226L152.047 44.7413Z" fill="white"/>
<path d="M31.3697 191.97C30.6366 193.109 28.1929 193.881 23.4685 195.344C23.7943 194.775 24.1201 194.125 24.9754 193.352C25.8714 192.499 26.4416 191.727 22.3281 192.418C18.5404 193.068 14.0196 194.125 10.6392 195.995C7.25878 197.864 0.864494 200.629 2.12706 201.198C3.10453 201.563 1.92342 202.376 0.172119 203.352C2.90089 203.352 5.14092 203.433 8.68425 203.108C5.67039 204.206 4.00054 205.181 8.92862 205.019C22.8983 204.572 34.2614 204.49 45.6652 204.693L62.7709 205.141L76.1704 205.75C78.5734 205.872 81.5872 205.669 83.5422 205.263C85.1305 204.856 86.5968 204.287 86.8411 203.637C88.2259 199.572 93.2761 199.125 98.7337 199.45C98.53 201.36 98.3264 203.393 98.082 205.466C97.9598 206.401 98.0413 207.295 98.0006 208.189C97.9191 210.791 98.4079 212.701 99.5482 212.457C100.607 212.173 100.322 209.287 100.689 207.458C101.422 203.759 101.829 199.938 102.073 196.279C93.3576 195.954 82.4832 196.767 77.5959 197.295C76.0482 198.23 77.5959 199.125 77.7181 200.06C77.881 202.458 77.1886 203.759 71.7718 201.482C70.1427 200.791 66.3143 201.401 63.504 201.401C56.9061 201.442 49.9824 201.523 43.2623 201.401C36.5829 201.279 30.0664 201.035 25.2605 200.466C35.8905 198.027 36.5829 198.759 39.2302 199.368C42.4884 200.222 48.394 200.71 54.6253 199.409C56.5396 199.003 58.2909 198.515 58.413 197.295C58.5352 196.442 57.7207 196.239 56.7025 196.239L38.7007 195.954C35.6869 195.954 30.3108 196.726 20.6175 198.596C18.907 198.881 16.8298 199.287 14.3047 199.816L20.9841 196.808C23.1427 196.97 26.3602 196.482 29.1704 195.873C32.0213 195.222 34.3836 194.491 35.7276 193.759C38.2934 192.377 41.7146 190.914 44.4026 189.532C47.1721 188.109 49.2085 186.808 51.082 184.735C46.3576 184.735 41.6331 186.076 38.0898 187.58C34.5058 189.125 32.1435 190.792 31.329 192.052L31.3697 191.97ZM45.6245 198.027L45.7467 198.23L44.9728 198.312L45.6245 198.027ZM23.1834 199.368C22.4503 199.856 21.8801 200.385 21.4321 200.913C18.1739 201.685 15.0378 202.173 12.2276 202.376C11.8203 201.767 11.7796 201.157 12.0239 200.547L12.7163 200.303L12.4312 200.466C15.0785 200.466 19.3142 199.938 23.1834 199.409V199.368Z" fill="white"/>
<path d="M94.0093 157.663C96.2086 156.647 98.4079 155.631 100.607 154.614C98.4893 151.972 96.0864 149.086 93.4798 146.485C92.1358 145.143 90.9139 144.046 89.407 142.826C87.9001 141.607 86.3117 140.469 84.6418 139.453C85.1713 143.68 89.407 145.143 89.6106 146.729C90.1808 149.655 91.8914 151.119 94.4165 153.476C93.4798 154.167 92.3802 154.94 91.0769 155.59C89.7736 156.24 88.7961 156.891 89.4885 157.866C90.1808 158.883 92.2172 158.557 93.9685 157.744L94.0093 157.663Z" fill="white"/>
<path d="M139.584 38.522C138.525 43.6438 137.71 47.8712 136.692 51.1637C135.633 54.4969 134.33 56.8952 131.723 59.9438C131.072 60.7162 131.275 62.0169 131.601 62.7079C132.131 63.8461 132.66 65.4314 133.882 64.4152C134.33 64.0493 134.696 63.6022 135.022 63.0331C135.389 62.4234 135.674 61.8137 135.878 61.4072C136.244 60.4316 136.692 59.3341 137.222 58.074C137.547 56.0822 138.321 54.0498 139.054 51.8954C139.787 49.7004 140.521 47.4241 141.172 43.9283C141.62 41.53 141.905 39.2944 141.417 37.14C140.969 35.3514 140.317 35.1076 139.625 38.4814L139.584 38.522Z" fill="white"/>
<path d="M96.4936 203.596C96.6158 202.702 96.6565 201.97 96.6565 201.401C92.4616 201.401 92.6652 203.027 92.543 204.572C92.2579 204.693 91.9728 204.815 91.7692 204.937C91.6877 204.978 91.7692 205.181 91.8914 205.181C92.1357 205.181 92.4616 205.019 92.7466 204.937H92.9096L92.7874 206.563C92.5837 208.311 92.4208 209.937 92.3394 211.522C92.2579 213.148 92.2172 214.327 92.3394 216.644C92.543 220.75 93.3576 224.489 95.3125 227.66C91.7285 229.53 93.5205 236.603 92.0543 240.627C91.4026 242.415 91.8506 244.732 92.8688 245.423C93.8463 246.074 94.8238 244.854 95.394 243.106C96.9823 238.107 96.4529 233.107 95.5976 228.229C97.186 224.002 97.8784 219.083 96.6565 214.896C95.5161 210.831 95.9642 208.149 96.4936 203.637V203.596Z" fill="white"/>
<path d="M124.27 81.9754V82.9916C124.352 86.2841 125.288 89.2921 121.215 91.8936C119.953 92.544 120.075 95.4707 120.482 97.0966C120.971 98.9665 122.112 98.6006 123.252 95.9585C123.822 94.6171 124.352 93.1131 124.759 91.853C125.085 90.7961 125.329 89.9425 125.451 89.4954C126.836 85.7963 127.651 83.5607 128.506 81.2843C129.524 78.4389 130.053 75.8781 128.709 74.618C128.099 74.0082 127.365 73.6424 126.347 74.7399C124.27 76.9756 124.27 79.4958 124.27 81.9347V81.9754Z" fill="white"/>
<path d="M94.8238 161.403C95.9642 163.354 100.648 160.996 104.761 159.045C106.553 158.191 108.223 157.297 109.73 156.403C105.861 152.379 101.055 148.111 95.5569 143.802C99.0595 149.249 101.503 152.501 102.969 155.102C101.748 155.549 100.729 155.915 99.7112 156.2C97.5526 156.85 96.1678 157.622 95.3125 158.557C94.498 159.452 94.1722 160.508 94.7831 161.403H94.8238Z" fill="white"/>
<path d="M158.889 68.5613C153.553 66.976 153.146 67.8297 155.997 75.6342C157.097 78.6422 158.034 81.5689 158.767 84.6582C159.948 89.4141 161.699 90.0238 163.573 89.6579L164.469 90.1864L163.776 88.723C160.274 82.4631 158.319 75.7561 158.848 68.5207L158.889 68.5613Z" fill="white"/>
<path d="M219.085 81.5689C219.94 81.8535 220.184 82.7884 222.18 81.6909C222.465 81.5283 222.75 81.2437 222.791 81.0405C223.035 79.821 221.325 80.3901 220.021 80.5527C220.184 79.2926 222.628 76.7317 217.7 78.2764C208.292 81.2437 207.151 82.3819 208.129 88.2759C211.672 85.6744 217.008 85.0241 219.085 81.5689Z" fill="white"/>
<path d="M58.4538 177.906C57.7614 177.947 55.6843 179.938 54.9512 180.914C53.8515 182.296 55.3177 182.743 56.9469 182.377C58.6167 181.93 59.3498 181.727 61.6713 180.589C63.667 179.613 65.5812 178.516 67.4954 177.418C70.4685 175.711 72.342 173.76 72.2606 171.484C66.7623 172.784 63.6262 177.703 58.4538 177.947V177.906Z" fill="white"/>
<path d="M145.082 13.889C145.774 12.3443 146.263 9.98671 146.589 7.3852C146.711 6.85677 146.833 5.92185 146.874 4.7024C146.915 3.44229 146.955 2.22283 146.874 1.00337C146.711 -0.744515 146.019 0.190403 144.838 3.80813C142.679 10.5151 140.195 16.6124 138.891 24.9047C136.285 29.62 133.23 36.9774 132.619 45.3916C134.493 43.034 135.511 40.5951 136.366 37.5058C137.222 34.4165 137.873 30.7175 138.728 26.8559C139.991 29.1322 140.887 27.5063 141.905 24.295C142.883 21.1244 144.064 16.2059 145.041 13.9296L145.082 13.889Z" fill="white"/>
<path d="M130.298 58.3179C131.112 53.9278 131.642 48.9281 129.361 47.3428C128.384 49.6597 127.406 52.18 126.592 54.6595C126.184 55.9196 125.818 57.1391 125.492 58.3992C125.288 59.2122 125.166 60.0251 125.044 60.8381C124.677 63.6022 125.044 65.8785 126.958 65.0656C127.895 64.6591 128.628 63.6835 129.157 62.464C129.687 61.2446 129.972 59.9032 130.298 58.3179Z" fill="white"/>
<path d="M164.143 62.017C164.306 60.7568 163.043 55.9603 161.821 52.5865C160.559 49.0907 159.133 46.4892 158.034 45.9608C156.527 45.2697 156.079 47.3022 157.3 52.5865C158.196 55.188 159.418 58.7244 160.681 62.2608C161.21 63.6835 161.658 65.4314 162.636 65.3908C163.735 65.3501 164.183 63.8868 164.183 62.017H164.143Z" fill="white"/>
<path d="M172.492 92.3001C170.618 87.5036 170.618 80.512 165.894 77.5447C166.138 82.4632 167.238 86.8938 168.663 91.2026C169.315 93.1537 170.293 94.4138 171.392 93.7228C171.881 93.3976 172.858 93.1944 172.492 92.2595V92.3001Z" fill="white"/>
<path d="M72.3012 165.183C67.4546 167.297 62.16 168.719 58.413 172.622C56.2952 173.882 51.1635 175.101 48.4347 177.622C52.9148 177.662 54.5439 178.028 56.0915 177.459C57.6392 176.89 58.9425 175.508 61.5898 172.662C65.5404 171.402 69.6132 172.215 73.4824 168.069C74.3784 167.134 75.9668 166.159 75.5188 165.346C75.1115 164.614 73.8082 164.533 72.2605 165.183H72.3012Z" fill="white"/>
<path d="M116.695 88.7231C115.799 88.6011 115.147 89.2109 114.984 90.0238C114.658 91.3652 114.088 92.5847 113.803 94.1293C112.418 94.048 111.319 94.6171 110.545 96.9341C112.5 97.5032 114.251 97.7877 115.799 97.991C116.369 95.674 116.858 93.6416 117.713 91.8124C118.324 90.4303 117.876 88.845 116.695 88.7231Z" fill="white"/>
<path d="M120.075 73.4798C119.383 76.5691 117.346 81.3656 119.138 82.3819C120.971 83.4387 122.804 79.3332 124.189 75.9594C125.573 72.5043 125.166 71.0003 123.211 71.2035C122.234 70.6344 120.89 69.8621 120.075 73.4392V73.4798Z" fill="white"/>
<path d="M91.6877 90.3083C92.4616 89.2108 91.4841 87.5442 88.959 87.0971C86.7596 86.7313 84.4789 86.1215 82.0352 85.7557C80.8134 85.5525 79.5915 85.4305 78.2882 85.3899C77.1886 85.3899 75.1115 85.2679 73.6453 85.4712C76.4962 86.3654 79.0621 87.1784 81.4243 87.9507C83.5829 88.6417 85.5378 89.3328 87.4113 90.1457C89.9364 91.2433 91.0768 91.2433 91.7285 90.349L91.6877 90.3083Z" fill="white"/>
<path d="M40.9815 80.3901C38.5378 79.6178 38.2527 79.9836 38.8636 80.7966C40.7371 82.2193 42.4477 83.5607 44.2805 84.9427H44.3212C46.5205 86.0402 47.5794 86.4467 47.8238 86.3654C50.5526 87.6255 50.4711 87.0158 50.9191 86.528C51.1635 86.1622 50.5526 85.146 47.8645 83.2761C44.5656 81.0405 43.0179 80.9998 41.0222 80.3494L40.9815 80.3901Z" fill="white"/>
<path d="M41.9182 184.532C43.5881 183.028 43.4659 181.646 39.108 182.377C36.5421 182.784 31.166 184.369 31.8584 185.67C32.5508 186.686 27.0118 189.044 32.0621 188.922C37.4789 187.377 40.0855 186.117 41.8775 184.532H41.9182Z" fill="white"/>
<path d="M288.852 187.296C285.634 185.467 282.905 184.654 282.091 186.524C281.643 187.54 282.987 189.003 285.023 189.857C287.752 190.995 291.132 192.621 291.784 190.507C292.11 189.491 291.336 188.231 288.892 187.296H288.852Z" fill="white"/>
<path d="M92.3801 93.9667C89.6106 93.4383 87.1262 93.3163 86.8411 94.9829C86.7189 95.7146 87.452 96.7308 89.0404 97.2999C93.0317 98.7632 93.0317 96.8934 94.0907 95.9991C94.8645 95.3488 94.4572 94.5764 92.3801 93.9667Z" fill="white"/>
<path d="M55.5621 99.0071L57.1098 100.552C55.8472 101.04 55.2363 102.34 58.9018 104.576C60.8975 105.795 62.8931 106.202 62.8931 104.739C63.0153 103.438 60.2458 102.787 58.9018 101.405C60.2458 100.47 59.9607 99.8608 58.6574 98.8446C57.3949 97.869 55.0734 96.4869 53.4035 95.1862C51.9373 94.0887 49.3715 92.6253 48.9642 93.0318C48.394 93.6822 49.7787 94.9016 51.3264 95.9992C52.9148 97.0967 54.6661 98.1129 55.5621 99.0478V99.0071Z" fill="white"/>
<path d="M107.857 96.0398C106.309 94.3325 108.142 92.3814 102.847 90.8774C102.277 90.7148 101.096 90.8774 101.014 91.0806C100.241 93.0318 102.481 94.6577 106.105 96.0398C106.391 96.1617 106.798 96.0398 107.897 96.0398H107.857Z" fill="white"/>
<path d="M81.2614 92.1376C79.3879 91.6091 77.1479 91.4059 76.374 92.2595C75.5188 93.1944 76.9442 94.2106 79.1435 94.861C81.3428 95.5114 82.7683 95.2268 83.5829 94.3732C83.7051 93.5196 82.8905 92.5847 81.3021 92.1376H81.2614Z" fill="white"/>
<path d="M38.4156 78.1544C40.7778 79.0487 40.9 78.3983 38.6193 76.9349C35.4832 74.9025 31.3697 72.9514 27.4191 71.5287C25.0161 71.0003 25.7085 71.8539 27.7042 73.1953C31.8177 75.8781 35.4832 77.0569 38.4156 78.1951V78.1544Z" fill="white"/>
<path d="M67.6175 199.043C70.1427 197.702 67.3324 197.133 65.0924 196.726L64.0742 197.295C63.3818 197.661 62.7709 197.946 62.0785 198.271C61.4269 198.596 60.8974 198.921 61.3047 199.409C62.8524 201.157 66.192 199.897 67.6583 199.084L67.6175 199.043Z" fill="white"/>
<path d="M173.877 101.609C175.465 100.47 175.709 99.0071 176.035 97.6657C176.198 96.8934 176.035 96.5682 175.709 96.8121C175.017 97.747 173.917 99.0884 173.307 100.796C173.021 101.527 173.103 102.178 173.877 101.609Z" fill="white"/>
<path d="M31.3697 80.6746C32.0621 81.6909 34.017 83.7639 34.9537 83.7639C36.1756 83.8452 40.2484 86.0403 37.8047 83.2355C36.9087 82.2193 35.6054 81.0811 32.4286 78.9268C30.3515 77.9512 29.822 78.4796 31.3697 80.634V80.6746Z" fill="white"/>
<path d="M182.592 98.1129C185.566 97.7877 186.258 96.2024 186.828 94.7797C189.964 94.2512 193.67 95.0236 195.34 91.1619C195.503 90.918 195.87 90.5929 195.788 90.5116C195.544 90.2677 195.096 90.1457 194.689 89.9425C193.67 89.7799 192.856 90.1457 192.245 90.9587C189.516 91.6091 186.014 91.3245 185.403 94.4545C183.774 95.0236 182.185 93.8854 180.637 95.7552C179.131 97.5438 180.271 98.3567 182.592 98.1129ZM194.444 90.227C194.526 90.4709 194.566 90.7961 194.526 91.0806L192.449 90.9994L194.444 90.227Z" fill="white"/>
<path d="M104.558 97.178C101.707 96.6902 102.114 97.9503 102.073 98.8852C102.073 99.2917 102.073 99.6982 102.073 100.064L101.381 100.186L101.666 100.47L102.318 100.349C103.825 100.714 105.861 101.243 106.268 100.349C106.635 99.5356 109.975 99.8201 107.735 98.2348C107.083 97.747 105.617 97.3812 104.517 97.178H104.558Z" fill="white"/>
<path d="M149.521 17.019C150.214 14.8239 149.644 10.9623 149.114 7.38526C148.625 5.02764 148.177 4.21467 147.933 5.71866C147.485 8.64536 147.77 12.5476 148.422 15.5556C148.707 16.7751 149.318 17.6693 149.521 17.019Z" fill="white"/>
<path d="M258.346 170.467C257.858 170.102 256.799 169.736 256.391 169.776C255.088 169.939 253.948 170.305 252.726 170.589L251.871 168.719C249.997 168.516 251.097 169.614 251.545 170.427C255.943 174.654 257.287 172.622 259.079 171.687C259.283 171.606 258.754 170.752 258.306 170.427L258.346 170.467Z" fill="white"/>
<path d="M264.659 176.199C262.541 174.857 261.157 174.939 260.261 175.63C259.772 175.996 259.69 176.646 259.405 177.174L262.663 178.15C264.537 178.719 266.329 179.085 266.166 177.621C266.166 177.296 265.27 176.605 264.659 176.199Z" fill="white"/>
<path d="M76.7813 161.199C76.9442 162.053 76.7813 162.582 77.1071 162.785C78.0439 163.395 79.0213 165.102 81.2207 162.785C82.9312 160.996 80.3246 160.59 76.7813 161.199Z" fill="white"/>
<path d="M289.748 183.759C292.762 184.166 291.58 182.174 291.458 180.792C291.458 180.711 290.929 180.426 290.073 179.817C288.607 180.304 287.263 180.833 288.119 182.703C288.241 182.987 289.34 183.719 289.748 183.759Z" fill="white"/>
<path d="M145.123 19.4985C144.715 20.1082 144.227 21.7748 144.023 24.0105C143.779 27.1404 144.064 28.2379 144.593 26.8152C144.878 26.1242 145.204 23.7259 145.367 22.8723C145.815 18.6855 145.449 18.8481 145.082 19.4578L145.123 19.4985Z" fill="white"/>
<path d="M203.608 91.975C201.042 92.4627 201.124 93.8041 200.757 94.861C196.766 97.2186 193.019 100.999 188.783 98.4787C187.398 97.6658 184.588 99.1291 183.896 100.836C183.407 102.096 185.28 102.747 183.896 104.332C181.737 104.332 179.619 104.942 177.583 105.674C175.506 106.446 173.306 107.381 171.433 107.869C174.243 106.161 176.035 104.617 177.379 102.544C174.08 104.332 171.677 105.633 169.885 106.812C168.582 104.657 167.523 105.674 164.265 107.34C165.324 109.21 166.179 110.998 166.912 112.828C172.003 110.064 176.117 108.478 181.126 107.015C182.511 106.608 183.692 105.308 184.832 104.495L197.947 98.8852C200.472 97.8283 201.816 96.5682 201.979 95.1049C203.282 94.6984 204.83 95.4301 205.685 94.2106C206.663 92.7879 206.092 91.5278 203.527 91.975H203.608Z" fill="white"/>
<path d="M155.142 31.4086C155.142 28.1567 154.409 25.8804 153.716 24.6609C153.024 23.4008 152.047 19.7018 151.843 24.6609C152.82 29.051 153.798 31.2053 155.101 31.4086H155.142Z" fill="white"/>
<path d="M272.316 178.434C270.28 177.337 269.506 178.678 269.954 180.142C270.524 180.182 271.461 180.426 271.583 180.264C271.949 179.695 275.004 179.898 272.316 178.475V178.434Z" fill="white"/>
<path d="M201.612 84.3737C200.105 85.2679 199.78 86.2435 200.35 86.8939C200.472 87.0565 201.612 86.65 202.305 86.528C203.527 85.5931 204.667 84.6582 203.567 84.0891C203.282 83.9265 202.06 84.0891 201.612 84.3737Z" fill="white"/>
<path d="M220.917 156.037C219.37 155.753 219.329 156.281 220.551 157.135C221.976 158.151 223.687 159.086 225.275 159.126C225.275 158.72 225.56 158.354 225.235 157.988C224.176 156.769 222.547 156.362 220.958 156.037H220.917Z" fill="white"/>
<path d="M66.9252 112.746C67.7397 113.844 68.5543 114.088 69.1245 113.803C69.654 113.519 69.8169 112.99 69.206 112.096C68.1878 110.958 67.3732 110.551 66.7623 110.795C66.1921 110.998 66.1514 111.771 66.9252 112.787V112.746Z" fill="white"/>
<path d="M69.6947 91.4465C69.5318 91.975 69.9798 92.7473 70.7943 92.9099C71.3645 93.0318 71.8533 92.666 72.4235 92.544C72.0976 92.0156 71.9347 91.4465 71.5682 91.2433C70.6314 90.7961 69.8576 90.9181 69.6947 91.4465Z" fill="white"/>
<path d="M56.0101 81.4876C55.4399 80.7559 54.9104 79.9836 52.9555 79.1706C52.7926 79.0893 52.3446 79.5364 52.5889 79.9429C52.9962 80.634 53.8515 81.4876 55.6028 82.2599C55.725 82.3412 55.8064 81.7721 55.9694 81.4876H56.0101Z" fill="white"/>
<path d="M178.031 99.8201C178.112 99.3323 177.868 99.0884 177.501 99.2917C177.257 99.4543 177.053 99.9014 176.809 100.267C177.094 100.267 177.379 100.389 177.705 100.308C177.787 100.308 177.99 99.942 178.031 99.7795V99.8201Z" fill="white"/>
<path d="M244.01 163.029C244.01 163.029 244.458 163.842 244.703 164.289C245.313 164.817 246.047 165.102 246.372 164.817C246.576 164.614 246.495 164.045 246.169 163.679C245.476 162.988 244.458 162.5 244.051 163.029H244.01Z" fill="white"/>
<path d="M243.766 124.86C244.173 124.453 244.703 124.087 244.988 123.6C245.273 123.112 245.273 122.461 245.436 121.852C245.028 122.258 244.499 122.624 244.214 123.112C243.929 123.6 243.929 124.25 243.766 124.86Z" fill="white"/>
<path d="M128.791 69.7808C128.791 69.7808 129.239 69.3744 129.402 69.0492C129.809 68.2362 129.768 67.7078 129.402 67.4639C129.035 67.8704 128.506 68.2362 128.302 68.7646C127.936 69.6995 128.221 70.1467 128.791 69.7808Z" fill="white"/>
<path d="M118.12 103.682C117.346 103.479 116.654 103.397 115.88 103.235L117.428 104.373H119.098V104.291C118.772 104.088 118.365 103.763 118.12 103.682Z" fill="white"/>
<path d="M276.837 185.02L277.814 185.304L277.081 184.654L276.837 185.02Z" fill="white"/>
<path d="M43.8324 77.6666L44.0768 77.3821L43.751 77.626L43.8324 77.6666Z" fill="white"/>
<path d="M44.7285 79.2113C45.8689 79.3332 44.4027 78.317 43.8325 77.6666C43.7103 77.9105 43.5066 78.1138 43.5881 78.439C43.5881 78.5202 44.3212 78.9267 44.7285 79.2113Z" fill="white"/>
<path d="M43.6695 90.5929L43.4251 90.0644C43.14 89.9019 42.6106 89.5767 42.5699 89.5767C42.5291 89.658 42.692 89.9018 42.8142 90.1051L43.6695 90.5929Z" fill="white"/>
<path d="M115.188 100.511C114.943 100.43 114.658 100.47 114.414 100.43C114.495 100.592 114.536 100.796 114.74 100.918C114.984 101.08 115.514 101.283 115.717 101.283C116.41 101.243 116.165 100.877 115.229 100.511H115.188Z" fill="white"/>
<path d="M41.7553 83.9672C42.5292 84.2517 43.3844 84.5769 44.2397 84.9021C43.3844 84.5769 39.3931 81.6096 41.7553 83.9672Z" fill="white"/>
<path d="M275.411 60.7975L276.104 59.5374L274.923 60.8381L275.411 60.7975Z" fill="white"/>
<path d="M201.449 89.7393C201.205 89.7799 200.839 89.8206 200.757 89.9018C200.594 90.0644 200.635 90.227 200.594 90.3896L201.327 90.227L201.49 89.7393H201.449Z" fill="white"/>
<path d="M52.7518 84.333C52.7518 84.333 53.5257 84.8208 53.77 84.9021C54.0144 84.9834 54.0551 84.8614 54.1773 84.8208C53.2813 84.211 52.7518 84.0078 52.7518 84.333Z" fill="white"/>
<path d="M145.245 31.2459C145.245 31.2459 145.326 31.3272 145.408 31.2459C145.408 31.3272 145.408 31.4085 145.408 31.5305L145.53 30.433L145.449 29.7013H145.367C145.326 30.2704 145.204 31.1646 145.245 31.2459Z" fill="white"/>
<path d="M236.679 101.731L236.761 102.381L237.249 101.649L236.679 101.731Z" fill="white"/>
<path d="M62.1193 89.1702C61.9156 89.0889 61.8342 89.2108 61.712 89.2921L62.5673 89.8612L62.9338 89.7393C62.6487 89.536 62.3229 89.2921 62.0785 89.2108L62.1193 89.1702Z" fill="white"/>
<path d="M68.595 84.0078L66.6808 83.8046C62.8524 82.829 61.9971 83.6013 62.3637 85.0647C61.0604 85.1866 59.9607 85.3492 61.3455 86.8532C61.5084 87.0158 62.1193 87.3816 62.3637 87.4223C64.5222 87.9507 63.7891 86.7313 63.5448 85.7963C64.7259 85.3492 66.1921 84.9427 67.9434 84.6582L68.595 84.0078Z" fill="white"/>
<path d="M258.794 177.256L259.365 177.174L258.794 177.256Z" fill="white"/>
<path d="M164.387 98.6819L164.835 99.0071L165.242 99.251L164.835 98.9258L164.387 98.6819Z" fill="white"/>
<path d="M252.563 89.4954C252.278 90.0238 252.482 90.4303 252.441 90.9181C252.726 91.162 253.337 90.7961 253.948 89.7799C254.355 89.0889 254.722 88.0727 254.559 87.9101C254.233 87.5443 253.337 88.0727 252.563 89.4954Z" fill="white"/>
</g>
<defs>
<clipPath id="clip0_2_4642">
<rect width="298.739" height="300.8" fill="white" transform="translate(0.172119 0.14978)"/>
</clipPath>
</defs>
</svg>
