<svg width="297" height="185" viewBox="0 0 297 185" fill="none" xmlns="http://www.w3.org/2000/svg">
<path d="M1.26315 31.4706C12.4921 29.9663 23.721 28.2545 35.0016 27.0096C68.1709 23.3267 101.34 19.7475 134.509 16.3239C163.643 13.3153 192.827 10.5661 221.96 7.60939C242.297 5.5345 262.633 3.30399 282.969 1.17723C284.056 1.07349 285.143 1.02162 286.177 1.02162C298.027 0.710384 297.976 1.02162 292.801 11.7073C284.78 28.1508 277.536 44.9574 269.567 61.4528C258.131 85.1065 246.229 108.553 234.69 132.155C227.083 147.768 219.787 163.485 212.439 179.203C210.059 184.286 205.402 185.79 200.175 181.9C190.033 174.275 180.253 166.131 170.318 158.246C165.247 154.252 160.434 149.791 154.897 146.575C152.517 145.175 148.067 145.278 145.48 146.575C131.922 153.215 118.727 160.477 105.376 167.428C101.961 169.191 98.5459 171.111 94.8719 172.356C88.6624 174.482 85.1954 172.044 84.8332 165.664C83.9535 150.777 83.3843 135.889 82.3494 121.054C81.6249 110.731 80.59 100.461 79.2446 90.19C79.0376 88.5819 76.8125 86.9739 75.1567 85.8327C52.7506 70.5304 30.241 55.3318 7.78317 40.0295C5.19586 38.2659 2.97078 35.9316 0.590454 33.8567C0.745693 33.0786 0.952677 32.3006 1.10792 31.5225L1.26315 31.4706ZM125.195 109.227C130.629 113.792 134.716 117.267 138.856 120.639C149.671 129.509 160.486 138.379 171.353 147.094C180.771 154.615 190.24 162.085 199.813 169.399C203.021 171.837 205.764 171.992 207.834 167.324C213.422 154.512 219.27 141.803 225.427 129.25C235.828 107.93 246.695 86.8701 257.044 65.5507C264.134 50.9746 270.809 36.1391 277.639 21.4074C277.122 20.8887 276.604 20.3181 276.087 19.7994C226.1 49.4184 176.113 79.0374 125.195 109.227ZM252.284 15.1827C242.555 13.1597 26.4118 36.9172 23.6692 39.7702C40.2798 50.819 57.2007 61.5046 73.449 73.124C81.4179 78.8299 88.5072 79.4524 97.4075 75.8732C138.287 59.4297 179.373 43.3493 220.408 27.2171C230.706 23.1711 241.107 19.3844 252.335 15.1827H252.284ZM229.05 36.1391C229.05 36.1391 228.791 35.8279 228.636 35.6204C224.962 36.8653 221.288 37.9546 217.666 39.3033C201.159 45.5799 184.651 51.8045 168.248 58.2367C143.824 67.833 119.4 77.5331 95.0789 87.4926C92.8538 88.4263 89.8008 91.4868 89.956 93.406C90.8875 109.331 92.4916 125.256 93.9405 141.128C94.044 142.27 94.7684 143.307 95.2859 144.604C98.3389 138.12 102.065 132.362 103.876 126.034C107.55 113.169 114.328 103.884 126.385 97.0371C160.952 77.3256 194.897 56.473 229.101 36.0872L229.05 36.1391ZM103.048 153.474L104.238 155.29C117.899 150.777 130.059 143.152 142.168 135.734C136.942 131.273 132.026 126.864 126.903 122.766C122.246 119.031 116.864 119.602 115.001 123.959C110.861 133.711 107.032 143.618 103.048 153.474Z" fill="#FFF6E1"/>
</svg>
