<svg width="576" height="542" viewBox="0 0 576 542" fill="none" xmlns="http://www.w3.org/2000/svg">
<g clip-path="url(#clip0_2_4436)">
<path d="M300.427 6.19043L337.383 170.968L504.257 104.326L411.264 244.36L554.595 324.814L386.172 350.548L413.556 501.637L300.427 356.958L187.329 501.637L198.512 348.07L46.2585 324.814L197.52 253.898L96.5965 104.326L255.107 152.852L300.427 6.19043Z" fill="#FBD75E"/>
<path d="M267.591 95.2526L267.374 96.5222L267.467 95.4384C265.701 97.1725 263.843 100.92 261.953 106.958C259.63 114.39 257.214 121.668 254.736 128.883L252.877 134.271L251.979 136.842L251.483 138.049L249.655 142.509C247.828 141.797 246 141.053 244.172 140.341C244.017 140.465 242.747 140.248 241.849 140.093C241.539 140.031 240.951 139.753 240.455 139.598L242.499 140.031C243.181 140.155 244.017 140.372 244.11 140.31C243.986 140.186 243.986 140.124 243.801 140L243.026 139.567C242.499 139.288 241.973 139.04 241.415 138.824C240.3 138.359 239.154 137.988 237.977 137.647C235.592 136.966 233.02 136.47 230.325 135.82C217.996 133.002 204.305 129.286 194.516 124.548C186.09 120.491 177.014 119.128 169.331 115.939L167.473 116.62L168.247 117.085L167.101 116.558C162.857 114.886 161.742 112.966 153.843 111.479C150.28 110.798 146.346 109.869 142.598 108.661C141.668 108.352 140.739 108.042 139.81 107.701C138.602 107.237 137.394 106.772 136.216 106.339C133.274 105.224 130.424 104.016 127.636 102.685C125.56 101.694 116.422 98.659 114.78 98.4112C108.461 97.3583 101.274 95.0048 93.282 92.2178C85.3828 89.4926 76.5852 86.303 69.8322 84.4759C71.9387 87.4178 74.2619 90.4526 76.8331 93.5494C77.0809 95.4074 80.0547 99.6809 82.7497 103.273C85.5067 106.927 88.0159 109.931 88.2017 110.427C89.8745 114.731 92.4766 118.633 95.0477 121.885C97.6498 125.167 100.221 127.892 102.699 131.082C105.58 134.798 109.018 140.589 109.359 141.766C109.483 142.199 109.638 142.695 109.824 143.221C109.917 143.469 110.041 143.747 110.134 144.026C110.258 144.336 110.35 144.584 110.381 144.707C110.598 145.42 110.908 146.163 111.28 146.937C112.023 148.485 113.015 150.127 114.13 151.799C116.329 155.113 118.993 158.488 120.852 161.151C125.405 167.53 129.866 172.114 133.305 179.886C134.699 183.076 139.469 189.703 140.832 188.464C140.305 187.442 139.686 186.451 138.911 185.461C137.827 184.377 136.991 183.2 136.495 181.837L136.124 180.815L136.681 181.992L137.734 183.602L138.85 185.182C139.934 186.266 140.739 187.473 141.235 188.774C143.434 193.079 144.054 196.98 147.059 200.851C157.095 213.765 165.273 228.319 174.938 241.109C176.177 242.75 176.673 242.44 176.735 241.759L176.58 241.016L176.952 241.976C177.633 243.431 178.253 244.701 178.779 245.847C178.965 246.219 178.872 246.126 178.903 246.249V246.466C178.903 246.466 178.903 246.714 178.903 246.838C178.903 247.271 178.903 247.488 179.027 247.705C179.306 248.138 180.049 248.324 182.156 249.687H182.187L182.094 249.904L181.97 249.718C180.173 249.501 179.461 249.284 179.213 249.408C178.934 249.532 179.306 249.904 178.903 251.204L178.655 251.483L178.779 251.204C178.346 251.111 177.943 250.957 177.633 250.771C177.416 250.709 177.416 250.523 177.045 250.523C176.58 250.585 176.084 250.647 175.62 250.678C173.668 250.926 171.593 251.297 169.021 252.133C156.011 256.438 164.839 256.004 160.41 258.482C155.36 261.3 150.683 264.458 144.333 266.688C141.266 267.772 138.199 269.01 134.977 270.683L131.973 272.541C130.888 272.293 133.986 271.302 134.668 270.714C127.946 272.758 121.193 274.801 114.935 276.721C111.621 278.703 110.877 279.601 111.652 279.88C112.767 280.314 111.652 281.336 107.779 283.255C101.181 283.07 101.708 283.101 88.9452 290.378C87.799 291.028 86.6838 291.679 85.5377 292.329L83.679 293.382L80.5194 295.054C76.4613 297.222 72.4653 299.359 68.4692 301.495C61.2205 305.459 54.0648 309.361 46.8471 313.294C42.2624 315.802 38.9788 318.28 30.1813 321.345C26.464 321.872 31.2655 318.806 31.4514 317.66C31.6992 316.576 22.8087 319.766 19.8659 321.531C14.1351 324.969 8.43526 327.941 0.81485 331.348C4.09844 331.905 7.25812 332.556 10.4178 333.268C15.56 333.175 22.3441 333.825 29.4069 334.599C36.4697 335.374 43.8733 336.272 49.697 336.55C66.1459 337.325 74.8815 339.028 87.9849 343.053C88.7593 343.27 89.4718 343.518 90.2152 343.735L91.3304 344.044C91.7331 344.168 91.7951 344.199 92.0429 344.292C92.8483 344.602 93.6227 344.85 94.5211 345.097C96.2868 345.562 98.3623 345.872 101.274 345.995C112.054 346.398 123.919 347.761 135.721 349.464C145.603 350.888 155.391 353.397 165.49 353.954C166.729 354.016 169.3 354.295 169.393 354.357C171.654 355.905 174.907 356.586 178.408 356.989C180.111 357.175 182.125 357.298 183.643 357.36C184.045 357.237 184.51 357.144 184.975 357.082C184.758 357.608 184.231 357.918 183.921 358.258C183.612 358.568 183.55 358.909 183.581 359.311C183.736 359.435 184.045 359.188 184.448 358.878C184.851 358.537 185.315 358.351 185.78 358.228C186.121 358.413 186.183 359.126 186.276 359.807C186.462 359.373 186.369 364.204 186.833 366.372C187.081 367.673 185.006 368.199 184.138 373.711C183.209 379.595 182.589 384.209 183.488 388.514C183.736 387.461 183.952 386.284 184.2 385.386C184.696 383.621 185.253 381.453 185.749 382.723C185.873 383.063 185.873 385.107 185.749 385.974C185.377 388.637 184.882 390.279 184.262 389.505C184.014 389.195 183.767 389.164 183.519 389.009C180.855 399.445 181.598 409.386 182.032 417.747C182.868 434.748 183.054 434.407 178.965 445.865C178.5 447.135 178.036 448.157 177.881 450.232C177.075 460.017 176.27 470.051 175.465 479.867C174.659 490.551 174.071 501.018 174.133 509.224C174.164 513.87 174.814 516.037 173.947 523.191C173.203 529.322 172.615 535.299 172.119 541.121C181.443 529.539 191.635 515.697 201.145 503.093C205.946 496.745 210.624 490.613 215.363 484.698C217.749 481.725 220.134 478.783 222.612 475.873L226.329 471.506L228.56 469.246C232.587 465.251 237.667 457.137 239.154 452.678C239.835 450.634 239.247 449.798 242.283 445.586C245.112 445.091 248.344 441.643 251.979 435.243C252.505 434.314 252.66 433.664 253.001 432.89C253.682 432.704 254.178 432.797 255.076 432.24C258.174 430.351 261.055 427.316 263.161 422.423C261.117 424.343 260.095 424.591 259.258 424.653C258.855 424.807 258.391 425.086 258.143 425.086C258.05 425.086 258.453 424.405 258.608 424.064L259.165 422.98L258.732 423.94C258.763 424.312 258.979 424.467 259.382 424.374L263.378 421.989C269.574 415.455 275.366 408.89 278.185 402.015C275.088 405.793 271.959 409.571 268.892 413.287C266.91 415.641 265.299 416.973 266.011 415.022C266.538 413.504 268.056 411.089 270.007 409.2C272.888 406.444 275.583 404.152 278.371 401.644L283.513 395.048L284.288 393.84L283.73 394.893C286.177 395.079 289.771 389.04 292.156 385.417C297.205 377.737 288.81 386.872 290.112 383.559C291.97 381.701 293.891 379.533 295.316 378.356L296.214 377.613C296.214 377.613 296.555 377.334 296.617 377.272L296.834 377.211L297.608 376.963C298.104 376.839 298.506 376.746 298.847 376.622C299.529 376.343 299.9 376.034 300.551 374.454C300.768 374.454 301.016 374.454 301.356 374.392C301.511 374.392 301.945 374.919 302.069 375.29C302.564 376.56 302.905 377.365 303.37 377.985L303.803 378.542L304.485 379.409C304.95 379.998 305.414 380.555 305.879 381.112C306.808 382.227 307.738 383.28 308.667 384.333C312.384 388.452 316.194 392.044 320.005 395.791C323.164 398.888 329.298 403.254 326.789 405.577C325.983 406.32 329.855 410.129 331.559 411.522C341.41 419.605 341.751 419.915 349.309 432.425C351.973 436.823 352.995 439.95 357.828 445.865C363.032 452.182 364.953 451.78 368.856 455.651C369.506 456.859 369.909 457.85 370.25 458.779C370.621 459.739 370.776 460.389 371.675 461.968C373.193 464.724 375.485 468.224 380.162 473.922C385.831 480.796 391.314 487.888 396.952 495.258C402.59 502.597 408.383 510.215 414.052 517.369C419.473 524.213 423.995 529.291 428.394 534.339C426.164 524.182 424.274 515.139 423.345 507.026L421.083 501.142C421.269 504.239 421.424 507.304 421.641 511.051C419.132 499.965 419.968 500.182 420.99 500.77C418.172 490.83 416.84 484.265 415.941 477.854C415.043 471.537 414.516 465.437 413.649 458.562C414.64 454.288 413.277 447.475 410.737 442.273C410.52 441.189 410.241 440.198 409.963 439.331L408.909 436.049C409.374 435.027 409.591 438.309 409.963 438.99C410.675 438.681 411.326 437.783 410.52 433.385C407.02 414.371 402.745 395.605 399.957 376.251C399.368 372.287 398.067 365.815 396.549 364.08C395.062 362.873 395.124 361.015 395.001 358.971C394.939 357.98 395.186 357.391 395.403 356.865C396.766 357.02 397.85 357.144 398.966 356.617C399.926 356.184 400.05 355.657 399.957 355.131C399.895 354.604 399.616 354.047 400.329 353.52C400.669 353.52 400.979 353.551 401.289 353.582C401.599 353.582 401.847 353.613 402.342 353.582C403.241 353.582 404.077 353.582 404.882 353.551C406.493 353.551 407.949 353.52 409.405 353.489C406.927 354.078 403.179 354.666 403.302 355.348C403.457 356.246 407.268 355.224 409.653 354.914C413.773 354.914 417.8 354.326 419.937 352.994C420.928 352.375 420.03 351.848 420.03 351.291C420.03 350.702 420.185 349.99 423.469 349.34C430.562 347.946 423.716 350.455 427.217 350.083C432.452 349.526 436.479 349.216 431.337 351.229C438.121 351.415 444.905 350.238 449.242 348.132C454.539 345.593 461.664 344.54 469.842 343.549C468.788 345.035 458.411 345.686 458.814 347.358C461.137 347.017 463.181 346.739 465.164 346.46C473.528 345.128 486.26 343.766 489.388 342.403C498 338.656 502.863 341.01 510.546 339.43C511.413 339.245 512.311 339.09 513.21 338.904C514.387 338.687 515.595 338.501 516.803 338.285C519.591 337.851 522.441 337.386 525.291 336.953C531.053 336.086 536.876 335.219 542.669 334.352C554.1 332.587 565.376 330.636 570.735 328.499L572.036 328.158L571.478 328.468C572.81 328.561 574.266 328.592 575.939 328.468C575.04 327.508 571.85 325.588 567.947 323.234C562.804 320.169 556.888 316.979 551.25 313.913C545.55 310.816 540.129 307.813 534.987 304.53C530.185 301.433 525.477 298.801 521.729 297.005C519.126 295.828 516.741 295.085 514.449 294.621C510.174 293.722 509.647 293.32 500.602 288.117C502.616 288.52 507.882 291.462 507.138 289.728C499.301 285.083 499.456 285.237 487.158 280.778C485.547 280.19 477.555 276.505 479.321 275.638C481.148 274.739 476.842 272.262 472.908 270.094C464.637 265.511 456.181 260.525 448.065 257.181C452.401 260.804 458.938 264.334 464.39 267.927C458.814 264.303 448.932 260.959 447.755 257.057C444.533 255.044 441.281 253.124 437.966 251.204C434.744 249.346 431.461 247.488 428.177 245.599C425.916 244.299 423.655 243.06 421.269 241.821L424.987 235.752C427.279 232.159 429.54 228.567 431.833 224.975C436.727 217.326 441.652 209.77 446.826 202.4C459.031 184.934 469.563 167.097 481.52 149.879C482.728 148.145 483.596 146.566 485.082 144.026C487.034 140.589 487.375 139.35 484.835 142.044C483.627 143.531 477.276 154.183 482.635 143.995C484.618 140.403 488.986 133.435 491.371 132.94C492.548 132.785 495.708 128.542 498.403 123.99C504.412 113.771 511.258 103.521 518.693 92.6203C515.316 93.89 511.971 95.1597 508.687 96.4293C501.593 99.0925 493.539 102.932 486.414 106.122C479.166 109.374 472.877 112.006 465.505 113.802C464.142 114.143 462.407 114.948 460.765 115.846L459.557 116.527C459.154 116.775 458.969 116.93 458.69 117.116C458.163 117.518 457.668 117.89 457.203 118.261C450.574 123.619 443.232 126.715 429.788 129.967C432.359 128.945 434.93 127.892 437.47 126.87C439.887 125.848 442.891 124.548 441.466 124.3C440.692 124.145 438.4 125.012 436.386 125.91C433.288 127.335 430.47 128.728 428.859 130.091C418.977 134.674 409.777 139.691 398.377 143.314C399.059 142.695 399.74 142.075 400.298 141.487C400.36 141.425 399.461 141.673 398.997 141.766L397.138 143.593C387.318 148.052 377.344 152.48 367.307 156.847C357.704 160.934 348.07 165.053 338.436 169.141C336.794 162.08 335.152 155.051 333.511 148.052C323.536 104.233 311.579 62.8607 301.325 19.6612C299.498 11.9194 297.763 9.3181 296.121 7.67683C294.417 6.00459 294.232 9.50391 294.82 14.8922C295.656 22.3244 296.183 29.8804 298.228 38.3345C304.95 66.4219 309.906 94.3545 316.597 122.814C318.549 131.144 320.5 139.474 322.483 147.804C325.24 159.789 327.997 171.773 330.754 183.788C347.048 177.285 363.404 170.751 379.698 164.248C392.615 159.2 405.533 154.214 418.481 149.415C427.744 145.977 436.944 142.323 446.144 138.638C450.76 136.811 455.344 134.984 459.96 133.126L463.429 131.763L465.66 130.896L467.58 130.246C469.067 129.781 470.523 129.162 472.196 128.45C473.9 127.706 475.634 126.932 477.369 126.189C476.254 127.923 474.798 130.029 473.094 131.949C471.948 133.25 471.174 134.24 470.492 135.262L465.195 143.5C459.588 152.264 454.012 161.089 447.941 169.698C437.811 184.067 428.27 199.891 418.172 214.136C416.778 216.087 415.415 218.038 414.021 220.02L409.343 226.771C404.48 233.955 399.616 241.14 394.815 248.231C404.294 253.558 413.587 258.791 422.632 263.87C452.123 280.066 480.436 297.408 509.678 313.387L511.878 314.625L512.157 314.78L512.249 314.842L512.404 314.966C512.621 315.121 512.776 315.276 512.931 315.462C513.241 315.771 513.396 316.081 513.612 316.298C514.108 316.762 514.48 316.824 519.188 317.939C519.622 318.032 519.994 318.28 519.684 318.28H519.529C514.883 317.846 514.883 317.939 514.015 318.28C513.643 318.434 513.179 318.62 512.621 318.713C512.342 318.744 512.033 318.775 511.754 318.713C511.568 318.713 511.537 318.651 511.258 318.62C510.329 318.682 509.431 318.713 508.532 318.775C505.404 318.899 500.013 319.983 496.234 320.85C486.538 323.049 477.152 323.916 467.363 325.278C453.548 327.198 439.732 329.118 425.885 331.038L405.161 334.135L371.179 339.554L374.556 356.958L376.259 365.536L376.91 368.633L377.405 370.893C378.892 377.613 380.317 384.983 380.565 391.301C380.999 401.861 383.012 412.358 385.862 423.259C386.668 426.387 387.814 430.474 388.062 433.076C388.371 436.389 388.712 439.641 389.146 442.861L389.487 445.246L389.642 446.299V446.361C389.642 446.361 389.58 446.454 389.642 446.516C389.734 446.732 390.23 447.073 391.562 449.241C391.717 449.519 391.748 449.798 391.593 449.643C390.323 448.435 389.765 447.506 389.703 447.444C389.611 447.352 390.013 448.188 390.447 449.303C390.54 449.55 390.571 449.736 390.571 449.829C390.571 449.953 390.509 449.984 390.323 449.674C389.394 448.064 389.115 447.197 388.836 446.887C388.805 446.856 388.743 446.794 388.712 446.763L386.327 443.821C384.313 441.375 382.3 438.898 380.286 436.451C376.228 431.589 372.077 426.82 367.833 422.206C366.409 420.627 364.984 419.016 364.302 417.592C359.501 407.311 349.743 396.379 341.503 386.16C337.476 381.143 333.728 374.145 327.966 370.181C327.47 369.84 326.665 368.88 325.642 367.58C325.147 366.898 324.589 366.155 323.97 365.35C323.257 364.359 322.483 363.275 321.646 362.16C316.38 354.976 310.309 346.739 305.817 340.607C304.113 338.346 302.41 336.055 300.706 333.794C296.09 339.585 291.475 345.345 286.89 351.105L275.521 365.691C271.061 371.667 266.6 377.644 262.139 383.59C253.28 395.543 244.358 407.435 234.6 418.645C227.816 429.638 218.275 439.207 210.252 450.232C208.92 452.059 207.836 453.545 207 454.722C206.783 455.031 206.597 455.31 206.411 455.558C206.287 455.713 206.256 455.775 206.287 455.775C206.287 455.775 206.287 455.93 206.349 455.992C206.473 456.239 206.69 456.673 207.371 457.199C207.805 457.54 208.455 457.664 208.796 458.097C209.261 458.717 209.261 459.646 208.796 460.76C208.363 461.875 207.526 463.145 206.659 464.105C204.645 466.335 205.358 464.105 205.977 461.566C206.318 460.234 206.101 459.46 205.884 458.84C205.668 458.252 205.482 457.788 205.358 457.726C205.141 457.664 205.079 457.385 204.893 457.633C204.707 457.911 204.397 458.717 203.282 461.349C202.849 462.402 202.26 463.888 201.795 464.848V464.879C201.733 464.91 202.26 463.517 202.632 462.557C205.482 454.908 205.11 456.425 204.428 457.044C203.995 457.509 203.344 457.695 203.189 457.044C203.096 456.766 203.158 456.301 203.375 455.868C203.499 455.651 203.654 455.434 203.84 455.279C203.933 455.186 204.057 455.124 204.212 455.062H204.305C204.305 455.062 204.397 454.753 204.428 454.629L204.738 453.731C205.296 438.743 208.022 422.578 206.938 408.58C206.535 403.378 206.349 399.414 207.96 394.304C208.827 391.517 209.106 386.532 209.385 382.289C210.345 367.27 211.274 352.344 212.235 337.294C206.535 336.426 200.804 335.559 195.073 334.661L186.957 333.361L182.342 332.525C178.872 331.874 176.673 332.432 175.496 332.958L176.332 333.33L175.186 332.958C168.216 330.728 159.79 329.459 151.364 328.22C146.005 327.446 140.925 326.919 142.815 328.685C144.735 330.419 143.372 331.255 136.805 331.1C130.826 330.945 125.436 331.1 119.365 330.883C116.546 330.79 116.453 329.892 115.555 329.614C108.771 327.353 111.28 326.981 117.289 327.012C122.06 327.012 129.463 328.096 131.105 326.796C124.414 325.061 118.188 326.455 111.806 324.009L107.872 323.141C110.196 322.925 110.567 323.699 111.899 323.978C115.09 323.916 116.887 323.482 112.147 322.398C108.399 321.531 104.124 320.757 99.6943 320.045C98.5791 319.89 97.4639 319.704 96.3178 319.549L95.6053 319.456H95.4814H95.2336C94.9238 319.456 94.5521 319.487 94.1184 319.549C90.3391 320.045 86.8387 320.509 84.7632 320.788C82.7807 321.036 81.9133 321.252 81.9133 321.5C81.9133 321.717 82.7497 321.965 83.679 322.12H84.5154L83.71 322.212C79.9308 322.832 74.6337 322.305 69.0887 323.203C64.628 323.947 62.3977 323.018 61.5613 322.553C61.7781 322.46 61.995 322.398 62.1498 322.336C67.8187 320.385 65.9291 321.469 65.3715 321.996C65.8671 321.996 66.3008 322.027 66.6106 322.027C69.6773 322.027 71.9696 321.686 71.412 321.345C71.2881 321.252 71.1952 321.191 71.1952 321.129C76.3684 319.456 76.5852 319.983 77.3597 320.231C77.9482 320.231 78.5678 320.2 79.1254 320.169C82.0063 320.076 84.2986 320.076 86.7148 319.332C88.5115 318.837 87.6441 318.899 86.5909 318.868C86.5909 318.806 86.5909 318.744 86.8077 318.651C87.768 318.218 87.0246 318.001 86.8697 317.536C86.6529 317.072 87.0865 316.36 88.8522 315.647C90.7109 314.904 91.0516 315.059 91.2375 315.369C91.3614 315.678 91.4233 316.081 91.888 316.174C91.95 316.267 92.0119 316.36 92.1668 316.422C92.2288 316.422 92.6005 316.453 92.6005 316.422C92.6315 316.36 92.6005 316.267 92.5695 316.174C93.3749 315.771 93.9325 315.462 94.3042 314.316C94.2733 314.254 94.4281 314.13 94.645 313.975L95.2026 313.573C95.5743 313.325 95.977 313.077 96.3797 312.86C97.1851 312.427 98.0215 312.024 98.8579 311.684C100.562 310.971 102.327 310.414 104.031 309.826L104.186 311.002C105.177 310.538 106.757 309.918 107.067 309.64C108.647 308.339 107.191 308.556 105.27 309.02C104.837 307.534 102.792 307.162 114.378 301.526C123.64 297.036 134.234 290.595 138.447 285.733C142.319 284.742 145.355 283.937 148.391 283.163C148.05 283.441 147.616 283.782 147.492 283.968C147.43 284.03 148.298 283.844 148.514 283.72C149.072 283.41 149.506 283.101 149.97 282.791C151.086 282.265 152.077 281.707 152.944 281.15L154.09 280.437L153.223 281.057H156.63C149.97 284.618 143.589 288.706 147.988 288.272C153.285 287.746 158.613 283.286 163.415 280.406C164.839 279.539 165.428 278.734 166.388 277.929C166.605 277.681 167.163 277.279 167.008 277.248C166.636 277.155 165.955 277.248 165.397 277.279C170.291 274.585 175.217 271.921 180.235 269.475C184.262 267.493 192.812 263.684 201.021 260.587C200.525 260.928 199.937 261.3 199.565 261.578C199.503 261.609 200.804 261.176 200.897 261.145C201.548 260.773 202.043 260.433 202.601 260.061C204.397 259.008 206.38 257.831 208.363 256.624C202.849 249.625 197.737 243.153 195.631 242.843L195.972 243.803L195.383 242.564C194.268 240.83 193.122 239.22 192.038 237.764C191.046 236.433 190.272 235.535 189.373 234.482C187.639 232.407 185.904 230.394 184.169 227.886C184.944 227.421 185.966 227.39 186.307 226.461C186.647 225.563 185.408 222.59 182.992 219.741C174.969 210.172 166.512 196.454 158.768 189.208C158.303 187.969 157.746 187.102 157.281 186.978C157.157 186.947 157.498 187.69 157.622 188.062C155.732 184.593 148.793 181.156 150.9 177.471C151.488 176.449 149.01 172.361 146.222 169.141C143.124 165.549 138.354 160.067 138.633 162.235C139.407 168.274 134.11 158.271 131.446 155.143L130.703 154.307L131.291 154.772C132.871 155.143 134.792 156.042 135.938 155.732C136.712 155.515 135.163 152.264 133.088 149.198C130.703 145.698 130.95 147.34 130.795 148.052C130.517 149.322 128.658 147.03 126.459 144.274C122.153 139.009 117.971 133.9 113.355 128.202C114.316 127.552 115.338 127.211 115.152 125.817C114.904 124.362 113.696 122.225 109.142 116.558C107.284 114.236 105.859 111.944 104.372 109.714C108.956 111.17 112.767 112.316 114.192 111.108C114.749 110.674 118.312 111.789 121.781 112.78C125.282 113.802 128.751 114.7 130.517 114.236L133.645 116.248C134.606 116.187 135.659 116.156 136.774 116.125C139.283 116.899 141.607 117.704 143 118.633L141.699 118.819L144.456 119.407C151.519 122.999 157.746 125.353 169.207 128.016C179.399 130.37 192.781 134.086 204.088 138.669L206.008 139.288L205.234 138.793C205.482 137.213 206.349 137.151 210.655 138.886C215.735 140.929 219.359 141.611 223.541 142.323C229.396 143.345 235.839 144.862 242.407 146.72L245.225 147.123C245.969 148.021 243.305 146.844 242.685 146.906C241.353 147.34 239.681 147.68 238.163 148.083C243.708 149.91 247.642 151.211 250.43 152.109C253.28 153.007 254.952 153.502 255.851 153.626C256.006 152.728 256.037 152.171 255.944 151.706C255.479 149.229 256.439 147.495 257.585 145.203C258.701 142.973 260.002 140.155 259.351 138.142C258.422 135.231 262.975 131.546 263.564 126.561C264.927 114.979 270.007 102.158 273.477 89.8642C274.22 87.263 274.871 84.5688 274.437 83.6708C273.26 81.2863 273.663 80.7598 274.53 76.2386C276.079 68.4039 279.022 60.7859 281.221 53.044C274.561 65.9884 270.627 80.2334 267.808 95.0668L267.591 95.2526ZM485.175 109.188C483.472 109.9 483.193 109.683 484.587 108.785C485.578 108.166 486.879 107.423 488.087 106.741C488.273 106.896 488.924 106.927 488.397 107.33C487.839 107.794 486.136 108.785 485.175 109.188ZM510.143 97.668C509.307 98.0396 508.284 98.4732 507.789 98.597C506.364 98.9687 507.138 98.5041 509.802 97.4203C510.546 97.1106 511.103 96.9867 511.723 96.8009C511.196 97.1106 510.639 97.4512 510.143 97.668ZM502.058 114.762C502.213 114.39 502.987 113.368 503.452 112.625L504.722 111.139C504.381 111.727 504.133 112.285 503.7 112.966C502.213 115.196 501.531 115.908 502.027 114.762H502.058ZM464.39 172.268C465.505 169.419 467.301 166.849 469.501 164.465L471.886 161.585C471.019 163.814 470.213 163.814 469.346 164.898L464.668 171.99L464.08 173.136L464.421 172.237L464.39 172.268ZM448.127 196.361C450.295 193.109 452.494 189.827 455.251 185.677C453.424 190.911 450.636 193.853 447.91 196.857L446.082 198.498C447.476 195.989 447.259 197.569 448.127 196.392V196.361ZM432.049 221.104C432.514 220.454 433.072 219.958 433.598 219.401C432.886 220.516 432.235 221.692 431.492 222.745C431.027 223.427 430.439 223.984 429.757 224.758C430.655 223.334 431.337 222.126 432.08 221.073L432.049 221.104ZM420.867 238.043L421.455 237.424L421.021 238.198L420.898 238.043H420.867ZM424.863 246.714C424.429 246.249 423.902 245.506 423.964 245.537C424.77 245.723 425.482 245.971 426.164 246.28C426.504 246.435 426.845 246.59 427.155 246.776L428.425 247.519C430.531 248.82 432.669 250.12 434.682 251.39C432.669 250.213 430.996 249.811 429.323 249.253C428.518 248.975 427.589 248.634 426.783 248.2C426.133 247.86 425.451 247.395 424.832 246.714H424.863ZM532.013 306.202C530.712 305.521 529.132 304.468 528.079 303.725C526.592 302.672 526.871 302.455 528.667 303.353C531.177 304.592 533.779 306.047 534.584 307.069C533.779 306.822 532.88 306.698 531.982 306.233L532.013 306.202ZM546.232 314.78C544.311 313.944 543.041 313.077 543.846 313.17C544.404 313.232 546.046 313.882 547.471 314.502C549.484 315.4 550.475 316.081 550.073 316.236C548.772 315.74 547.626 315.4 546.232 314.78ZM546.324 331.905L546.603 332.06L544.714 332.246L546.324 331.905ZM514.635 333.299C516.71 332.958 517.206 333.051 515.781 333.547C515.347 333.701 514.511 333.856 513.86 334.011C513.643 333.918 513.396 333.856 513.21 333.732C513.612 333.608 514.108 333.392 514.604 333.299H514.635ZM505.868 337.51C506.426 337.448 507.138 337.417 507.448 337.479C508.315 337.665 507.696 337.913 505.93 338.068C505.527 338.099 505.28 337.975 504.97 337.913C505.28 337.789 505.651 337.541 505.899 337.51H505.868ZM398.284 388.328L397.974 376.529C399.09 382.723 401.072 389.35 399.833 391.115C399.585 391.455 398.811 389.319 398.284 388.328ZM410.954 447.352L412.162 453.917C411.357 451.625 410.985 449.55 410.954 447.352ZM396.147 451.13C396.023 450.851 395.868 450.541 395.837 450.294C395.837 450.17 395.961 450.015 396.085 450.108C396.487 450.417 396.673 451.006 396.549 451.47C396.549 451.532 396.302 451.254 396.147 451.161V451.13ZM389.549 453.173L389.672 453.081L389.611 453.39H389.456L389.549 453.173ZM389.146 465.777L389.084 465.994L388.495 465.034L389.146 465.746V465.777ZM362.072 418.862V419.295L361.514 418.552L362.072 418.893V418.862ZM328.926 386.934L329.577 387.956L328.709 386.965H328.926V386.934ZM279.517 372.782C280.199 371.884 281.655 370.367 281.717 370.46C282.181 370.986 280.602 373.185 278.991 375.352C278.185 376.189 276.76 377.861 276.729 377.768C276.451 377.056 277.783 375.012 279.517 372.782ZM234.724 454.412L236.676 450.417L238.596 446.701C240.083 443.852 242.004 441.406 244.389 439.362L244.978 438.959L244.203 439.734L238.999 446.392L236.986 450.201L234.972 454.257L234.383 455.279L234.724 454.443V454.412ZM218.089 476.089C218.678 475.284 219.452 474.293 219.979 473.674C221.528 471.94 221.28 472.497 219.205 475.191C218.616 475.934 217.965 476.647 217.346 477.359C217.594 476.925 217.749 476.523 218.089 476.058V476.089ZM198.264 501.947C200.123 499.717 202.074 497.488 203.53 496.063C204.274 495.32 202.88 497.55 200.99 499.872C199.1 502.164 197.242 504.424 195.011 507.088C196.467 504.734 197.644 502.659 198.233 501.947H198.264ZM176.487 511.547C176.766 508.203 177.199 504.641 177.571 501.235L177.416 496.683C178.284 493.555 177.447 500.182 177.726 500.461C177.695 503.217 177.726 505.632 177.571 508.574C177.447 511.175 177.199 515.294 176.549 515.975C176.363 516.161 176.363 513.374 176.518 511.547H176.487ZM192.533 484.079L192.626 483.336L192.874 483.119L192.533 484.079ZM197.397 466.768C197.366 467.387 197.397 467.883 197.397 468.409C197.83 467.976 198.233 467.511 198.667 466.954C199.348 466.087 199.689 465.87 199.162 467.914C198.976 468.626 198.667 469.679 198.357 470.453C197.49 472.776 197.211 472.621 197.211 471.413V468.936C197.025 468.471 196.777 468.131 196.746 467.295C196.746 466.458 196.963 464.662 197.459 464.353C197.923 464.012 197.428 465.87 197.366 466.799L197.397 466.768ZM191.387 439.021C191.48 438.681 191.635 438.805 191.759 438.681C191.759 439.207 191.759 439.857 191.697 440.26C191.604 440.756 191.418 441.406 191.325 441.375C190.984 441.282 191.015 440.322 191.387 438.99V439.021ZM199.472 447.754C199.317 447.352 199.317 445.865 199.348 444.812C199.348 444.1 199.627 443.264 199.782 442.335C199.813 443.605 199.875 444.626 199.906 445.772C199.906 447.321 199.689 448.374 199.472 447.754ZM202.787 441.87C203.003 443.233 203.096 445.06 203.251 446.67L203.375 447.909L203.189 446.856C202.849 446.144 202.446 445.617 202.167 444.595C201.981 443.976 201.764 442.18 201.857 441.654C202.353 438.557 202.601 440.694 202.787 441.87ZM196.746 438.371C196.839 439.362 196.777 440.663 196.808 441.839C196.653 443.45 196.405 444.069 196.25 442.923C196.157 442.18 196.188 440.632 196.25 439.455C196.374 437.597 196.622 437.132 196.715 438.371H196.746ZM204.15 397.092C203.158 393.159 202.384 391.363 202.105 384.89C203.313 386.934 204.181 388.266 204.15 397.092ZM199.968 380.338C199.968 380.927 199.968 381.577 199.906 382.041C199.875 382.289 199.627 382.537 199.596 382.32C199.348 381.453 199.41 380.338 199.72 379.595C199.782 379.409 199.906 380.06 199.999 380.307L199.968 380.338ZM204.274 376.653L204.057 375.91L204.366 375.507L204.243 376.653H204.274ZM202.26 368.571C202.322 370.119 202.136 371.358 201.857 371.048C201.702 370.862 201.609 369.407 201.609 368.385C201.609 367.549 201.857 366.465 202.043 365.35C202.136 366.527 202.198 367.518 202.26 368.571ZM185.78 335.219C186.152 335.219 186.493 335.219 186.771 335.219C186.988 335.219 187.639 335.312 187.918 335.374C188.599 335.497 188.94 335.652 188.785 335.838C188.754 335.931 187.298 335.807 186.74 335.838C186.245 335.714 185.346 335.559 185.315 335.528C185.223 335.405 185.408 335.25 185.78 335.25V335.219ZM185.78 342.248C189.033 342.806 189.002 343.239 187.701 343.425C187.36 343.456 186.74 343.425 186.028 343.394C185.408 343.363 184.727 343.301 184.169 343.27L183.24 342.372C184.107 342.31 185.068 342.124 185.78 342.248ZM160.1 332.525C159.697 332.029 160.596 331.75 162.826 331.905C165.614 332.401 165.273 332.834 165.738 333.268C167.039 334.506 170.787 336.21 163.507 335.869C162.113 335.807 159.202 335.25 158.055 334.878C153.006 333.113 160.967 333.608 160.1 332.525ZM129.432 345.531C131.229 345.871 131.632 346.15 130.517 346.274C130.331 346.274 129.401 346.088 128.813 345.995C128.503 345.841 128.007 345.624 128.007 345.5C128.007 345.438 128.999 345.438 129.401 345.5L129.432 345.531ZM111.404 344.943H112.612L111.528 345.004H110.319L111.404 344.943ZM92.1668 322.367C92.9412 322.646 93.7157 323.172 92.8793 323.699C92.4456 323.947 91.5782 324.07 90.8348 324.256C90.4321 323.761 90.1843 323.265 90.0913 322.956C90.7728 322.367 91.4853 322.12 92.1668 322.367ZM72.0316 315.152L73.1777 314.997C73.1777 314.997 73.7044 315.09 73.5185 315.214C72.9609 315.616 72.2174 315.771 71.8147 315.554C71.6908 315.493 71.9387 315.276 72.0316 315.121V315.152ZM83.3693 314.594C82.4399 315.678 81.6655 316.607 79.4971 317.877C77.7314 317.165 81.6655 315.709 83.0595 314.656L83.4622 314.316L83.3693 314.594ZM92.6005 311.993L90.9587 312.52C91.3304 312.241 91.6712 311.931 92.1049 311.715C93.0342 311.343 93.9635 311.002 94.8618 310.631L93.5298 311.405L92.8483 311.776L92.5695 311.993H92.6005ZM92.8793 308.835C92.4146 309.051 91.857 309.268 91.6092 309.361C91.3304 309.454 91.1136 309.516 90.8658 309.578C90.4011 309.671 90.0294 309.733 89.7196 309.702C89.1001 309.702 88.6973 309.423 88.5115 309.113C88.2637 308.711 88.4186 308.184 89.0691 307.565C89.3789 307.255 89.8125 306.884 90.3391 306.512C90.9587 306.078 91.7331 305.614 92.6005 305.149C97.8047 303.075 99.6013 303.167 99.9421 303.942C100.376 304.871 97.1542 306.946 92.8483 308.866L92.8793 308.835ZM107.098 285.299C104.496 286.29 105.673 285.299 105.983 284.773C106.23 284.401 107.16 283.782 107.81 283.255C107.81 283.565 107.81 283.813 107.717 284.154C107.593 284.494 107.315 284.928 107.098 285.299ZM122.215 279.106C121.688 279.354 121.069 279.539 120.511 279.756C120.728 279.57 120.945 279.385 121.131 279.199C121.781 278.889 122.494 278.517 122.958 278.363C124.414 277.898 124.104 278.177 122.215 279.106ZM137.456 278.022L136.712 278.115L137.765 277.774L141.39 276.443C139.593 277.805 138.788 277.434 137.425 278.022H137.456ZM164.468 278.487L159.295 280.468L165.087 277.527C165.087 277.743 164.901 278.084 164.468 278.487ZM169.889 228.381C170.632 229.248 170.787 229.775 170.199 229.589C170.013 229.527 169.641 229.125 169.362 228.908V228.226C169.362 228.226 169.641 228.134 169.889 228.412V228.381ZM176.983 217.698H176.766L176.208 216.645L177.014 217.698H176.983ZM162.919 215.313L163.476 216.366L162.671 215.313H162.888H162.919ZM169.455 206.456L169.951 207.447L169.176 206.363L169.455 206.456ZM158.923 194.441C159.078 194.813 159.418 195.463 159.356 195.525C159.264 195.587 158.892 195.37 158.613 195.029C157.529 193.698 157.219 192.924 157.839 193.202C157.993 193.295 158.551 194.008 158.923 194.441ZM137.92 178.648L137.982 179.205L137.363 178.276L137.92 178.617V178.648ZM133.429 114.824L134.172 114.917L134.637 115.257L133.429 114.824ZM240.796 143.902L240.548 143.531L241.601 143.902H240.796ZM255.82 138.793C255.169 141.456 254.426 141.58 253.744 142.633L253.434 142.911L253.775 142.323C254.333 141.146 254.921 139.938 255.448 138.824C255.541 138.607 255.82 138.731 255.82 138.824V138.793ZM263.564 115.474C262.975 117.394 262.666 117.766 262.728 116.434C262.728 116.032 263.006 115.227 263.13 114.607L263.688 114.081C263.657 114.545 263.688 115.01 263.533 115.474H263.564Z" fill="#FBD75E"/>
<path d="M120.108 348.38C116.453 348.163 112.426 347.884 112.302 348.875C113.758 349.68 116.143 350.176 118.962 350.486C123.361 350.919 126.49 350.826 126.149 349.835C125.932 349.154 122.989 348.535 120.108 348.38Z" fill="#FBD75E"/>
<path d="M287.602 34.2159C288.934 30.6236 289.647 28.8895 290.266 27.0314C291.227 24.1824 293.333 18.7631 291.475 20.7141C289.802 22.4792 288.315 27.9295 287.571 34.2159H287.602Z" fill="#FBD75E"/>
<path d="M120.976 300.969C118.343 302.269 116.081 303.601 116.019 304.313C115.957 305.211 118.931 303.849 121.347 302.703C123.857 301.526 126.397 300.195 126.273 299.482C126.149 298.739 123.547 299.823 120.976 301V300.969Z" fill="#FBD75E"/>
<path d="M151.984 353.985C149.165 353.551 146.656 353.335 146.532 354.016C146.47 354.449 148.019 354.945 150.218 355.317C152.913 355.688 155.639 356.029 155.608 355.317C155.608 354.883 154.276 354.357 151.984 354.016V353.985Z" fill="#FBD75E"/>
<path d="M136.65 294.528C136.898 294.744 138.323 294.218 139.407 293.506C140.182 293.01 140.429 292.577 140.925 292.112L137.827 293.289C137.394 293.722 136.495 294.373 136.65 294.528Z" fill="#FBD75E"/>
<path d="M70.4517 341.908C67.5399 341.412 65.9291 341.35 65.7122 341.66C67.5089 342.063 69.4295 342.651 71.1642 342.868C74.3239 343.301 75.0674 343.115 73.3326 342.558C72.7131 342.372 71.5359 342.093 70.4517 341.908Z" fill="#FBD75E"/>
<path d="M295.997 5.38524C295.44 6.71684 295.223 7.73876 295.378 8.35811C295.533 8.23424 295.718 8.26521 295.873 7.92457C296.431 6.6549 296.648 5.54008 296.462 5.01363C296.4 4.8588 296.152 5.0446 295.997 5.38524Z" fill="#FBD75E"/>
<path d="M283.761 45.6428C283.761 45.6428 284.04 45.5499 284.195 45.2402C284.257 45.1164 284.412 44.3731 284.536 43.9086C284.381 44.0325 284.257 44.0015 284.102 44.3112C284.04 44.4351 283.885 45.1783 283.761 45.6428Z" fill="#FBD75E"/>
<path d="M420.557 492.44C421.145 493.524 421.021 492.44 420.216 489.343C420.123 489.034 419.999 489.343 419.875 489.343L420.557 492.44Z" fill="#FBD75E"/>
<path d="M281.128 62.8297C281.128 62.8297 281.407 62.7368 281.593 62.4271C281.686 62.2723 281.841 61.5291 281.934 61.0646C281.779 61.1884 281.655 61.1575 281.469 61.4672C281.376 61.622 281.221 62.3652 281.128 62.8297Z" fill="#FBD75E"/>
<path d="M79.2803 294.218C78.7846 294.342 78.4129 294.342 77.7004 294.651C76.864 294.992 75.2842 295.766 74.8195 296.045C73.2087 297.036 74.1071 296.819 76.957 295.488C77.7314 295.147 78.5058 294.651 79.2803 294.218Z" fill="#FBD75E"/>
<path d="M36.7175 337.263C36.1289 337.201 36.067 337.355 35.7572 337.386C36.6555 337.572 37.6158 337.82 38.4832 337.913C42.1695 338.377 42.6651 338.254 39.8772 337.665C39.2267 337.51 37.6158 337.324 36.7175 337.263Z" fill="#FBD75E"/>
<path d="M167.442 280.406L168.774 279.88L169.207 279.323C168.743 279.508 168.03 279.725 167.906 279.818C167.596 280.035 167.596 280.19 167.442 280.376V280.406Z" fill="#FBD75E"/>
</g>
<defs>
<clipPath id="clip0_2_4436">
<rect width="575" height="541" fill="white" transform="translate(0.845825 0.182739)"/>
</clipPath>
</defs>
</svg>
