<svg width="623" height="620" viewBox="0 0 623 620" fill="none" xmlns="http://www.w3.org/2000/svg">
<path d="M590.298 226.734C567.741 213.436 556.563 186.913 562.794 161.471C572.176 123.156 542.278 86.5092 502.886 88.0355C476.729 89.0501 452.998 72.7828 444.493 48.0079C431.682 10.6956 386.736 -3.96246 354.426 18.6355C332.97 33.641 304.221 32.7927 283.68 16.5501C252.747 -7.911 207.021 4.07365 192.051 40.5664C182.111 64.7976 157.47 79.6411 131.416 77.0859C92.1807 73.2414 60.191 108.063 67.3154 146.867C72.0464 172.633 59.3376 198.451 36.0429 210.398C0.961128 228.389 -7.13322 274.995 19.8227 303.786C37.7228 322.905 40.9806 351.502 27.8397 374.157C8.05063 408.276 26.4204 451.864 64.65 461.504C90.0348 467.904 108.225 490.203 109.411 516.373C111.197 555.782 150.2 582.519 187.564 569.945C212.374 561.598 239.723 570.516 254.86 591.893C277.655 624.083 324.906 625.478 349.544 594.683C365.904 574.237 393.726 566.944 418.007 576.739C454.573 591.49 495.07 567.098 499.159 527.86C501.874 501.807 521.338 480.617 547.053 475.722C585.779 468.351 606.668 425.918 588.908 390.693C577.114 367.305 582.04 338.947 601.027 320.916C629.62 293.761 624.265 246.76 590.297 226.732L590.298 226.734Z" fill="#E795C0"/>
<path d="M590.298 226.734C567.741 213.436 556.563 186.913 562.794 161.471C572.176 123.156 542.278 86.5092 502.886 88.0355C476.729 89.0501 452.998 72.7828 444.493 48.0079C431.682 10.6956 386.736 -3.96246 354.426 18.6355C332.97 33.641 304.221 32.7927 283.68 16.5501C252.747 -7.911 207.021 4.07365 192.051 40.5664C182.111 64.7976 157.47 79.6411 131.416 77.0859C92.1807 73.2414 60.191 108.063 67.3154 146.867C72.0464 172.633 59.3376 198.451 36.0429 210.398C0.961128 228.389 -7.13322 274.995 19.8227 303.786C37.7228 322.905 40.9806 351.502 27.8397 374.157C8.05063 408.276 26.4204 451.864 64.65 461.504C90.0348 467.904 108.225 490.203 109.411 516.373C111.197 555.782 150.2 582.519 187.564 569.945C212.374 561.598 239.723 570.516 254.86 591.893C277.655 624.083 324.906 625.478 349.544 594.683C365.904 574.237 393.726 566.944 418.007 576.739C454.573 591.49 495.07 567.098 499.159 527.86C501.874 501.807 521.338 480.617 547.053 475.722C585.779 468.351 606.668 425.918 588.908 390.693C577.114 367.305 582.04 338.947 601.027 320.916C629.62 293.761 624.265 246.76 590.297 226.732L590.298 226.734Z" fill="#E795C0"/>
<path d="M590.298 226.734C567.741 213.436 556.563 186.913 562.794 161.471C572.176 123.156 542.278 86.5092 502.886 88.0355C476.729 89.0501 452.998 72.7828 444.493 48.0079C431.682 10.6956 386.736 -3.96246 354.426 18.6355C332.97 33.641 304.221 32.7927 283.68 16.5501C252.747 -7.911 207.021 4.07365 192.051 40.5664C182.111 64.7976 157.47 79.6411 131.416 77.0859C92.1807 73.2414 60.191 108.063 67.3154 146.867C72.0464 172.633 59.3376 198.451 36.0429 210.398C0.961128 228.389 -7.13322 274.995 19.8227 303.786C37.7228 322.905 40.9806 351.502 27.8397 374.157C8.05063 408.276 26.4204 451.864 64.65 461.504C90.0348 467.904 108.225 490.203 109.411 516.373C111.197 555.782 150.2 582.519 187.564 569.945C212.374 561.598 239.723 570.516 254.86 591.893C277.655 624.083 324.906 625.478 349.544 594.683C365.904 574.237 393.726 566.944 418.007 576.739C454.573 591.49 495.07 567.098 499.159 527.86C501.874 501.807 521.338 480.617 547.053 475.722C585.779 468.351 606.668 425.918 588.908 390.693C577.114 367.305 582.04 338.947 601.027 320.916C629.62 293.761 624.265 246.76 590.297 226.732L590.298 226.734Z" stroke="#EF78AE" stroke-width="6" stroke-miterlimit="10"/>
</svg>
